<svg width="1440" height="97" viewBox="0 0 1440 97" fill="none" xmlns="http://www.w3.org/2000/svg"><circle cx="34.5" cy="25.5" r="59.5" fill="#fff"/><circle cx="119.5" cy="18.5" r="59.5" fill="#fff"/><circle cx="179.5" cy="47.5" r="37.5" fill="#fff"/><circle cx="222.5" cy="29.5" r="37.5" fill="#fff"/><circle cx="257.5" cy="41.5" r="52.5" fill="#fff"/><circle cx="331.5" cy="52.5" r="26.5" fill="#fff"/><circle cx="387.5" cy="52.5" r="32.5" fill="#fff"/><circle cx="436" cy="54" r="17" fill="#fff"/><circle cx="492.5" cy="42.5" r="42.5" fill="#fff"/><circle cx="561.5" cy="41.5" r="34.5" fill="#fff"/><circle cx="634.5" cy="39.5" r="54.5" fill="#fff"/><circle cx="714.5" cy="29.5" r="40.5" fill="#fff"/><circle cx="796.5" cy="20.5" r="68.5" fill="#fff"/><circle cx="876.5" cy="39.5" r="27.5" fill="#fff"/><circle cx="931" cy="42" r="36" fill="#fff"/><circle cx="981.5" cy="41.5" r="38.5" fill="#fff"/><circle cx="1034.5" cy="42.5" r="29.5" fill="#fff"/><circle cx="1081.5" cy="59.5" r="37.5" fill="#fff"/><circle cx="1130.5" cy="50.5" r="37.5" fill="#fff"/><circle cx="1200.5" cy="40.5" r="53.5" fill="#fff"/><circle cx="1256.5" cy="30.5" r="53.5" fill="#fff"/><circle cx="1328.5" cy="30.5" r="38.5" fill="#fff"/><circle cx="1412.5" cy="30.5" r="63.5" fill="#fff"/></svg>