<svg xmlns="http://www.w3.org/2000/svg" width="150" height="222" fill="none"><g opacity=".7"><g clip-path="url(#clip0)"><path fill="#006837" d="M114.36 48.22l70.22 70.21-14.9 14.9c-.07-5.61-3.19-14.2-7.13-22.84l-7.86 7.86c-.06-5.1-2.63-12.64-6.06-20.45l-7.2 7.2c-.09-7.54-5.67-20.4-11.35-31.59l-3.2 3.2c-.1-8.25-12.52-28.5-12.52-28.5z"/><path fill="#009245" d="M184.48 88.53l-7.86 7.86c8.64 3.94 17.23 7.07 22.85 7.13l-14.9 14.9-70.2-70.2s20.23 12.42 28.5 12.51l-3.21 3.2c11.18 5.69 24.05 11.27 31.57 11.35l-7.2 7.2c7.81 3.42 15.36 6 20.45 6.05z"/><path fill="#ff0" d="M143.8 61.81z"/><path fill="#ef6a6a" d="M142.43 106.1zM127.93 77.68z"/><path fill="#ff0" d="M152.53 91.1z"/><path fill="#ef6a6a" d="M142.43 87.24zM135.16 64.48z"/><path fill="#ff0" d="M141.52 76.84z"/></g><g clip-path="url(#clip1)"><path fill="#754c24" d="M127.33 112.18l-6.3 10.91 64.16 37.04 6.3-10.9-64.16-37.05z"/><path fill="#006837" d="M35.92 66.68l120.37 69.5L141.37 162c-2.09-7.62-9.4-18.16-17.83-28.46l-7.87 13.63c-1.88-6.92-8.07-16.23-15.5-25.59l-7.2 12.48c-2.82-10.23-14.99-25.68-26.68-38.8l-3.21 5.56C60 89.63 35.92 66.68 35.92 66.68z"/><path fill="#009245" d="M145.5 95.48l-7.88 13.63c13.14 2.16 25.92 3.21 33.56 1.2l-14.92 25.85L35.92 66.68s31.92 9.39 43.16 6.44l-3.21 5.56c17.2 3.57 36.67 6.38 46.91 3.69l-7.2 12.48c11.82 1.75 22.98 2.45 29.91.63z"/><path fill="#ff0" d="M80.73 74.23c1.05.61 2.4.24 3.01-.83z"/><path fill="#ef6a6a" d="M124.44 83.49c1.05.61 2.4.24 3.02-.82z"/><path fill="#ff0" d="M147.15 96.6c1.05.6 2.4.23 3.02-.83zM143.25 163.1c1.05.6 2.4.24 3.02-.83z"/><path fill="#ef6a6a" d="M117.38 148.16c1.05.61 2.4.24 3.02-.83zM94.67 135.05c1.05.61 2.4.24 3.02-.83zM64.84 101.75c1.05.61 2.4.24 3.01-.83z"/><path fill="#ff0" d="M105.56 94.3c1.05.6 2.4.23 3.01-.83zM126.6 126.3c1.05.6 2.4.24 3.01-.83z"/><path fill="#ef6a6a" d="M140.81 143.63c1.05.6 2.4.24 3.02-.83z"/><path fill="#ff0" d="M153.36 121.9c1.04.61 2.4.24 3.01-.83zM103.04 110.88c1.05.6 2.4.23 3.02-.83z"/><path fill="#ef6a6a" d="M127.11 109.48c1.05.6 2.4.24 3.01-.83zM87.94 109.37c1.04.6 2.4.24 3.01-.83zM69.96 81.08c1.05.6 2.4.23 3.02-.83z"/><path fill="#ff0" d="M83 95.55c1.05.6 2.4.23 3.01-.83z"/></g><g clip-path="url(#clip2)"><path fill="#754c24" d="M126.89 157.28l-2 7.46 43.84 11.74 2-7.45-43.84-11.75z"/><path fill="#006837" d="M65.59 144.85l82.23 22.04-4.73 17.65c-2.44-4.18-8.43-9.25-15.05-14.02l-2.5 9.32c-2.21-3.8-7.35-8.33-13.23-12.69l-2.29 8.53c-3.28-5.6-12.93-12.82-21.93-18.72l-1.02 3.8c-3.6-6.15-21.48-15.91-21.48-15.91z"/><path fill="#009245" d="M134.99 144.52l-2.5 9.32c8.12-.81 15.84-2.21 20.05-4.62l-4.73 17.66-82.22-22.03s20.37.5 26.55-3.03l-1.01 3.8c10.75-.62 22.7-2.04 28.34-5.26l-2.28 8.53c7.27-.84 13.98-2.19 17.8-4.37z"/><path fill="#ff0" d="M93.3 142.22c.2-.73-.23-1.48-.95-1.67-.72-.2-1.46.24-1.66.97-.2.73.23 1.47.95 1.67.72.19 1.47-.25 1.66-.97z"/><path fill="#ef6a6a" d="M120.63 140.76c.2-.73-.23-1.47-.95-1.66-.72-.2-1.46.24-1.66.96-.2.73.23 1.48.95 1.67.72.2 1.46-.24 1.66-.97z"/><path fill="#ff0" d="M136.14 144.92c.2-.73-.23-1.47-.95-1.67-.72-.2-1.46.24-1.65.97-.2.73.23 1.48.95 1.67.72.2 1.46-.24 1.65-.97zM144.38 184.89c.2-.73-.23-1.48-.95-1.67-.72-.2-1.46.24-1.66.97-.2.73.23 1.47.95 1.67.72.19 1.47-.24 1.66-.97z"/><path fill="#ef6a6a" d="M126.7 180.15c.2-.73-.23-1.47-.95-1.67-.72-.19-1.46.24-1.65.97-.2.73.23 1.48.95 1.67.72.2 1.46-.24 1.65-.97zM111.19 176c.2-.74-.23-1.48-.95-1.67-.72-.2-1.46.24-1.66.96-.2.73.23 1.48.95 1.67.72.2 1.46-.24 1.66-.97zM88.26 161.02c.2-.73-.23-1.48-.95-1.67-.72-.2-1.46.24-1.65.97-.2.73.23 1.48.95 1.67.72.2 1.46-.24 1.65-.97z"/><path fill="#ff0" d="M111.17 150.15c.2-.73-.23-1.47-.95-1.67-.72-.19-1.46.25-1.65.97-.2.73.23 1.48.95 1.67.72.2 1.46-.24 1.65-.97zM128.69 165.75c.2-.72-.23-1.47-.95-1.66-.72-.2-1.46.24-1.66.97-.2.72.23 1.47.95 1.66.72.2 1.47-.24 1.66-.97z"/><path fill="#ef6a6a" d="M139.85 173.75c.2-.72-.23-1.47-.95-1.66-.72-.2-1.46.24-1.66.97-.2.72.23 1.47.95 1.66.72.2 1.47-.24 1.66-.97z"/><path fill="#ff0" d="M143.83 158.9c.2-.73-.23-1.47-.95-1.67-.72-.19-1.46.25-1.66.97-.2.73.23 1.48.95 1.67.72.2 1.47-.24 1.66-.97zM112.3 160.36c.2-.73-.22-1.47-.94-1.66-.72-.2-1.47.24-1.66.97-.2.72.23 1.47.95 1.66.72.2 1.46-.24 1.66-.97z"/><path fill="#ef6a6a" d="M126.33 155.72c.2-.73-.23-1.48-.95-1.67-.72-.2-1.46.24-1.66.97-.19.73.23 1.47.95 1.67.72.2 1.47-.24 1.66-.97zM103.14 161.86c.2-.73-.23-1.47-.95-1.66-.72-.2-1.47.24-1.66.97-.2.72.23 1.47.95 1.66.72.2 1.46-.24 1.66-.97zM88.01 147.97c.2-.72-.23-1.47-.95-1.66-.72-.2-1.46.24-1.65.97-.2.72.23 1.47.95 1.66.72.2 1.46-.24 1.65-.97z"/><path fill="#ff0" d="M98.02 154.47c.2-.73-.23-1.47-.95-1.67-.72-.2-1.46.24-1.66.97-.2.73.23 1.48.95 1.67.72.2 1.46-.24 1.66-.97z"/></g></g><defs><clipPath id="clip0"><path fill="#fff" d="M0 0h45.2v125.75H0z" transform="rotate(-45 126.71 -86.596)"/></clipPath><clipPath id="clip1"><path fill="#fff" d="M0 0h64v176H0z" transform="rotate(-60 91.74 30.004)"/></clipPath><clipPath id="clip2"><path fill="#fff" d="M0 0h39.2v107.81H0z" transform="rotate(-75 137.003 42.488)"/></clipPath></defs></svg>