<svg xmlns="http://www.w3.org/2000/svg" width="162" height="222" fill="none"><g opacity=".7"><g clip-path="url(#clip0)"><path fill="#754c24" d="M30.58 162.52l-2.3-8.6-51.12 13.7 2.3 8.6 51.12-13.7z"/><path fill="#006837" d="M99.77 139.38l-95.92 25.7-5.45-20.36c4.9 2.76 13.89 4.35 23.35 5.25l-2.88-10.74c4.44 2.5 12.26 4.05 20.73 4.99l-2.63-9.84c6.57 3.7 20.5 5.3 33.03 5.97l-1.17-4.38c7.2 4.05 30.94 3.4 30.94 3.4z"/><path fill="#009245" d="M29.8 179.95l-2.88-10.74c-7.74 5.51-14.73 11.39-17.6 16.22l-5.45-20.36 95.9-25.7s-20.89 11.33-25.1 18.43l-1.16-4.38c-10.52 6.85-21.78 15.2-25.61 21.68l-2.64-9.83c-6.86 5.05-12.87 10.3-15.46 14.68z"/><path fill="#ff0" d="M73.28 158.08z"/><path fill="#ef6a6a" d="M46.5 175.37z"/><path fill="#ff0" d="M28.4 180.22z"/><path fill="#ef6a6a" d="M7.78 185.75z"/><path fill="#ff0" d="M-3.1 145.12z"/><path fill="#ef6a6a" d="M17.51 139.6zM35.6 134.75zM67.47 136.4z"/><path fill="#ff0" d="M50.6 160.52zM23.85 155.11z"/><path fill="#ef6a6a" d="M7.93 153.6z"/><path fill="#ff0" d="M12.52 170.73zM43.54 151z"/><path fill="#ef6a6a" d="M32.05 163.76zM51.94 144.18zM75.29 149.26z"/><path fill="#ff0" d="M61.4 148.59z"/></g><g clip-path="url(#clip1)"><path fill="#754c24" d="M37.89 118.63l-6.3-10.91-64.16 37.04 6.3 10.91 64.16-37.04z"/><path fill="#006837" d="M123 62.22 2.64 131.7l-14.92-25.85c7.64 2.02 20.42.96 33.56-1.2L13.4 91.04c6.93 1.83 18.1 1.12 29.91-.63l-7.2-12.48c10.26 2.68 29.72-.13 46.93-3.7l-3.2-5.56C91.08 71.6 123 62.22 123 62.22z"/><path fill="#009245" d="M43.27 142.7l-7.87-13.63c-8.43 10.3-15.74 20.84-17.82 28.47L2.66 131.7 123 62.22S98.91 85.16 95.85 96.37l-3.21-5.56c-11.7 13.12-23.87 28.57-26.66 38.78l-7.2-12.48c-7.43 9.36-13.62 18.68-15.5 25.6z"/><path fill="#ff0" d="M94.05 97.25c1.06-.61 1.41-1.97.8-3.04z"/><path fill="#ef6a6a" d="M64.19 130.47c1.05-.6 1.4-1.97.8-3.03z"/><path fill="#ff0" d="M41.48 143.58c1.05-.6 1.4-1.97.79-3.03z"/><path fill="#ef6a6a" d="M15.6 158.52c1.06-.61 1.41-1.97.8-3.03zM11.7 92.02c1.05-.6 1.4-1.96.79-3.03zM34.41 78.9c1.05-.6 1.4-1.96.79-3.03zM78.16 69.73c1.06-.6 1.41-1.96.8-3.03z"/><path fill="#ff0" d="M64.26 108.72c1.06-.61 1.41-1.97.8-3.03zM26.03 110.93c1.05-.61 1.41-1.97.8-3.03z"/><path fill="#ef6a6a" d="M3.91 114.58c1.06-.61 1.41-1.97.8-3.03z"/><path fill="#ff0" d="M16.46 136.31c1.06-.6 1.41-1.96.8-3.03zM51.16 98.24c1.05-.61 1.4-1.97.79-3.03z"/><path fill="#ef6a6a" d="M40.34 119.8c1.05-.6 1.4-1.97.8-3.03zM60.02 85.92c1.05-.6 1.4-1.96.8-3.03zM93.51 84.5c1.05-.6 1.41-1.96.8-3.03z"/><path fill="#ff0" d="M74.46 88.55c1.05-.61 1.4-1.97.79-3.04z"/></g><g clip-path="url(#clip2)"><path fill="#006837" d="M40.47 48.82l-60.2 60.2-12.93-12.92c4.85-.03 12.24-2.68 19.67-6.03l-6.82-6.82c4.4-.02 10.89-2.2 17.6-5.12l-6.24-6.24c6.5-.04 17.57-4.8 27.18-9.64l-2.78-2.78c7.12-.03 24.52-10.65 24.52-10.65z"/><path fill="#009245" d="M6.05 109.09l-6.82-6.82c-3.35 7.43-6 14.82-6.03 19.67L-19.72 109l60.19-60.19s-10.62 17.4-10.65 24.52l-2.78-2.78c-4.85 9.61-9.6 20.68-9.63 27.17l-6.24-6.24c-2.91 6.71-5.1 13.2-5.12 17.6z"/><path fill="#ff0" d="M28.9 74.14c.53.53 1.39.54 1.91.01.53-.53.52-1.39.0-1.92-.53.53-.52 1.39.01 1.92z"/><path fill="#ef6a6a" d="M16.49 98.53c.53.54 1.4.54 1.92.01.53-.52.52-1.38-.01-1.92-.53.52-.52 1.38.0 1.91z"/><path fill="#ff0" d="M5.13 109.9c.53.52 1.4.53 1.92.0.53-.53.52-1.38-.01-1.92-.53.52-.52 1.38.01 1.91z"/><path fill="#ef6a6a" d="M15.13 60.38c.53.53 1.39.53 1.92.0.52-.52.52-1.38-.01-1.91-.53.52-.52 1.38.0 1.92z"/><path fill="#ff0" d="M13.09 85.65c.53.53 1.39.54 1.91.01.53-.53.53-1.39.0-1.92-.52.52-.52 1.38.02 1.91zM3.67 81.53c.54.53 1.4.53 1.92.0-.52.53-.52 1.4.01 1.93z"/><path fill="#ef6a6a" d="M.68 96c.54.53 1.4.53 1.92.0-.52.53-.52 1.4.01 1.92zM6.96 72.83c.53.54 1.4.54 1.92.02.53-.53.52-1.4-.01-1.92-.53.52-.52 1.38.01 1.91zM26.55 66.68c.53.53 1.4.54 1.92.01.53-.53.52-1.38-.01-1.92-.53.52-.52 1.38.01 1.91z"/><path fill="#ff0" d="M15.92 72.1c.54.53 1.4.54 1.92.0-.52.54-.52 1.4.01 1.93z"/></g></g><defs><clipPath id="clip0"><path fill="#fff" d="M0 0h45.2v125.75H0z" transform="rotate(75 -29.61 119.94)"/></clipPath><clipPath id="clip1"><path fill="#fff" d="M0 0h64v176H0z" transform="rotate(60 23.654 109.857)"/></clipPath><clipPath id="clip2"><path fill="#fff" d="M0 0h39.2v107.81H0z" transform="rotate(45 -28.877 49.548)"/></clipPath></defs></svg>