<svg xmlns="http://www.w3.org/2000/svg" width="150" height="187" fill="none"><g opacity=".7"><g clip-path="url(#clip0)"><path fill="#754c24" d="M113.03 130.94l-8.6-2.3-13.7 51.12 8.6 2.3 13.7-51.12z"/><path fill="#006837" d="M127.58 59.45l-25.7 95.92-20.36-5.46c4.83-2.86 10.71-9.86 16.23-17.6L87 129.45c4.39-2.6 9.64-8.6 14.69-15.46l-9.84-2.64c6.49-3.85 14.84-15.11 21.69-25.63l-4.38-1.17c7.1-4.2 18.42-25.09 18.42-25.09z"/><path fill="#009245" d="M127.73 140.33l-10.74-2.88c.9 9.46 2.5 18.46 5.25 23.35l-20.36-5.45 25.7-95.9s-.64 23.75 3.41 30.94l-4.38-1.17c.67 12.52 2.27 26.46 5.97 33.01l-9.83-2.63c.94 8.47 2.48 16.3 4.98 20.73z"/><path fill="#ff0" d="M130.53 91.74z"/><path fill="#ef6a6a" d="M132.11 123.58z"/><path fill="#ff0" d="M127.27 141.68z"/><path fill="#ef6a6a" d="M121.74 162.3z"/><path fill="#ff0" d="M81.12 151.41z"/><path fill="#ef6a6a" d="M86.64 130.8zM91.49 112.7zM108.85 85.93z"/><path fill="#ff0" d="M121.31 112.6zM103.25 133.06z"/><path fill="#ef6a6a" d="M93.98 146.1z"/><path fill="#ff0" d="M111.1 150.69zM109.52 113.95z"/><path fill="#ef6a6a" d="M114.84 130.28zM107.82 103.27zM123.9 85.6z"/><path fill="#ff0" d="M116.37 97.28z"/></g><g clip-path="url(#clip1)"><path fill="#754c24" d="M78.67 102.67h-12.6v74.08h12.6v-74.08z"/><path fill="#006837" d="M72.37.75v138.98H42.53c5.56-5.61 11.03-17.2 15.74-29.66H42.53c5.05-5.1 10.02-15.11 14.41-26.22H42.53c7.45-7.56 14.75-25.82 20.26-42.5h-6.42c8.18-8.27 16-40.6 16-40.6z"/><path fill="#009245" d="M102.21 110.04H86.47c4.7 12.46 10.18 24.05 15.74 29.67H72.37V.75s7.83 32.33 16 40.6h-6.42c5.51 16.68 12.8 34.94 20.26 42.47h-14.4c4.38 11.11 9.36 21.13 14.4 26.22z"/><path fill="#ff0" d="M88.23 43.34c1.23.0 2.23-.99 2.23-2.2.0-1.22-1-2.2-2.23-2.2s-2.22.98-2.22 2.2c0 1.21 1 2.2 2.22 2.2z"/><path fill="#ef6a6a" d="M102.07 85.81c1.23.0 2.23-.98 2.23-2.2.0-1.22-1-2.2-2.23-2.2s-2.22.98-2.22 2.2c0 1.22 1 2.2 2.22 2.2z"/><path fill="#ff0" d="M102.07 112.04c1.23.0 2.23-1 2.23-2.2.0-1.22-1-2.21-2.23-2.21s-2.22.99-2.22 2.2c0 1.22 1 2.2 2.22 2.2z"/><path fill="#ef6a6a" d="M102.07 141.91c1.23.0 2.23-.98 2.23-2.2.0-1.22-1-2.2-2.23-2.2s-2.22.98-2.22 2.2c0 1.22 1 2.2 2.22 2.2z"/><path fill="#ff0" d="M42.53 141.91c1.23.0 2.23-.98 2.23-2.2.0-1.22-1-2.2-2.23-2.2s-2.23.98-2.23 2.2c0 1.22 1 2.2 2.23 2.2z"/><path fill="#ef6a6a" d="M42.53 112.04c1.23.0 2.23-1 2.23-2.2.0-1.22-1-2.21-2.23-2.21s-2.23.99-2.23 2.2c0 1.22 1 2.2 2.23 2.2zM42.53 85.81c1.23.0 2.23-.98 2.23-2.2.0-1.22-1-2.2-2.23-2.2s-2.23.98-2.23 2.2c0 1.22 1 2.2 2.23 2.2zM56.46 43.34c1.23.0 2.22-.99 2.22-2.2.0-1.22-1-2.2-2.22-2.2-1.24.0-2.23.98-2.23 2.2.0 1.21 1 2.2 2.23 2.2z"/><path fill="#ff0" d="M83.27 74.87c1.23.0 2.23-.99 2.23-2.2.0-1.22-1-2.2-2.23-2.2s-2.23.98-2.23 2.2c0 1.21 1 2.2 2.23 2.2zM66.07 109.08c1.23.0 2.23-.98 2.23-2.2.0-1.21-1-2.2-2.23-2.2s-2.23.99-2.23 2.2c0 1.22 1 2.2 2.23 2.2z"/><path fill="#ef6a6a" d="M58.17 130.06c1.23.0 2.23-.98 2.23-2.2.0-1.22-1-2.2-2.23-2.2s-2.23.98-2.23 2.2c0 1.22 1 2.2 2.23 2.2z"/><path fill="#ff0" d="M83.27 130.06c1.23.0 2.23-.98 2.23-2.2.0-1.22-1-2.2-2.23-2.2s-2.23.98-2.23 2.2c0 1.22 1 2.2 2.23 2.2zM67.65 80.97c1.23.0 2.23-.98 2.23-2.2.0-1.22-1-2.2-2.23-2.2s-2.23.98-2.23 2.2c0 1.22 1 2.2 2.23 2.2z"/><path fill="#ef6a6a" d="M80.9 101.13c1.23.0 2.23-.99 2.23-2.2.0-1.22-1-2.2-2.23-2.2s-2.23.98-2.23 2.2c0 1.21 1 2.2 2.23 2.2zM61.4 67.15c1.24.0 2.24-.99 2.24-2.2.0-1.22-1-2.2-2.23-2.2s-2.23.98-2.23 2.2c0 1.21 1 2.2 2.23 2.2zM76.92 37.43c1.23.0 2.23-.99 2.23-2.2.0-1.22-1-2.2-2.23-2.2s-2.23.98-2.23 2.2c0 1.21 1 2.2 2.23 2.2z"/><path fill="#ff0" d="M70.9 55.95c1.24.0 2.23-.99 2.23-2.2.0-1.22-1-2.2-2.22-2.2-1.24.0-2.23.98-2.23 2.2.0 1.21 1 2.2 2.23 2.2z"/></g><g clip-path="url(#clip2)"><path fill="#754c24" d="M39.4 124.83l-7.46 2 11.74 43.83 7.46-2-11.75-43.83z"/><path fill="#006837" d="M19.5 65.53l22.04 82.23-17.66 4.74c2.4-4.21 3.8-11.94 4.61-20.05l-9.31 2.5c2.18-3.82 3.53-10.54 4.37-17.8l-8.53 2.28c3.22-5.66 4.64-17.62 5.25-28.36l-3.8 1.01c3.53-6.18 3.04-26.55 3.04-26.55z"/><path fill="#009245" d="M54.49 125.46l-9.32 2.5c4.77 6.62 9.84 12.61 14.02 15.06l-17.65 4.73L19.5 65.53S29.26 83.42 35.4 87l-3.8 1.02c5.9 9 13.12 18.65 18.72 21.92l-8.52 2.28c4.36 5.88 8.89 11.02 12.68 13.23z"/><path fill="#ff0" d="M35.64 88.21c.73-.2 1.16-.94.97-1.66-.72.2-1.16.94-.96 1.66.19.72.93 1.15 1.66.95z"/><path fill="#ef6a6a" d="M50.57 111.15c.72-.2 1.16-.94.96-1.66-.73.2-1.17.94-.97 1.66.2.72.94 1.14 1.67.95z"/><path fill="#ff0" d="M54.72 126.67c.73-.2 1.17-.94.97-1.66-.72.2-1.16.94-.96 1.66.19.72.93 1.14 1.66.95z"/><path fill="#ef6a6a" d="M59.46 144.34c.73-.2 1.16-.94.97-1.65-.73.2-1.16.93-.97 1.65.2.72.94 1.15 1.67.95z"/><path fill="#ff0" d="M24.23 153.78c.73-.2 1.16-.93.97-1.65-.73.2-1.16.93-.97 1.65.2.72.94 1.15 1.67.95z"/><path fill="#ef6a6a" d="M19.5 136.1c.72-.19 1.15-.93.96-1.65-.72.2-1.16.94-.97 1.66.2.72.94 1.14 1.67.95zM15.33 120.59c.73-.2 1.17-.94.97-1.66-.73.2-1.17.94-.97 1.66.19.72.94 1.14 1.66.95zM16.84 93.25c.73-.2 1.16-.94.97-1.66-.73.2-1.16.94-.97 1.66.2.72.94 1.14 1.67.95z"/><path fill="#ff0" d="M37.7 107.66c.74-.2 1.17-.94.98-1.66-.73.2-1.16.94-.97 1.66.2.72.94 1.14 1.67.95zm-4.75 22.97c.73-.2 1.17-.94.97-1.66-.72.2-1.16.94-.96 1.66.19.72.94 1.14 1.66.95z"/><path fill="#ef6a6a" d="M31.6 144.3c.73-.2 1.17-.94.98-1.66-.73.2-1.16.93-.97 1.65.2.72.94 1.15 1.67.95z"/><path fill="#ff0" d="M46.46 140.31c.73-.2 1.16-.93.97-1.65-.73.2-1.16.93-.97 1.65.2.72.94 1.15 1.67.95zM29.43 113.74c.73-.2 1.16-.93.97-1.65-.73.2-1.16.93-.97 1.65.2.72.94 1.15 1.67.95z"/><path fill="#ef6a6a" d="M40.47 123.57c.72-.2 1.16-.94.96-1.66-.73.2-1.17.94-.97 1.66.19.72.94 1.14 1.67.95zM23.55 106.55c.72-.2 1.16-.93.96-1.65-.73.2-1.16.93-.97 1.65.2.72.94 1.15 1.67.95zM28.01 86.51c.73-.2 1.16-.94.97-1.66-.72.2-1.16.94-.97 1.66.2.72.94 1.14 1.67.95z"/><path fill="#ff0" d="M27.39 98.42c.73-.2 1.16-.94.97-1.66-.73.2-1.16.94-.97 1.66.2.72.94 1.15 1.67.95z"/></g></g><defs><clipPath id="clip0"><path fill="#fff" d="M0 0h45.2v125.75H0z" transform="rotate(15 -150.67 428.226)"/></clipPath><clipPath id="clip1"><path fill="#fff" d="M0 0h64v176H0z" transform="translate(40.301 .749)"/></clipPath><clipPath id="clip2"><path fill="#fff" d="M0 0h39.2v107.81H0z" transform="rotate(-15 268.44 33.294)"/></clipPath></defs></svg>