<svg width="218" height="236" viewBox="0 0 218 236" fill="none" xmlns="http://www.w3.org/2000/svg"><g opacity=".7"><g clip-path="url(#clip0)"><path d="M97.3616 66.6985 103.655 72.9914 141.081 35.565 134.788 29.2721 97.3616 66.6985z" fill="#754c24"/><path d="M49.0188 121.334 119.235 51.1185 134.139 66.0228C128.522 66.0824 119.934 69.2057 111.289 73.1471L119.152 81.01C114.058 81.0629 106.513 83.6397 98.7065 87.0611L105.904 94.2582C98.3653 94.351 85.4979 99.9318 74.3131 105.612L77.5191 108.818C69.2622 108.908 49.0188 121.334 49.0188 121.334z" fill="#006837"/><path d="M89.33 51.2145 97.1929 59.0774C101.134 50.4329 104.258 41.8447 104.317 36.2274L119.221 51.1317 49.0188 121.334C49.0188 121.334 61.4457 101.091 61.5351 92.834L64.7412 96.0401C70.4214 84.8553 76.0022 71.9879 76.0817 64.4628L83.2789 71.66C86.7002 63.8534 89.277 56.3085 89.33 51.2145z" fill="#009245"/><path d="M62.6114 91.8967C61.9968 91.2821 61.0003 91.2821 60.3857 91.8967 59.7711 92.5113 59.7711 93.5078 60.3857 94.1224 61.0003 94.737 61.9968 94.737 62.6114 94.1224 63.226 93.5078 63.226 92.5113 62.6114 91.8967z" fill="#ff0"/><path d="M77.158 63.5255C76.5434 62.9109 75.5469 62.9109 74.9323 63.5255 74.3177 64.1401 74.3177 65.1366 74.9323 65.7512 75.5469 66.3658 76.5434 66.3658 77.158 65.7512 77.7726 65.1366 77.7726 64.1401 77.158 63.5255z" fill="#ef6a6a"/><path d="M90.4063 50.2773C89.7917 49.6626 88.7952 49.6626 88.1806 50.2772 87.566 50.8919 87.566 51.8883 88.1806 52.503 88.7952 53.1176 89.7917 53.1176 90.4063 52.503 91.0209 51.8884 91.0209 50.8919 90.4063 50.2773z" fill="#ff0"/><path d="M105.5 35.1841C104.885 34.5695 103.888 34.5695 103.274 35.1841 102.659 35.7987 102.659 36.7952 103.274 37.4098 103.888 38.0245 104.885 38.0245 105.5 37.4098 106.114 36.7952 106.114 35.7987 105.5 35.1841z" fill="#ef6a6a"/><path d="M135.239 64.9232C134.624 64.3086 133.627 64.3086 133.013 64.9232 132.398 65.5378 132.398 66.5343 133.013 67.1489 133.627 67.7635 134.624 67.7635 135.239 67.1489 135.853 66.5343 135.853 65.5378 135.239 64.9232z" fill="#ff0"/><path d="M120.146 80.0163C119.531 79.4017 118.534 79.4017 117.92 80.0163 117.305 80.6309 117.305 81.6274 117.92 82.242 118.534 82.8566 119.531 82.8566 120.146 82.242 120.76 81.6274 120.76 80.6309 120.146 80.0163z" fill="#ef6a6a"/><path d="M106.897 93.2646C106.282 92.65 105.286 92.65 104.671 93.2646 104.057 93.8792 104.057 94.8757 104.671 95.4903 105.286 96.1049 106.282 96.1049 106.897 95.4903 107.512 94.8757 107.512 93.8792 106.897 93.2646z" fill="#ef6a6a"/><path d="M78.483 107.768C77.8684 107.154 76.8719 107.154 76.2573 107.768 75.6426 108.383 75.6426 109.379 76.2573 109.994 76.8719 110.609 77.8684 110.609 78.483 109.994 79.0976 109.379 79.0976 108.383 78.483 107.768z" fill="#ef6a6a"/><path d="M81.0198 78.4431C80.4052 77.8285 79.4087 77.8285 78.7941 78.4431 78.1795 79.0577 78.1795 80.0542 78.7941 80.6688 79.4087 81.2834 80.4052 81.2834 81.0198 80.6688 81.6344 80.0542 81.6344 79.0577 81.0198 78.4431z" fill="#ff0"/><path d="M106.897 69.7489C106.282 69.1343 105.286 69.1343 104.671 69.7489 104.057 70.3635 104.057 71.36 104.671 71.9746 105.286 72.5893 106.282 72.5893 106.897 71.9746 107.512 71.36 107.512 70.3635 106.897 69.7489z" fill="#ff0"/><path d="M121.44 63.095C120.826 62.4804 119.829 62.4804 119.215 63.095 118.6 63.7096 118.6 64.7061 119.215 65.3207 119.829 65.9353 120.826 65.9353 121.44 65.3207 122.055 64.7061 122.055 63.7096 121.44 63.095z" fill="#ef6a6a"/><path d="M108.904 50.5588C108.29 49.9442 107.293 49.9442 106.679 50.5588 106.064 51.1734 106.064 52.1699 106.679 52.7845 107.293 53.3991 108.29 53.3991 108.904 52.7845 109.519 52.1699 109.519 51.1734 108.904 50.5588z" fill="#ff0"/><path d="M91.9068 83.1628C91.2922 82.5482 90.2957 82.5482 89.6811 83.1628 89.0665 83.7774 89.0665 84.7739 89.6811 85.3885 90.2957 86.0031 91.2922 86.0031 91.9068 85.3885 92.5214 84.7739 92.5214 83.7774 91.9068 83.1628z" fill="#ff0"/><path d="M95.4705 66.364C94.8559 65.7493 93.8594 65.7493 93.2448 66.364 92.6302 66.9786 92.6302 67.975 93.2448 68.5897 93.8594 69.2043 94.8559 69.2043 95.4705 68.5897 96.0851 67.9751 96.0851 66.9786 95.4705 66.364z" fill="#ef6a6a"/><path d="M88.0381 93.2646C87.4235 92.65 86.4271 92.65 85.8124 93.2646 85.1978 93.8792 85.1978 94.8757 85.8124 95.4903 86.4271 96.1049 87.4235 96.1049 88.0381 95.4903 88.6528 94.8757 88.6528 93.8792 88.0381 93.2646z" fill="#ef6a6a"/><path d="M65.2777 100.531C64.663 99.9167 63.6666 99.9167 63.0519 100.531 62.4373 101.146 62.4373 102.142 63.0519 102.757 63.6666 103.372 64.663 103.372 65.2777 102.757 65.8923 102.142 65.8923 101.146 65.2777 100.531z" fill="#ef6a6a"/><path d="M77.6382 94.1787C77.0236 93.5641 76.0271 93.5641 75.4125 94.1787 74.7979 94.7934 74.7979 95.7898 75.4125 96.4044 76.0271 97.0191 77.0236 97.0191 77.6382 96.4044 78.2529 95.7898 78.2529 94.7933 77.6382 94.1787z" fill="#ff0"/></g><g clip-path="url(#clip1)"><path d="M112.983 108.362 123.895 114.662 160.936 50.505 150.024 44.2052 112.983 108.362z" fill="#754c24"/><path d="M67.4798 199.776 136.972 79.4107 162.816 94.3315C155.188 96.4153 144.655 103.718 134.349 112.151L147.983 120.023C141.066 121.911 131.75 128.099 122.392 135.528L134.871 142.733C124.64 145.547 109.194 157.711 96.0755 169.411L101.635 172.621C90.4234 175.686 67.4798 199.776 67.4798 199.776z" fill="#006837"/><path d="M96.2831 90.2038 109.917 98.0753C112.068 84.9337 113.125 72.1603 111.116 64.5127L136.959 79.4334 67.4797 199.776C67.4797 199.776 76.8699 167.861 73.919 156.619L79.4782 159.829C83.0515 142.618 85.8633 123.159 83.1712 112.914L95.6508 120.119C97.405 108.301 98.1065 97.1385 96.2831 90.2038z" fill="#009245"/><path d="M75.0361 154.963C73.9704 154.348 72.6133 154.703 72.005 155.756 71.3968 156.81 71.7676 158.163 72.8333 158.778 73.899 159.393 75.256 159.038 75.8643 157.985 76.4726 156.931 76.1018 155.578 75.0361 154.963z" fill="#ff0"/><path d="M84.2885 111.258C83.2228 110.643 81.8658 110.998 81.2575 112.051 80.6492 113.105 81.02 114.458 82.0857 115.073 83.1514 115.688 84.5085 115.333 85.1168 114.28 85.7251 113.226 85.3542 111.873 84.2885 111.258z" fill="#ef6a6a"/><path d="M97.4003 88.5475C96.3346 87.9322 94.9776 88.2875 94.3693 89.3411 93.761 90.3946 94.1318 91.7475 95.1975 92.3628 96.2633 92.9781 97.6203 92.6228 98.2286 91.5692 98.8369 90.5157 98.466 89.1628 97.4003 88.5475z" fill="#ff0"/><path d="M112.338 62.6747C111.272 62.0594 109.915 62.4147 109.307 63.4683 108.699 64.5219 109.069 65.8748 110.135 66.49 111.201 67.1053 112.558 66.75 113.166 65.6964 113.774 64.6429 113.404 63.29 112.338 62.6747z" fill="#ef6a6a"/><path d="M163.904 92.4465C162.839 91.8312 161.481 92.1865 160.873 93.2401 160.265 94.2937 160.636 95.6466 161.701 96.2619 162.767 96.8772 164.124 96.5218 164.733 95.4683 165.341 94.4147 164.97 93.0618 163.904 92.4465z" fill="#ff0"/><path d="M148.966 118.319C147.901 117.704 146.544 118.059 145.935 119.113 145.327 120.166 145.698 121.519 146.764 122.135 147.829 122.75 149.186 122.395 149.795 121.341 150.403 120.287 150.032 118.935 148.966 118.319z" fill="#ef6a6a"/><path d="M135.855 141.03C134.789 140.414 133.432 140.77 132.824 141.823 132.215 142.877 132.586 144.23 133.652 144.845 134.718 145.46 136.075 145.105 136.683 144.051 137.291 142.998 136.92 141.645 135.855 141.03z" fill="#ef6a6a"/><path d="M102.557 170.852C101.491 170.236 100.134 170.592 99.5255 171.645 98.9173 172.699 99.2881 174.052 100.354 174.667 101.42 175.282 102.777 174.927 103.385 173.873 103.993 172.82 103.622 171.467 102.557 170.852z" fill="#ef6a6a"/><path d="M95.0988 130.134C94.0331 129.518 92.6761 129.874 92.0678 130.927 91.4595 131.981 91.8303 133.334 92.896 133.949 93.9617 134.564 95.3188 134.209 95.9271 133.156 96.5354 132.102 96.1645 130.749 95.0988 130.134z" fill="#ff0"/><path d="M127.104 109.103C126.038 108.488 124.681 108.843 124.073 109.897 123.465 110.951 123.835 112.303 124.901 112.919 125.967 113.534 127.324 113.179 127.932 112.125 128.54 111.072 128.17 109.719 127.104 109.103z" fill="#ff0"/><path d="M144.433 94.8841C143.368 94.2689 142.011 94.6242 141.402 95.6777 140.794 96.7313 141.165 98.0842 142.231 98.6995 143.296 99.3148 144.653 98.9595 145.262 97.9059 145.87 96.8523 145.499 95.4994 144.433 94.8841z" fill="#ef6a6a"/><path d="M122.696 82.3342C121.63 81.7189 120.273 82.0742 119.665 83.1277 119.057 84.1813 119.427 85.5342 120.493 86.1495 121.559 86.7648 122.916 86.4095 123.524 85.3559 124.133 84.3023 123.762 82.9494 122.696 82.3342z" fill="#ff0"/><path d="M111.681 132.66C110.615 132.044 109.258 132.4 108.65 133.453 108.042 134.507 108.413 135.86 109.478 136.475 110.544 137.09 111.901 136.735 112.509 135.682 113.118 134.628 112.747 133.275 111.681 132.66z" fill="#ff0"/><path d="M110.283 108.582C109.217 107.967 107.86 108.322 107.252 109.376 106.644 110.429 107.015 111.782 108.08 112.397 109.146 113.013 110.503 112.657 111.111 111.604 111.72 110.55 111.349 109.197 110.283 108.582z" fill="#ef6a6a"/><path d="M110.172 147.754C109.106 147.139 107.749 147.494 107.141 148.547 106.533 149.601 106.904 150.954 107.969 151.569 109.035 152.184 110.392 151.829 111 150.776 111.609 149.722 111.238 148.369 110.172 147.754z" fill="#ef6a6a"/><path d="M81.8803 165.735C80.8146 165.12 79.4576 165.475 78.8493 166.529 78.241 167.582 78.6118 168.935 79.6775 169.55 80.7432 170.166 82.1003 169.81 82.7086 168.757 83.3169 167.703 82.946 166.35 81.8803 165.735z" fill="#ef6a6a"/><path d="M96.3493 152.703C95.2836 152.088 93.9266 152.443 93.3183 153.497 92.71 154.55 93.0808 155.903 94.1465 156.518 95.2122 157.134 96.5693 156.778 97.1776 155.725 97.7858 154.671 97.415 153.318 96.3493 152.703z" fill="#ff0"/></g><g clip-path="url(#clip2)"><path d="M158.083 108.806 165.538 110.804 177.283 66.9704 169.828 64.9728 158.083 108.806z" fill="#754c24"/><path d="M145.652 170.109 167.688 87.8727 185.344 92.6039C181.162 95.0461 176.087 101.037 171.326 107.661L180.641 110.157C176.848 112.371 172.317 117.509 167.957 123.388L176.484 125.673C170.876 128.96 163.665 138.606 157.758 147.609L161.556 148.627C155.409 152.218 145.652 170.109 145.652 170.109z" fill="#006837"/><path d="M145.323 100.71 154.638 103.206C153.827 95.0891 152.428 87.3636 150.026 83.1571L167.683 87.8883 145.652 170.109C145.652 170.109 146.149 149.737 142.62 143.553L146.418 144.57C145.804 133.821 144.383 121.861 141.166 116.226L149.692 118.511C148.856 111.24 147.502 104.524 145.323 100.71z" fill="#009245"/><path d="M143.019 142.396C142.291 142.2 141.544 142.626 141.351 143.346 141.158 144.065 141.592 144.807 142.32 145.002 143.048 145.197 143.795 144.772 143.988 144.052 144.181 143.332 143.747 142.591 143.019 142.396z" fill="#ff0"/><path d="M141.564 115.069C140.836 114.874 140.089 115.299 139.897 116.019 139.704 116.739 140.138 117.481 140.866 117.676 141.594 117.871 142.34 117.445 142.533 116.726 142.726 116.006 142.292 115.264 141.564 115.069z" fill="#ef6a6a"/><path d="M145.722 99.5527C144.994 99.3576 144.247 99.783 144.054 100.503 143.861 101.223 144.295 101.964 145.023 102.159 145.751 102.355 146.498 101.929 146.691 101.209 146.884 100.49 146.45 99.7478 145.722 99.5527z" fill="#ff0"/><path d="M150.458 81.8759C149.73 81.6808 148.983 82.1061 148.791 82.826 148.598 83.5458 149.032 84.2875 149.76 84.4826 150.488 84.6777 151.234 84.2523 151.427 83.5325 151.62 82.8127 151.186 82.071 150.458 81.8759z" fill="#ef6a6a"/><path d="M185.689 91.316C184.961 91.1209 184.215 91.5463 184.022 92.2662 183.829 92.986 184.263 93.7277 184.991 93.9228 185.719 94.1179 186.466 93.6925 186.659 92.9727 186.851 92.2528 186.418 91.5111 185.689 91.316z" fill="#ff0"/><path d="M180.953 108.993C180.225 108.798 179.478 109.223 179.285 109.943 179.092 110.663 179.526 111.405 180.254 111.6 180.982 111.795 181.729 111.369 181.922 110.65 182.115 109.93 181.681 109.188 180.953 108.993z" fill="#ef6a6a"/><path d="M176.795 124.509C176.067 124.314 175.321 124.739 175.128 125.459 174.935 126.179 175.369 126.921 176.097 127.116 176.825 127.311 177.572 126.886 177.765 126.166 177.957 125.446 177.523 124.704 176.795 124.509z" fill="#ef6a6a"/><path d="M161.821 147.434C161.093 147.239 160.347 147.664 160.154 148.384 159.961 149.104 160.395 149.845 161.123 150.04 161.851 150.235 162.598 149.81 162.79 149.09 162.983 148.37 162.549 147.629 161.821 147.434z" fill="#ef6a6a"/><path d="M150.953 124.524C150.225 124.329 149.478 124.754 149.285 125.474 149.093 126.194 149.526 126.935 150.255 127.13 150.983 127.326 151.729 126.9 151.922 126.18 152.115 125.46 151.681 124.719 150.953 124.524z" fill="#ff0"/><path d="M166.556 107.006C165.828 106.811 165.081 107.236 164.888 107.956 164.695 108.676 165.129 109.418 165.857 109.613 166.586 109.808 167.332 109.383 167.525 108.663 167.718 107.943 167.284 107.201 166.556 107.006z" fill="#ff0"/><path d="M174.555 95.8453C173.827 95.6502 173.08 96.0756 172.888 96.7954 172.695 97.5153 173.129 98.257 173.857 98.4521 174.585 98.6472 175.331 98.2218 175.524 97.502 175.717 96.7821 175.283 96.0404 174.555 95.8453z" fill="#ef6a6a"/><path d="M159.704 91.8659C158.976 91.6708 158.229 92.0962 158.036 92.816 157.843 93.5358 158.277 94.2775 159.005 94.4726 159.733 94.6677 160.48 94.2424 160.673 93.5225 160.866 92.8027 160.432 92.061 159.704 91.8659z" fill="#ff0"/><path d="M161.165 123.389C160.437 123.194 159.691 123.62 159.498 124.339 159.305 125.059 159.739 125.801 160.467 125.996 161.195 126.191 161.942 125.766 162.134 125.046 162.327 124.326 161.893 123.584 161.165 123.389z" fill="#ff0"/><path d="M156.521 109.364C155.793 109.169 155.046 109.595 154.853 110.315 154.66 111.034 155.094 111.776 155.822 111.971 156.55 112.166 157.297 111.741 157.49 111.021 157.683 110.301 157.249 109.56 156.521 109.364z" fill="#ef6a6a"/><path d="M162.665 132.56C161.937 132.364 161.191 132.79 160.998 133.51 160.805 134.23 161.239 134.971 161.967 135.166 162.695 135.361 163.442 134.936 163.634 134.216 163.827 133.496 163.393 132.755 162.665 132.56z" fill="#ef6a6a"/><path d="M148.776 147.684C148.048 147.489 147.301 147.914 147.108 148.634 146.916 149.354 147.349 150.096 148.078 150.291 148.806 150.486 149.552 150.061 149.745 149.341 149.938 148.621 149.504 147.879 148.776 147.684z" fill="#ef6a6a"/><path d="M155.271 137.679C154.543 137.484 153.796 137.91 153.604 138.63 153.411 139.349 153.845 140.091 154.573 140.286 155.301 140.481 156.047 140.056 156.24 139.336 156.433 138.616 155.999 137.875 155.271 137.679z" fill="#ff0"/></g></g><defs><clipPath id="clip0"><path d="M0 0h45.2051v125.746H0z" fill="#fff" transform="translate(65.0359 137.352) rotate(-135)"/></clipPath><clipPath id="clip1"><path d="M0 0h64v176H0z" fill="#fff" transform="translate(95.2529 215.81) rotate(-150)"/></clipPath><clipPath id="clip2"><path d="M0 0h39.2039v107.811H0z" fill="#fff" transform="translate(164.628 175.193) rotate(-165)"/></clipPath></defs></svg>