<svg width="1117" height="3356" viewBox="0 0 1117 3356" fill="none" xmlns="http://www.w3.org/2000/svg"><path d="M82.4234 3C313.939 35.9962 823.532 143.884 1009.78 311.464 1196.03 479.045 449.885 571.6 53.5303 596.931 205.219 720.416 608.834 958.289 1009.78 921.893 1410.73 885.497 558.604 1105.7 82.4234 1220.36 321.532 1335.18 827.977 1555.72 940.882 1519.32 1082.01 1473.83 342.461 1827.79 82.4234 1782.29-177.615 1736.8 861.426 2191.74 984.222 2116.75 1107.02 2041.76 288.009 2571.2 39.0839 2369.72-209.841 2168.25 904.766 2879.66 1070.9 2730.18 1237.04 2580.7 306.345 3093.14 118.54 3002.65-69.2653 2912.16 973.109 3428.1 1070.9 3343.61" stroke="#d73233" stroke-width="5" stroke-dasharray="5 5"/></svg>