<svg width="284" height="90" viewBox="0 0 284 90" fill="none" xmlns="http://www.w3.org/2000/svg"><circle cx="18" cy="21" r="18" fill="#fff"/><circle cx="36" cy="26" r="13" fill="#fff"/><circle cx="54" cy="16" r="13" fill="#fff"/><circle cx="70" cy="19" r="6" fill="#fff"/><circle cx="84.5" cy="28.5" r="12.5" fill="#fff"/><circle cx="100.5" cy="25.5" r="15.5" fill="#fff"/><circle cx="117.5" cy="25.5" r="9.5" fill="#fff"/><circle cx="139.5" cy="19.5" r="19.5" fill="#fff"/><circle cx="161.5" cy="15.5" r="9.5" fill="#fff"/><circle cx="180.5" cy="26.5" r="16.5" fill="#fff"/><circle cx="199.5" cy="29.5" r="13.5" fill="#fff"/><circle cx="222.5" cy="26.5" r="16.5" fill="#fff"/><circle cx="234.5" cy="34.5" r="16.5" fill="#fff"/><circle cx="260.5" cy="21.5" r="17.5" fill="#fff"/><circle cx="265.5" cy="32.5" r="13.5" fill="#fff"/><circle cx="273.5" cy="50.5" r="10.5" fill="#fff"/><circle cx="270.5" cy="65.5" r="10.5" fill="#fff"/><circle cx="252.5" cy="65.5" r="16.5" fill="#fff"/><circle cx="231.5" cy="66.5" r="11.5" fill="#fff"/><circle cx="218.5" cy="70.5" r="7.5" fill="#fff"/><circle cx="199.5" cy="62.5" r="15.5" fill="#fff"/><circle cx="179" cy="71" r="11" fill="#fff"/><circle cx="163" cy="71" r="19" fill="#fff"/><circle cx="137" cy="68" r="8" fill="#fff"/><circle cx="116" cy="68" r="17" fill="#fff"/><circle cx="92" cy="60" r="17" fill="#fff"/><circle cx="67" cy="65" r="17" fill="#fff"/><circle cx="46" cy="68" r="8" fill="#fff"/><circle cx="28.5" cy="68.5" r="14.5" fill="#fff"/><circle cx="18" cy="47" r="10" fill="#fff"/></svg>