<svg width="107" height="107" viewBox="0 0 107 107" fill="none" xmlns="http://www.w3.org/2000/svg"><g opacity=".06"><circle cx="6.46703" cy="6.46703" r="6.46703" fill="#f22a2a"/><circle cx="6.46703" cy="25.2802" r="6.46703" fill="#f22a2a"/><circle cx="6.46703" cy="44.0934" r="6.46703" fill="#f22a2a"/><circle cx="6.46703" cy="62.9066" r="6.46703" fill="#f22a2a"/><circle cx="6.46703" cy="81.7198" r="6.46703" fill="#f22a2a"/><circle cx="6.46703" cy="100.533" r="6.46703" fill="#f22a2a"/><circle cx="44.0935" cy="6.46703" r="6.46703" fill="#f22a2a"/><circle cx="44.0935" cy="25.2802" r="6.46703" fill="#f22a2a"/><circle cx="44.0935" cy="44.0934" r="6.46703" fill="#f22a2a"/><circle cx="44.0935" cy="62.9066" r="6.46703" fill="#f22a2a"/><circle cx="44.0935" cy="81.7198" r="6.46703" fill="#f22a2a"/><circle cx="44.0935" cy="100.533" r="6.46703" fill="#f22a2a"/><circle cx="81.72" cy="6.46703" r="6.46703" fill="#f22a2a"/><circle cx="81.72" cy="25.2802" r="6.46703" fill="#f22a2a"/><circle cx="81.72" cy="44.0934" r="6.46703" fill="#f22a2a"/><circle cx="81.72" cy="62.9066" r="6.46703" fill="#f22a2a"/><circle cx="81.72" cy="81.7198" r="6.46703" fill="#f22a2a"/><circle cx="81.72" cy="100.533" r="6.46703" fill="#f22a2a"/><circle cx="25.28" cy="6.46703" r="6.46703" fill="#f22a2a"/><circle cx="25.28" cy="25.2802" r="6.46703" fill="#f22a2a"/><circle cx="25.28" cy="44.0934" r="6.46703" fill="#f22a2a"/><circle cx="25.28" cy="62.9066" r="6.46703" fill="#f22a2a"/><circle cx="25.28" cy="81.7198" r="6.46703" fill="#f22a2a"/><circle cx="25.28" cy="100.533" r="6.46703" fill="#f22a2a"/><circle cx="62.9065" cy="6.46703" r="6.46703" fill="#f22a2a"/><circle cx="62.9065" cy="25.2802" r="6.46703" fill="#f22a2a"/><circle cx="62.9065" cy="44.0934" r="6.46703" fill="#f22a2a"/><circle cx="62.9065" cy="62.9066" r="6.46703" fill="#f22a2a"/><circle cx="62.9065" cy="81.7198" r="6.46703" fill="#f22a2a"/><circle cx="62.9065" cy="100.533" r="6.46703" fill="#f22a2a"/><circle cx="100.533" cy="6.46703" r="6.46703" fill="#f22a2a"/><circle cx="100.533" cy="25.2802" r="6.46703" fill="#f22a2a"/><circle cx="100.533" cy="44.0934" r="6.46703" fill="#f22a2a"/><circle cx="100.533" cy="62.9066" r="6.46703" fill="#f22a2a"/><circle cx="100.533" cy="81.7198" r="6.46703" fill="#f22a2a"/><circle cx="100.533" cy="100.533" r="6.46703" fill="#f22a2a"/></g></svg>