<svg width="68" height="65" viewBox="0 0 68 65" fill="none" xmlns="http://www.w3.org/2000/svg"><path d="M3 32.5 51.75 4.35417V60.6458L3 32.5z" fill="#f63737"/><circle cx="2.16348" cy="32.1636" r="1.94442" transform="rotate(6.8886 2.16348 32.1636)" fill="#fff"/><circle cx="5.91227" cy="29.0173" r="4.52529" transform="rotate(6.8886 5.91227 29.0173)" fill="#fff"/><circle cx="11.0357" cy="26.0356" r="3.6268" transform="rotate(6.8886 11.0357 26.0356)" fill="#fff"/><circle cx="14.8869" cy="23.8832" r="4.69703" transform="rotate(6.8886 14.8869 23.8832)" fill="#fff"/><circle cx="19.218" cy="21.3848" r="3.5" transform="rotate(6.8886 19.218 21.3848)" fill="#fff"/><circle cx="23.5826" cy="19.5828" r="2.32114" transform="rotate(6.8886 23.5826 19.5828)" fill="#fff"/><circle cx="26.8943" cy="16.8945" r="3.5" transform="rotate(6.8886 26.8943 16.8945)" fill="#fff"/><circle cx="31.8292" cy="14.8292" r="2.54263" transform="rotate(6.8886 31.8292 14.8292)" fill="#fff"/><circle cx="37.0599" cy="10.9802" r="4.54726" transform="rotate(6.8886 37.0599 10.9802)" fill="#fff"/><circle cx="40.8728" cy="8.89159" r="3.5" transform="rotate(6.8886 40.8728 8.89159)" fill="#fff"/><circle cx="45.2034" cy="6.39306" r="3.5" transform="rotate(6.8886 45.2034 6.39306)" fill="#fff"/><circle cx="49.5344" cy="3.89452" r="3.5" transform="rotate(6.8886 49.5344 3.89452)" fill="#fff"/><circle cx="51.8943" cy="4.89452" r="3.5" transform="rotate(6.8886 51.8943 4.89452)" fill="#fff"/><circle cx="52.6318" cy="8.63175" r="2.36515" transform="rotate(6.8886 52.6318 8.63175)" fill="#fff"/></svg>