<svg width="100" height="13" viewBox="0 0 100 13" fill="none" xmlns="http://www.w3.org/2000/svg"><path d="M93.3563.417485 91.8916 3.52061 88.6146 4.01983C88.0269 4.10889 87.7914 4.86592 88.2176 5.29952L90.5884 7.71358 90.0277 11.1237C89.9267 11.7401 90.548 12.2019 91.0684 11.9136L94 10.3034 96.9316 11.9136C97.452 12.1995 98.0733 11.7401 97.9723 11.1237L97.4116 7.71358 99.7824 5.29952C100.209 4.86592 99.9731 4.10889 99.3854 4.01983L96.1084 3.52061 94.6437.417485C94.3813-.13564 93.6209-.142672 93.3563.417485z" fill="#fff"/><path d="M71.3563.417485 69.8916 3.52061 66.6146 4.01983C66.0269 4.10889 65.7914 4.86592 66.2176 5.29952L68.5884 7.71358 68.0277 11.1237C67.9267 11.7401 68.548 12.2019 69.0684 11.9136L72 10.3034 74.9316 11.9136C75.452 12.1995 76.0733 11.7401 75.9723 11.1237L75.4116 7.71358 77.7824 5.29952C78.2086 4.86592 77.9731 4.10889 77.3854 4.01983L74.1084 3.52061 72.6437.417485C72.3813-.13564 71.6209-.142672 71.3563.417485z" fill="#fff"/><path d="M49.3563.417485 47.8916 3.52061 44.6146 4.01983C44.0269 4.10889 43.7914 4.86592 44.2176 5.29952L46.5884 7.71358 46.0277 11.1237C45.9267 11.7401 46.548 12.2019 47.0684 11.9136L50 10.3034 52.9316 11.9136C53.452 12.1995 54.0733 11.7401 53.9723 11.1237L53.4116 7.71358 55.7824 5.29952C56.2086 4.86592 55.9731 4.10889 55.3854 4.01983L52.1084 3.52061 50.6437.417485C50.3813-.13564 49.6209-.142672 49.3563.417485z" fill="#fff"/><path d="M27.3563.417485 25.8916 3.52061 22.6146 4.01983C22.0269 4.10889 21.7914 4.86592 22.2176 5.29952L24.5884 7.71358 24.0277 11.1237C23.9267 11.7401 24.548 12.2019 25.0684 11.9136L28 10.3034 30.9316 11.9136C31.452 12.1995 32.0733 11.7401 31.9723 11.1237L31.4116 7.71358 33.7824 5.29952C34.2086 4.86592 33.9731 4.10889 33.3854 4.01983L30.1084 3.52061 28.6437.417485C28.3813-.13564 27.6209-.142672 27.3563.417485z" fill="#fff"/><path d="M4.23011 3.97481 3.96689 4.01491.68989 4.51413.689511 4.51418C.610822 4.52611.5438 4.58088.513402 4.67877.482816 4.77725.504026 4.87766.574174 4.94903L.574313 4.94917 2.94515 7.36323 3.12297 7.54429 3.08179 7.79471 2.5211 11.2045C2.50224 11.3197 2.54861 11.4079 2.61583 11.4585 2.68227 11.5085 2.75581 11.5152 2.82612 11.4762L2.82771 11.4753 5.7593 9.86517 6 9.73297 6.24071 9.86517 9.17229 11.4753 9.17237 11.4754C9.24333 11.5144 9.31786 11.5075 9.38454 11.4573 9.45151 11.407 9.49763 11.3196 9.47896 11.2049L4.23011 3.97481zm0 0L4.34376 3.73403 5.80834.631089C5.85437.533661 5.92904.499761 5.99913.500001 6.07075.500247 6.14663.536375 6.19189.631577 6.19193.631654 6.19197.631732 6.192.63181L7.65624 3.73403 7.76989 3.97481 8.03311 4.01491 11.3101 4.51413 11.3105 4.51418C11.3892 4.52611 11.4562 4.58088 11.4866 4.67877 11.5172 4.77725 11.496 4.87766 11.4258 4.94903L11.4257 4.94917 9.05485 7.36323 8.87703 7.54429 8.91821 7.79471 9.4789 11.2045 4.23011 3.97481z" stroke="#fff"/></svg>