<svg width="68" height="65" viewBox="0 0 68 65" fill="none" xmlns="http://www.w3.org/2000/svg"><path d="M65 32.5 16.25 4.35417V60.6458L65 32.5z" fill="#f63737"/><circle r="1.94442" transform="matrix(-0.992781 0.119939 0.119939 0.992781 65.8365 32.1636)" fill="#fff"/><circle r="4.52529" transform="matrix(-0.992781 0.119939 0.119939 0.992781 62.0877 29.0173)" fill="#fff"/><circle r="3.6268" transform="matrix(-0.992781 0.119939 0.119939 0.992781 56.9643 26.0356)" fill="#fff"/><circle r="4.69703" transform="matrix(-0.992781 0.119939 0.119939 0.992781 53.1131 23.8832)" fill="#fff"/><circle r="3.5" transform="matrix(-0.992781 0.119939 0.119939 0.992781 48.782 21.3848)" fill="#fff"/><circle r="2.32114" transform="matrix(-0.992781 0.119939 0.119939 0.992781 44.4174 19.5828)" fill="#fff"/><circle r="3.5" transform="matrix(-0.992781 0.119939 0.119939 0.992781 41.1057 16.8945)" fill="#fff"/><circle r="2.54263" transform="matrix(-0.992781 0.119939 0.119939 0.992781 36.1708 14.8292)" fill="#fff"/><circle r="4.54726" transform="matrix(-0.992781 0.119939 0.119939 0.992781 30.9401 10.9802)" fill="#fff"/><circle r="3.5" transform="matrix(-0.992781 0.119939 0.119939 0.992781 27.1272 8.89159)" fill="#fff"/><circle r="3.5" transform="matrix(-0.992781 0.119939 0.119939 0.992781 22.7966 6.39306)" fill="#fff"/><circle r="3.5" transform="matrix(-0.992781 0.119939 0.119939 0.992781 18.4656 3.89452)" fill="#fff"/><circle r="3.5" transform="matrix(-0.992781 0.119939 0.119939 0.992781 16.1057 4.89452)" fill="#fff"/><circle r="2.36515" transform="matrix(-0.992781 0.119939 0.119939 0.992781 15.3682 8.63175)" fill="#fff"/></svg>