<svg width="159" height="186" viewBox="0 0 159 186" fill="none" xmlns="http://www.w3.org/2000/svg"><g opacity=".7"><g clip-path="url(#clip0)"><path d="M70.5813 109.683 69.0269 103.882 34.5235 113.127 36.078 118.928 70.5813 109.683z" fill="#754c24"/><path d="M117.272 94.0635 52.5403 111.408 48.8587 97.6681C52.1618 99.5288 58.2352 100.601 64.6176 101.215L62.6753 93.966C65.6704 95.6539 70.9496 96.6938 76.6667 97.3284L74.8888 90.6933C79.3259 93.1828 88.7296 94.263 97.1834 94.7174L96.3915 91.7617C101.248 94.4956 117.272 94.0635 117.272 94.0635z" fill="#006837"/><path d="M70.0508 121.443 68.1085 114.194C62.8879 117.917 58.1645 121.882 56.2342 125.145L52.5525 111.405 117.272 94.0635C117.272 94.0635 103.178 101.702 100.34 106.497L99.5478 103.542C92.4538 108.162 84.8501 113.799 82.2644 118.171L80.4865 111.536C75.8526 114.944 71.8007 118.484 70.0508 121.443z" fill="#009245"/><path d="M99.3944 106.682C99.5462 107.249 100.129 107.585 100.695 107.433 101.262 107.281 101.598 106.699 101.446 106.132 101.294 105.566 100.712 105.23 100.145 105.381 99.5788 105.533 99.2426 106.116 99.3944 106.682z" fill="#ff0"/><path d="M81.319 118.355C81.4708 118.922 82.0532 119.258 82.6198 119.106 83.1864 118.954 83.5227 118.372 83.3708 117.805 83.219 117.239 82.6366 116.902 82.07 117.054 81.5034 117.206 81.1671 117.788 81.319 118.355z" fill="#ef6a6a"/><path d="M69.1054 121.628C69.2572 122.195 69.8396 122.531 70.4062 122.379 70.9728 122.227 71.309 121.645 71.1572 121.078 71.0054 120.512 70.423 120.175 69.8564 120.327 69.2898 120.479 68.9535 121.061 69.1054 121.628z" fill="#ff0"/><path d="M55.191 125.356C55.3429 125.923 55.9253 126.259 56.4919 126.107 57.0585 125.955 57.3947 125.373 57.2429 124.806 57.0911 124.24 56.5087 123.903 55.9421 124.055 55.3755 124.207 55.0392 124.789 55.191 125.356z" fill="#ef6a6a"/><path d="M47.8448 97.94C47.9967 98.5066 48.5791 98.8429 49.1457 98.691 49.7123 98.5392 50.0485 97.9568 49.8967 97.3902 49.7449 96.8236 49.1625 96.4873 48.5959 96.6392 48.0293 96.791 47.693 97.3734 47.8448 97.94z" fill="#ff0"/><path d="M61.7592 94.2115C61.911 94.7781 62.4934 95.1143 63.06 94.9625 63.6266 94.8107 63.9629 94.2283 63.811 93.6617 63.6592 93.0951 63.0768 92.7588 62.5102 92.9106 61.9436 93.0625 61.6073 93.6449 61.7592 94.2115z" fill="#ef6a6a"/><path d="M73.9728 90.939C74.1246 91.5056 74.707 91.8419 75.2736 91.6901 75.8402 91.5382 76.1765 90.9558 76.0247 90.3892 75.8728 89.8226 75.2904 89.4864 74.7238 89.6382 74.1572 89.79 73.821 90.3724 73.9728 90.939z" fill="#ef6a6a"/><path d="M95.4738 92.0503C95.6256 92.617 96.208 92.9532 96.7746 92.8014 97.3412 92.6496 97.6775 92.0672 97.5256 91.5005 97.3738 90.9339 96.7914 90.5977 96.2248 90.7495 95.6582 90.9013 95.3219 91.4837 95.4738 92.0503z" fill="#ef6a6a"/><path d="M84.0956 108.334C84.2474 108.9 84.8298 109.236 85.3964 109.085 85.963 108.933 86.2993 108.35 86.1475 107.784 85.9956 107.217 85.4132 106.881 84.8466 107.033 84.28 107.185 83.9438 107.767 84.0956 108.334z" fill="#ff0"/><path d="M66.0377 104.683C66.1895 105.249 66.7719 105.586 67.3386 105.434 67.9052 105.282 68.2414 104.699 68.0896 104.133 67.9378 103.566 67.3554 103.23 66.7888 103.382 66.2221 103.534 65.8859 104.116 66.0377 104.683z" fill="#ff0"/><path d="M55.2924 103.665C55.4442 104.231 56.0266 104.567 56.5932 104.416 57.1598 104.264 57.4961 103.681 57.3442 103.115 57.1924 102.548 56.61 102.212 56.0434 102.364 55.4768 102.516 55.1405 103.098 55.2924 103.665z" fill="#ef6a6a"/><path d="M58.389 115.222C58.5409 115.788 59.1233 116.125 59.6899 115.973 60.2565 115.821 60.5927 115.239 60.4409 114.672 60.2891 114.105 59.7067 113.769 59.1401 113.921 58.5735 114.073 58.2372 114.655 58.389 115.222z" fill="#ff0"/><path d="M79.3253 101.901C79.4771 102.468 80.0595 102.804 80.6262 102.652 81.1928 102.501 81.529 101.918 81.3772 101.352 81.2254 100.785 80.643 100.449 80.0764 100.601 79.5097 100.752 79.1735 101.335 79.3253 101.901z" fill="#ff0"/><path d="M71.5739 110.517C71.7257 111.084 72.3081 111.42 72.8747 111.268 73.4413 111.116 73.7776 110.534 73.6257 109.967 73.4739 109.401 72.8915 109.064 72.3249 109.216 71.7583 109.368 71.422 109.951 71.5739 110.517z" fill="#ef6a6a"/><path d="M84.9952 97.3028C85.1471 97.8694 85.7295 98.2057 86.2961 98.0538 86.8627 97.902 87.1989 97.3196 87.0471 96.753 86.8953 96.1864 86.3129 95.8501 85.7463 96.002 85.1797 96.1538 84.8434 96.7362 84.9952 97.3028z" fill="#ef6a6a"/><path d="M100.75 100.736C100.902 101.303 101.484 101.639 102.051 101.487 102.617 101.335 102.954 100.753 102.802 100.186 102.65 99.6195 102.068 99.2832 101.501 99.4351 100.934 99.5869 100.598 100.169 100.75 100.736z" fill="#ef6a6a"/><path d="M91.382 100.277C91.5338 100.844 92.1162 101.18 92.6828 101.028 93.2494 100.877 93.5857 100.294 93.4338 99.7276 93.282 99.161 92.6996 98.8247 92.133 98.9766 91.5664 99.1284 91.2301 99.7108 91.382 100.277z" fill="#ff0"/></g><g clip-path="url(#clip1)"><path d="M75.5104 80.0613 71.2588 72.6973 27.9609 97.6953 32.2126 105.059 75.5104 80.0613z" fill="#754c24"/><path d="M132.952 41.988 51.7204 88.887 41.6507 71.4458C46.8119 72.8018 55.4324 72.0881 64.3013 70.6367L58.989 61.4356C63.6691 62.6662 71.2022 62.1928 79.1782 61.0088L74.3157 52.5867C81.2449 54.3946 94.3776 52.497 105.993 50.0855L103.826 46.3337C111.413 48.3252 132.952 41.988 132.952 41.988z" fill="#006837"/><path d="M79.1436 96.3088 73.8313 87.1076C68.1399 94.0627 63.2116 101.171 61.8053 106.319L51.7356 88.8779 132.952 41.9878C132.952 41.9878 116.694 57.4719 114.626 65.0382L112.459 61.2864C104.564 70.1395 96.3538 80.5639 94.4702 87.4599L89.6077 79.0378C84.5944 85.3533 80.4179 91.6404 79.1436 96.3088z" fill="#009245"/><path d="M113.414 65.6297C113.829 66.3489 114.742 66.5992 115.453 66.1887 116.164 65.7782 116.404 64.8623 115.988 64.1431 115.573 63.4239 114.66 63.1736 113.949 63.5841 113.238 63.9946 112.998 64.9105 113.414 65.6297z" fill="#ff0"/><path d="M93.2585 88.0511C93.6738 88.7703 94.5868 89.0206 95.2978 88.6101 96.0089 88.1995 96.2487 87.2837 95.8334 86.5645 95.4182 85.8453 94.5051 85.595 93.7941 86.0055 93.0831 86.416 92.8433 87.3319 93.2585 88.0511z" fill="#ef6a6a"/><path d="M77.9319 96.9002C78.3471 97.6194 79.2602 97.8697 79.9712 97.4592 80.6822 97.0487 80.922 96.1328 80.5068 95.4136 80.0915 94.6944 79.1785 94.4441 78.4674 94.8546 77.7564 95.2651 77.5166 96.181 77.9319 96.9002z" fill="#ff0"/><path d="M60.4709 106.981C60.8862 107.7 61.7992 107.951 62.5102 107.54 63.2213 107.13 63.4611 106.214 63.0458 105.495 62.6306 104.775 61.7175 104.525 61.0065 104.936 60.2955 105.346 60.0557 106.262 60.4709 106.981z" fill="#ef6a6a"/><path d="M40.3786 72.1805C40.7939 72.8997 41.7069 73.15 42.4179 72.7395 43.129 72.3289 43.3688 71.4131 42.9535 70.6939 42.5383 69.9746 41.6252 69.7244 40.9142 70.1349 40.2032 70.5454 39.9634 71.4613 40.3786 72.1805z" fill="#ff0"/><path d="M57.8393 62.0994C58.2546 62.8186 59.1676 63.0689 59.8787 62.6584 60.5897 62.2479 60.8295 61.332 60.4142 60.6128 59.999 59.8936 59.0859 59.6433 58.3749 60.0538 57.6639 60.4644 57.4241 61.3802 57.8393 62.0994z" fill="#ef6a6a"/><path d="M73.1662 53.2503C73.5815 53.9695 74.4945 54.2198 75.2056 53.8093 75.9166 53.3988 76.1564 52.4829 75.7411 51.7637 75.3259 51.0445 74.4129 50.7942 73.7018 51.2047 72.9908 51.6152 72.751 52.5311 73.1662 53.2503z" fill="#ef6a6a"/><path d="M102.691 47.0565C103.106 47.7757 104.019 48.0259 104.73 47.6154 105.441 47.2049 105.681 46.2891 105.266 45.5698 104.85 44.8506 103.937 44.6004 103.226 45.0109 102.515 45.4214 102.275 46.3372 102.691 47.0565z" fill="#ef6a6a"/><path d="M93.3096 73.3714C93.7248 74.0906 94.6378 74.3409 95.3489 73.9304 96.0599 73.5199 96.2997 72.604 95.8844 71.8848 95.4692 71.1656 94.5562 70.9153 93.8451 71.3258 93.1341 71.7363 92.8943 72.6522 93.3096 73.3714z" fill="#ff0"/><path d="M67.5075 74.8626C67.9228 75.5818 68.8358 75.8321 69.5469 75.4216 70.2579 75.0111 70.4977 74.0952 70.0824 73.376 69.6672 72.6568 68.7542 72.4065 68.0431 72.817 67.3321 73.2276 67.0923 74.1434 67.5075 74.8626z" fill="#ff0"/><path d="M52.581 77.326C52.9963 78.0452 53.9093 78.2955 54.6203 77.885 55.3314 77.4744 55.5712 76.5586 55.1559 75.8394 54.7407 75.1202 53.8276 74.8699 53.1166 75.2804 52.4056 75.6909 52.1658 76.6068 52.581 77.326z" fill="#ef6a6a"/><path d="M61.0508 91.9959C61.466 92.7151 62.379 92.9654 63.0901 92.5549 63.8011 92.1444 64.0409 91.2285 63.6256 90.5093 63.2104 89.7901 62.2974 89.5398 61.5863 89.9503 60.8753 90.3609 60.6355 91.2767 61.0508 91.9959z" fill="#ff0"/><path d="M84.4702 66.2996C84.8854 67.0188 85.7985 67.2691 86.5095 66.8586 87.2205 66.4481 87.4603 65.5322 87.0451 64.813 86.6298 64.0938 85.7168 63.8435 85.0058 64.254 84.2947 64.6646 84.055 65.5804 84.4702 66.2996z" fill="#ff0"/><path d="M77.1626 80.8436C77.5778 81.5628 78.4909 81.813 79.2019 81.4025 79.9129 80.992 80.1527 80.0762 79.7375 79.357 79.3222 78.6377 78.4092 78.3875 77.6982 78.798 76.9871 79.2085 76.7473 80.1243 77.1626 80.8436z" fill="#ef6a6a"/><path d="M90.4455 57.9866C90.8608 58.7059 91.7738 58.9561 92.4848 58.5456 93.1959 58.1351 93.4357 57.2193 93.0204 56.5 92.6052 55.7808 91.6921 55.5305 90.9811 55.9411 90.2701 56.3516 90.0303 57.2674 90.4455 57.9866z" fill="#ef6a6a"/><path d="M113.049 57.0242C113.464 57.7435 114.377 57.9937 115.088 57.5832 115.799 57.1727 116.039 56.2568 115.623 55.5376 115.208 54.8184 114.295 54.5681 113.584 54.9787 112.873 55.3892 112.633 56.305 113.049 57.0242z" fill="#ef6a6a"/><path d="M100.195 59.7581C100.61 60.4773 101.523 60.7276 102.234 60.3171 102.945 59.9066 103.185 58.9907 102.769 58.2715 102.354 57.5523 101.441 57.302 100.73 57.7125 100.019 58.1231 99.7793 59.0389 100.195 59.7581z" fill="#ff0"/></g><g clip-path="url(#clip2)"><path d="M49.3011 64.5831 45.6179 60.8999 23.9623 82.5555 27.6455 86.2386 49.3011 64.5831z" fill="#754c24"/><path d="M77.2523 32.9488 36.6241 73.577 27.9009 64.8538C31.1696 64.8378 36.1571 63.0488 41.1747 60.784L36.5727 56.182C39.5369 56.1681 43.9191 54.6937 48.4507 52.7286L44.2384 48.5163C48.625 48.4874 56.0946 45.2825 62.5847 42.0142l-1.8765-1.8765C65.5131 40.1132 77.2523 32.9488 77.2523 32.9488z" fill="#006837"/><path d="M54.0267 73.6207 49.4247 69.0187C47.1599 74.0362 45.3709 79.0237 45.3549 82.2925L36.6317 73.5693 77.2522 32.9487C77.2522 32.9487 70.0878 44.688 70.0633 49.4928L68.1868 47.6164C64.9185 54.1065 61.7136 61.5761 61.6924 65.955L57.4801 61.7426C55.515 66.2743 54.0406 70.6564 54.0267 73.6207z" fill="#009245"/><path d="M69.4402 50.0349C69.7999 50.3946 70.3798 50.3979 70.7354 50.0423 71.091 49.6867 71.0877 49.1068 70.728 48.747 70.3683 48.3873 69.7884 48.384 69.4327 48.7396 69.0771 49.0952 69.0804 49.6752 69.4402 50.0349z" fill="#ff0"/><path d="M61.0693 66.4968C61.429 66.8565 62.0089 66.8598 62.3646 66.5042 62.7202 66.1486 62.7169 65.5687 62.3571 65.209 61.9974 64.8492 61.4175 64.8459 61.0619 65.2015 60.7063 65.5572 60.7096 66.1371 61.0693 66.4968z" fill="#ef6a6a"/><path d="M53.4035 74.1628C53.7633 74.5225 54.3432 74.5258 54.6988 74.1702 55.0544 73.8146 55.0511 73.2347 54.6914 72.875 54.3317 72.5152 53.7517 72.5119 53.3961 72.8675 53.0405 73.2232 53.0438 73.8031 53.4035 74.1628z" fill="#ff0"/><path d="M44.6704 82.8957C45.0301 83.2554 45.61 83.2588 45.9656 82.9031 46.3213 82.5475 46.3179 81.9676 45.9582 81.6079 45.5985 81.2482 45.0186 81.2448 44.663 81.6005 44.3073 81.9561 44.3107 82.536 44.6704 82.8957z" fill="#ef6a6a"/><path d="M27.2646 65.49C27.6243 65.8497 28.2043 65.853 28.5599 65.4974 28.9155 65.1417 28.9122 64.5618 28.5525 64.2021 28.1927 63.8424 27.6128 63.8391 27.2572 64.1947 26.9016 64.5503 26.9049 65.1302 27.2646 65.49z" fill="#ff0"/><path d="M35.9978 56.757C36.3575 57.1168 36.9374 57.1201 37.293 56.7645 37.6487 56.4088 37.6453 55.8289 37.2856 55.4692 36.9259 55.1095 36.346 55.1062 35.9904 55.4618 35.6347 55.8174 35.6381 56.3973 35.9978 56.757z" fill="#ef6a6a"/><path d="M43.6635 49.091C44.0233 49.4508 44.6032 49.4541 44.9588 49.0984 45.3144 48.7428 45.3111 48.1629 44.9514 47.8032 44.5917 47.4435 44.0118 47.4401 43.6561 47.7958 43.3005 48.1514 43.3038 48.7313 43.6635 49.091z" fill="#ef6a6a"/><path d="M60.1509 40.7453C60.5106 41.105 61.0905 41.1084 61.4461 40.7527 61.8017 40.3971 61.7984 39.8172 61.4387 39.4575 61.079 39.0978 60.4991 39.0944 60.1434 39.4501 59.7878 39.8057 59.7911 40.3856 60.1509 40.7453z" fill="#ef6a6a"/><path d="M58.7719 57.8029C59.1317 58.1627 59.7116 58.166 60.0672 57.8104 60.4228 57.4547 60.4195 56.8748 60.0598 56.5151 59.7001 56.1554 59.1202 56.1521 58.7645 56.5077 58.4089 56.8633 58.4122 57.4432 58.7719 57.8029z" fill="#ff0"/><path d="M43.7417 62.7761C44.1014 63.1358 44.6813 63.1391 45.0369 62.7835 45.3926 62.4279 45.3892 61.848 45.0295 61.4883 44.6698 61.1285 44.0899 61.1252 43.7343 61.4808 43.3786 61.8365 43.3819 62.4164 43.7417 62.7761z" fill="#ff0"/><path d="M35.3005 66.5998C35.6602 66.9595 36.2401 66.9629 36.5958 66.6072 36.9514 66.2516 36.9481 65.6717 36.5883 65.312 36.2286 64.9523 35.6487 64.9489 35.2931 65.3046 34.9375 65.6602 34.9408 66.2401 35.3005 66.5998z" fill="#ef6a6a"/><path d="M42.6377 73.9372C42.9974 74.297 43.5773 74.3003 43.9329 73.9446 44.2886 73.589 44.2852 73.0091 43.9255 72.6494 43.5658 72.2897 42.9859 72.2863 42.6302 72.642 42.2746 72.9976 42.2779 73.5775 42.6377 73.9372z" fill="#ff0"/><path d="M52.4209 55.0197C52.7806 55.3795 53.3605 55.3828 53.7161 55.0272 54.0718 54.6715 54.0684 54.0916 53.7087 53.7319 53.349 53.3722 52.7691 53.3689 52.4135 53.7245 52.0578 54.0801 52.0611 54.66 52.4209 55.0197z" fill="#ff0"/><path d="M50.4028 64.7839C50.7625 65.1436 51.3424 65.1469 51.6981 64.7913 52.0537 64.4357 52.0504 63.8558 51.6906 63.4961 51.3309 63.1363 50.751 63.133 50.3954 63.4886 50.0398 63.8443 50.0431 64.4242 50.4028 64.7839z" fill="#ef6a6a"/><path d="M54.6384 49.154C54.9981 49.5137 55.578 49.5171 55.9337 49.1614 56.2893 48.8058 56.286 48.2259 55.9262 47.8662 55.5665 47.5065 54.9866 47.5031 54.631 47.8588 54.2754 48.2144 54.2787 48.7943 54.6384 49.154z" fill="#ef6a6a"/><path d="M67.8596 45.0012C68.2193 45.3609 68.7992 45.3642 69.1548 45.0086 69.5105 44.653 69.5072 44.0731 69.1474 43.7133 68.7877 43.3536 68.2078 43.3503 67.8522 43.7059 67.4965 44.0616 67.4999 44.6415 67.8596 45.0012z" fill="#ef6a6a"/><path d="M60.6877 48.6565C61.0474 49.0162 61.6273 49.0195 61.983 48.6639 62.3386 48.3082 62.3353 47.7283 61.9756 47.3686 61.6158 47.0089 61.0359 47.0056 60.6803 47.3612 60.3247 47.7168 60.328 48.2967 60.6877 48.6565z" fill="#ff0"/></g></g><g opacity=".7"><g clip-path="url(#clip3)"><path d="M44.6282 159.946 46.2888 157.069 29.1823 147.193 27.5216 150.069 44.6282 159.946z" fill="#754c24"/><path d="M68.9929 172.095 36.8992 153.566 40.8323 146.753C41.3964 148.773 43.3518 151.567 45.6076 154.302L47.6825 150.708C48.1936 152.54 49.8513 155.01 51.8387 157.494L53.7379 154.204C54.4995 156.913 57.7541 161.012 60.8821 164.496L61.7281 163.03C62.5579 165.998 68.9929 172.095 68.9929 172.095z" fill="#006837"/><path d="M39.8223 164.337 41.8973 160.743C38.4004 160.157 35.0028 159.861 32.9721 160.382L36.9052 153.569 68.9929 172.095C68.9929 172.095 60.4952 169.571 57.5101 170.336L58.3562 168.871C53.7756 167.904 48.5981 167.135 45.8777 167.833L47.777 164.543C44.6324 164.064 41.6637 163.864 39.8223 164.337z" fill="#009245"/><path d="M57.0682 170.038C56.906 170.319 57.0022 170.679 57.2832 170.841 57.5641 171.003 57.9233 170.907 58.0855 170.626 58.2477 170.345 58.1514 169.986 57.8705 169.824 57.5896 169.661 57.2304 169.758 57.0682 170.038z" fill="#ff0"/><path d="M45.4358 167.535C45.2737 167.816 45.3699 168.175 45.6508 168.337 45.9317 168.5 46.291 168.403 46.4532 168.122 46.6153 167.842 46.5191 167.482 46.2382 167.32 45.9572 167.158 45.598 167.254 45.4358 167.535z" fill="#ef6a6a"/><path d="M39.3804 164.039C39.2182 164.32 39.3145 164.679 39.5954 164.841 39.8763 165.004 40.2355 164.907 40.3977 164.626 40.5599 164.345 40.4637 163.986 40.1828 163.824 39.9018 163.662 39.5426 163.758 39.3804 164.039z" fill="#ff0"/><path d="M32.4817 160.056C32.3196 160.337 32.4158 160.696 32.6967 160.858 32.9776 161.021 33.3369 160.924 33.4991 160.643 33.6612 160.362 33.565 160.003 33.2841 159.841 33.0031 159.679 32.6439 159.775 32.4817 160.056z" fill="#ef6a6a"/><path d="M40.3296 146.463C40.1675 146.744 40.2637 147.103 40.5446 147.266 40.8255 147.428 41.1848 147.332 41.347 147.051 41.5091 146.77 41.4129 146.411 41.132 146.248 40.851 146.086 40.4918 146.182 40.3296 146.463z" fill="#ff0"/><path d="M47.2283 150.446C47.0661 150.727 47.1624 151.086 47.4433 151.249 47.7242 151.411 48.0834 151.314 48.2456 151.034 48.4078 150.753 48.3116 150.393 48.0307 150.231 47.7497 150.069 47.3905 150.165 47.2283 150.446z" fill="#ef6a6a"/><path d="M53.2837 153.942C53.1216 154.223 53.2178 154.582 53.4987 154.745 53.7797 154.907 54.1389 154.811 54.3011 154.53 54.4632 154.249 54.367 153.89 54.0861 153.727 53.8052 153.565 53.4459 153.661 53.2837 153.942z" fill="#ef6a6a"/><path d="M61.2564 162.784C61.0942 163.065 61.1905 163.424 61.4714 163.586 61.7523 163.749 62.1115 163.652 62.2737 163.371 62.4359 163.091 62.3397 162.731 62.0587 162.569 61.7778 162.407 61.4186 162.503 61.2564 162.784z" fill="#ef6a6a"/><path d="M50.4405 164.702C50.2783 164.983 50.3745 165.342 50.6555 165.504 50.9364 165.667 51.2956 165.57 51.4578 165.289 51.62 165.008 51.5237 164.649 51.2428 164.487 50.9619 164.325 50.6027 164.421 50.4405 164.702z" fill="#ff0"/><path d="M44.8067 156.213C44.6445 156.494 44.7408 156.853 45.0217 157.016 45.3026 157.178 45.6618 157.082 45.824 156.801 45.9862 156.52 45.8899 156.161 45.609 155.998 45.3281 155.836 44.9689 155.932 44.8067 156.213z" fill="#ff0"/><path d="M41.0035 151.614C40.8413 151.895 40.9375 152.254 41.2185 152.416 41.4994 152.578 41.8586 152.482 42.0208 152.201 42.183 151.92 42.0867 151.561 41.8058 151.399 41.5249 151.237 41.1657 151.333 41.0035 151.614z" fill="#ef6a6a"/><path d="M37.6951 157.344C37.5329 157.625 37.6292 157.984 37.9101 158.146 38.191 158.308 38.5502 158.212 38.7124 157.931 38.8746 157.65 38.7784 157.291 38.4975 157.129 38.2165 156.967 37.8573 157.063 37.6951 157.344z" fill="#ff0"/><path d="M51.0901 160.322C50.928 160.603 51.0242 160.962 51.3051 161.124 51.586 161.286 51.9453 161.19 52.1075 160.909 52.2696 160.628 52.1734 160.269 51.8925 160.107 51.6115 159.945 51.2523 160.041 51.0901 160.322z" fill="#ff0"/><path d="M44.6902 160.66C44.5281 160.941 44.6243 161.3 44.9052 161.462 45.1861 161.624 45.5454 161.528 45.7075 161.247 45.8697 160.966 45.7735 160.607 45.4926 160.445 45.2116 160.282 44.8524 160.379 44.6902 160.66z" fill="#ef6a6a"/><path d="M55.1053 160.741C54.9431 161.022 55.0393 161.381 55.3203 161.543 55.6012 161.705 55.9604 161.609 56.1226 161.328 56.2848 161.047 56.1885 160.688 55.9076 160.526 55.6267 160.363 55.2675 160.46 55.1053 160.741z" fill="#ef6a6a"/><path d="M59.9231 168.244C59.761 168.525 59.8572 168.884 60.1381 169.046 60.4191 169.208 60.7783 169.112 60.9405 168.831 61.1026 168.55 61.0064 168.191 60.7255 168.029 60.4446 167.866 60.0853 167.963 59.9231 168.244z" fill="#ef6a6a"/><path d="M56.4395 164.401C56.2773 164.682 56.3736 165.041 56.6545 165.204 56.9354 165.366 57.2946 165.27 57.4568 164.989 57.619 164.708 57.5228 164.348 57.2418 164.186 56.9609 164.024 56.6017 164.12 56.4395 164.401z" fill="#ff0"/></g><g clip-path="url(#clip4)"><path d="M58.1385 150.29 59.3555 145.748 32.6504 138.592 31.4334 143.134 58.1385 150.29z" fill="#754c24"/><path d="M95.4865 157.863 45.3849 144.439 48.2673 133.681C49.7552 136.23 53.4051 139.321 57.4405 142.222L58.9611 136.547C60.31 138.858 63.4407 141.618 67.0224 144.274L68.4143 139.08C70.4168 142.496 76.294 146.889 81.7786 150.488L82.3986 148.174C84.5866 151.919 95.4865 157.863 95.4865 157.863z" fill="#006837"/><path d="M53.2058 158.064 54.7265 152.389C49.7815 152.883 45.0747 153.735 42.512 155.198L45.3944 144.441 95.4866 157.863C95.4866 157.863 83.075 157.561 79.3075 159.711L79.9275 157.397C73.3783 157.771 66.092 158.637 62.659 160.597L64.0509 155.402C59.6211 155.911 55.5296 156.737 53.2058 158.064z" fill="#009245"/><path d="M78.6027 159.468C78.4838 159.912 78.743 160.366 79.1815 160.484 79.6201 160.601 80.0719 160.337 80.1908 159.894 80.3096 159.45 80.0505 158.995 79.6119 158.878 79.1734 158.76 78.7215 159.024 78.6027 159.468z" fill="#ff0"/><path d="M61.954 160.354C61.8351 160.798 62.0943 161.253 62.5328 161.37 62.9714 161.488 63.4232 161.223 63.5421 160.78 63.661 160.336 63.4018 159.881 62.9633 159.764 62.5247 159.646 62.0728 159.911 61.954 160.354z" fill="#ef6a6a"/><path d="M52.5009 157.821C52.382 158.265 52.6412 158.72 53.0797 158.837 53.5182 158.955 53.9701 158.69 54.089 158.247 54.2078 157.803 53.9487 157.348 53.5101 157.231 53.0716 157.113 52.6197 157.377 52.5009 157.821z" fill="#ff0"/><path d="M41.7313 154.935C41.6125 155.379 41.8716 155.834 42.3102 155.951 42.7487 156.069 43.2006 155.804 43.3194 155.361 43.4383 154.917 43.1792 154.462 42.7406 154.345 42.3021 154.227 41.8502 154.492 41.7313 154.935z" fill="#ef6a6a"/><path d="M47.4828 133.471C47.3639 133.915 47.6231 134.369 48.0616 134.487 48.5002 134.604 48.9521 134.34 49.0709 133.896 49.1898 133.453 48.9306 132.998 48.4921 132.88 48.0535 132.763 47.6016 133.027 47.4828 133.471z" fill="#ff0"/><path d="M58.2523 136.357C58.1335 136.8 58.3926 137.255 58.8312 137.373 59.2697 137.49 59.7216 137.226 59.8404 136.782 59.9593 136.339 59.7002 135.884 59.2616 135.766 58.8231 135.649 58.3712 135.913 58.2523 136.357z" fill="#ef6a6a"/><path d="M67.7054 138.89C67.5866 139.333 67.8457 139.788 68.2843 139.906 68.7228 140.023 69.1747 139.759 69.2936 139.315 69.4124 138.872 69.1533 138.417 68.7147 138.299 68.2762 138.182 67.8243 138.446 67.7054 138.89z" fill="#ef6a6a"/><path d="M81.672 148.012C81.5531 148.456 81.8123 148.911 82.2508 149.028 82.6894 149.146 83.1413 148.882 83.2601 148.438 83.379 147.994 83.1198 147.54 82.6813 147.422 82.2427 147.304 81.7909 147.569 81.672 148.012z" fill="#ef6a6a"/><path d="M67.7142 154.634C67.5954 155.077 67.8545 155.532 68.2931 155.65 68.7316 155.767 69.1835 155.503 69.3024 155.059 69.4212 154.615 69.1621 154.161 68.7235 154.043 68.285 153.926 67.8331 154.19 67.7142 154.634z" fill="#ff0"/><path d="M57.0419 145.128C56.923 145.572 57.1822 146.027 57.6207 146.144 58.0593 146.262 58.5111 145.997 58.63 145.554 58.7489 145.11 58.4897 144.655 58.0512 144.538 57.6126 144.42 57.1607 144.685 57.0419 145.128z" fill="#ff0"/><path d="M50.2423 140.255C50.1234 140.698 50.3826 141.153 50.8212 141.271 51.2597 141.388 51.7116 141.124 51.8304 140.68 51.9493 140.237 51.6901 139.782 51.2516 139.664 50.813 139.547 50.3612 139.811 50.2423 140.255z" fill="#ef6a6a"/><path d="M47.8177 149.302C47.6989 149.746 47.958 150.201 48.3966 150.318 48.8351 150.436 49.287 150.172 49.4059 149.728 49.5247 149.284 49.2656 148.83 48.827 148.712 48.3885 148.595 47.9366 148.859 47.8177 149.302z" fill="#ff0"/><path d="M67.0231 148.412C66.9042 148.856 67.1634 149.311 67.6019 149.428 68.0405 149.546 68.4923 149.281 68.6112 148.838 68.7301 148.394 68.4709 147.939 68.0324 147.822 67.5938 147.704 67.1419 147.969 67.0231 148.412z" fill="#ff0"/><path d="M58.4786 151.242C58.3598 151.686 58.6189 152.14 59.0575 152.258 59.496 152.375 59.9479 152.111 60.0668 151.667 60.1856 151.224 59.9265 150.769 59.4879 150.651 59.0494 150.534 58.5975 150.798 58.4786 151.242z" fill="#ef6a6a"/><path d="M72.6102 147.498C72.4914 147.942 72.7505 148.397 73.1891 148.514 73.6276 148.632 74.0795 148.367 74.1984 147.924 74.3172 147.48 74.0581 147.025 73.6195 146.908 73.181 146.79 72.7291 147.055 72.6102 147.498z" fill="#ef6a6a"/><path d="M81.8246 155.96C81.7057 156.404 81.9649 156.859 82.4034 156.976 82.842 157.094 83.2938 156.829 83.4127 156.386 83.5316 155.942 83.2724 155.487 82.8339 155.37 82.3953 155.252 81.9434 155.517 81.8246 155.96z" fill="#ef6a6a"/><path d="M75.7294 152.003C75.6105 152.447 75.8697 152.902 76.3082 153.019 76.7468 153.137 77.1986 152.872 77.3175 152.429 77.4364 151.985 77.1772 151.53 76.7387 151.413 76.3001 151.295 75.8482 151.56 75.7294 152.003z" fill="#ff0"/></g><g clip-path="url(#clip5)"><path d="M53.9424 133.989V131.109H37.0068V133.989H53.9424z" fill="#754c24"/><path d="M77.2415 132.549H45.4685V125.727C46.7529 126.999 49.4027 128.25 52.2502 129.326V125.727C53.4148 126.881 55.7048 128.018 58.2451 129.021V125.727C59.9717 127.431 64.1456 129.099 67.9614 130.358V128.891C69.8498 130.76 77.2415 132.549 77.2415 132.549z" fill="#006837"/><path d="M52.2562 139.371V135.772C49.4087 136.848 46.7589 138.099 45.4745 139.371V132.549H77.2415C77.2415 132.549 69.8498 134.338 67.9614 136.207V134.739C64.1456 135.999 59.9717 137.667 58.2511 139.371V136.077C55.7108 137.08 53.4208 138.217 52.2562 139.371z" fill="#009245"/><path d="M67.5058 136.175C67.5058 136.457 67.7313 136.685 68.0094 136.685 68.2875 136.685 68.5129 136.457 68.5129 136.175 68.5129 135.894 68.2875 135.666 68.0094 135.666 67.7313 135.666 67.5058 135.894 67.5058 136.175z" fill="#ff0"/><path d="M57.7956 139.339C57.7956 139.62 58.0211 139.848 58.2992 139.848 58.5773 139.848 58.8027 139.62 58.8027 139.339 58.8027 139.058 58.5773 138.83 58.2992 138.83 58.0211 138.83 57.7956 139.058 57.7956 139.339z" fill="#ef6a6a"/><path d="M51.8007 139.339C51.8007 139.62 52.0262 139.848 52.3043 139.848 52.5824 139.848 52.8079 139.62 52.8079 139.339 52.8079 139.058 52.5824 138.83 52.3043 138.83 52.0262 138.83 51.8007 139.058 51.8007 139.339z" fill="#ff0"/><path d="M44.9709 139.339C44.9709 139.62 45.1963 139.848 45.4745 139.848 45.7526 139.848 45.978 139.62 45.978 139.339 45.978 139.058 45.7526 138.83 45.4745 138.83 45.1963 138.83 44.9709 139.058 44.9709 139.339z" fill="#ef6a6a"/><path d="M44.9709 125.727C44.9709 126.008 45.1963 126.237 45.4745 126.237 45.7526 126.237 45.978 126.008 45.978 125.727 45.978 125.446 45.7526 125.218 45.4745 125.218 45.1963 125.218 44.9709 125.446 44.9709 125.727z" fill="#ff0"/><path d="M51.8007 125.727C51.8007 126.008 52.0262 126.237 52.3043 126.237 52.5824 126.237 52.8079 126.008 52.8079 125.727 52.8079 125.446 52.5824 125.218 52.3043 125.218 52.0262 125.218 51.8007 125.446 51.8007 125.727z" fill="#ef6a6a"/><path d="M57.7956 125.727C57.7956 126.008 58.021 126.237 58.2992 126.237 58.5773 126.237 58.8027 126.008 58.8027 125.727 58.8027 125.446 58.5773 125.218 58.2992 125.218 58.021 125.218 57.7956 125.446 57.7956 125.727z" fill="#ef6a6a"/><path d="M67.5058 128.911C67.5058 129.192 67.7313 129.42 68.0094 129.42 68.2875 129.42 68.5129 129.192 68.5129 128.911 68.5129 128.629 68.2875 128.401 68.0094 128.401 67.7313 128.401 67.5058 128.629 67.5058 128.911z" fill="#ef6a6a"/><path d="M60.2968 135.041C60.2968 135.322 60.5223 135.55 60.8004 135.55 61.0785 135.55 61.304 135.322 61.304 135.041 61.304 134.76 61.0785 134.532 60.8004 134.532 60.5223 134.532 60.2968 134.76 60.2968 135.041z" fill="#ff0"/><path d="M52.475 131.109C52.475 131.39 52.7005 131.618 52.9786 131.618 53.2567 131.618 53.4822 131.39 53.4822 131.109 53.4822 130.828 53.2567 130.6 52.9786 130.6 52.7005 130.6 52.475 130.828 52.475 131.109z" fill="#ff0"/><path d="M47.6791 129.303C47.6791 129.585 47.9046 129.813 48.1827 129.813 48.4608 129.813 48.6863 129.585 48.6863 129.303 48.6863 129.022 48.4608 128.794 48.1827 128.794 47.9046 128.794 47.6791 129.022 47.6791 129.303z" fill="#ef6a6a"/><path d="M47.6791 135.041C47.6791 135.322 47.9046 135.55 48.1827 135.55 48.4608 135.55 48.6863 135.322 48.6863 135.041 48.6863 134.76 48.4608 134.532 48.1827 134.532 47.9046 134.532 47.6791 134.76 47.6791 135.041z" fill="#ff0"/><path d="M58.9015 131.47C58.9015 131.751 59.127 131.979 59.4051 131.979 59.6832 131.979 59.9087 131.751 59.9087 131.47 59.9087 131.189 59.6832 130.96 59.4051 130.96 59.127 130.96 58.9015 131.189 58.9015 131.47z" fill="#ff0"/><path d="M54.2946 134.499C54.2946 134.78 54.5201 135.008 54.7982 135.008 55.0763 135.008 55.3018 134.78 55.3018 134.499 55.3018 134.217 55.0763 133.989 54.7982 133.989 54.5201 133.989 54.2946 134.217 54.2946 134.499z" fill="#ef6a6a"/><path d="M62.0624 130.043C62.0624 130.324 62.2879 130.552 62.566 130.552 62.8441 130.552 63.0696 130.324 63.0696 130.043 63.0696 129.762 62.8441 129.534 62.566 129.534 62.2879 129.534 62.0624 129.762 62.0624 130.043z" fill="#ef6a6a"/><path d="M68.8561 133.589C68.8561 133.87 69.0816 134.098 69.3597 134.098 69.6378 134.098 69.8633 133.87 69.8633 133.589 69.8633 133.308 69.6378 133.08 69.3597 133.08 69.0816 133.08 68.8561 133.308 68.8561 133.589z" fill="#ef6a6a"/><path d="M64.6223 132.214C64.6223 132.495 64.8477 132.723 65.1258 132.723 65.4039 132.723 65.6294 132.495 65.6294 132.214 65.6294 131.933 65.4039 131.705 65.1258 131.705 64.8477 131.705 64.6223 131.933 64.6223 132.214z" fill="#ff0"/></g></g><defs><clipPath id="clip0"><path d="M0 0h30.5078v84.863H0z" fill="#fff" transform="translate(113.316 79.2974) rotate(75)"/></clipPath><clipPath id="clip1"><path d="M0 0h43.1921v118.778H0z" fill="#fff" transform="translate(122.13 23.2446) rotate(60)"/></clipPath><clipPath id="clip2"><path d="M0 0h26.4578v72.7589H0z" fill="#fff" transform="translate(67.8777 23.5742) rotate(45)"/></clipPath><clipPath id="clip3"><path d="M0 0h16.8704v46.9281H0z" fill="#fff" transform="translate(73.2197 164.774) rotate(120)"/></clipPath><clipPath id="clip4"><path d="M0 0h23.8847v65.6828H0z" fill="#fff" transform="translate(98.5842 146.303) rotate(105)"/></clipPath><clipPath id="clip5"><path d="M0 0h14.6308v40.2347H0z" fill="#fff" transform="translate(77.2415 125.218) rotate(90)"/></clipPath></defs></svg>