<svg xmlns="http://www.w3.org/2000/svg" width="65" height="522" fill="none"><ellipse cx="37.53" cy="499.937" fill="#fff" rx="22.063" ry="18.184" transform="rotate(-90 37.53 499.937)"/><ellipse cx="29.018" cy="482.099" fill="#fff" rx="17.369" ry="14.316" transform="rotate(-90 29.018 482.099)"/><ellipse cx="36.369" cy="466.608" fill="#fff" rx="11.266" ry="9.286" transform="rotate(-90 36.37 466.608)"/><ellipse cx="25.149" cy="444.545" fill="#fff" rx="22.063" ry="18.184" transform="rotate(-90 25.149 444.545)"/><ellipse cx="35.982" cy="422.013" fill="#fff" rx="7.98" ry="6.577" transform="rotate(-90 35.982 422.013)"/><ellipse cx="22.827" cy="399.481" fill="#fff" rx="27.696" ry="22.827" transform="rotate(-90 22.827 399.481)"/><ellipse cx="33.661" cy="376.009" fill="#fff" rx="17.369" ry="14.316" transform="rotate(-90 33.66 376.009)"/><ellipse cx="34.048" cy="354.885" fill="#fff" rx="16.899" ry="13.929" transform="rotate(-90 34.048 354.885)"/><ellipse cx="32.113" cy="337.516" fill="#fff" rx="21.124" ry="17.411" transform="rotate(-90 32.113 337.516)"/><ellipse cx="27.47" cy="322.495" fill="#fff" rx="19.246" ry="15.863" transform="rotate(-90 27.47 322.495)"/><ellipse cx="30.952" cy="300.432" fill="#fff" rx="17.838" ry="14.702" transform="rotate(-90 30.952 300.432)"/><ellipse cx="29.018" cy="268.98" fill="#fff" rx="25.818" ry="21.28" transform="rotate(-90 29.018 268.98)"/><ellipse cx="33.273" cy="243.162" fill="#fff" rx="19.716" ry="16.25" transform="rotate(-90 33.273 243.162)"/><ellipse cx="35.209" cy="219.222" fill="#fff" rx="17.369" ry="14.316" transform="rotate(-90 35.209 219.222)"/><ellipse cx="30.565" cy="190.116" fill="#fff" rx="23.002" ry="18.958" transform="rotate(-90 30.565 190.116)"/><ellipse cx="29.018" cy="151.624" fill="#fff" rx="31.451" ry="25.923" transform="rotate(-90 29.018 151.624)"/><ellipse cx="47.202" cy="115.478" fill="#fff" rx="19.716" ry="16.25" transform="rotate(-90 47.202 115.478)"/><ellipse cx="39.851" cy="86.844" fill="#fff" rx="30.513" ry="25.149" transform="rotate(-90 39.851 86.844)"/><ellipse cx="32.5" cy="45.065" fill="#fff" rx="25.349" ry="20.893" transform="rotate(-90 32.5 45.065)"/><ellipse cx="49.136" cy="28.635" fill="#fff" rx="19.246" ry="15.863" transform="rotate(-90 49.136 28.635)"/><ellipse cx="36.756" cy="19.246" fill="#fff" rx="19.246" ry="15.863" transform="rotate(-90 36.756 19.246)"/></svg>