<svg width="557" height="112" viewBox="0 0 557 112" fill="none" xmlns="http://www.w3.org/2000/svg"><circle cx="23.5" cy="48.5" r="23.5" fill="#fff"/><circle cx="42.5" cy="37.5" r="18.5" fill="#fff"/><circle cx="59" cy="47" r="12" fill="#fff"/><circle cx="82.5" cy="32.5" r="23.5" fill="#fff"/><circle cx="106.5" cy="46.5" r="8.5" fill="#fff"/><circle cx="130.5" cy="29.5" r="29.5" fill="#fff"/><circle cx="155.5" cy="43.5" r="18.5" fill="#fff"/><circle cx="178" cy="44" r="18" fill="#fff"/><circle cx="196.5" cy="41.5" r="22.5" fill="#fff"/><circle cx="212.5" cy="35.5" r="20.5" fill="#fff"/><circle cx="236" cy="40" r="19" fill="#fff"/><circle cx="269.5" cy="37.5" r="27.5" fill="#fff"/><circle cx="297" cy="43" r="21" fill="#fff"/><circle cx="322.5" cy="45.5" r="18.5" fill="#fff"/><circle cx="353.5" cy="39.5" r="24.5" fill="#fff"/><circle cx="394.5" cy="37.5" r="33.5" fill="#fff"/><circle cx="433" cy="61" r="21" fill="#fff"/><circle cx="463.5" cy="51.5" r="32.5" fill="#fff"/><circle cx="508" cy="42" r="27" fill="#fff"/><circle cx="525.5" cy="63.5" r="20.5" fill="#fff"/><circle cx="535.5" cy="47.5" r="20.5" fill="#fff"/><circle cx="542" cy="76" r="14" fill="#fff"/><circle cx="546.5" cy="94.5" r="10.5" fill="#fff"/><circle cx="546.5" cy="105.5" r="6.5" fill="#fff"/></svg>