<svg width="65" height="522" viewBox="0 0 65 522" fill="none" xmlns="http://www.w3.org/2000/svg"><ellipse cx="27.47" cy="22.063" rx="22.063" ry="18.1845" transform="rotate(90 27.47 22.063)" fill="#fff"/><ellipse cx="35.9821" cy="39.9009" rx="17.3687" ry="14.3155" transform="rotate(90 35.9821 39.9009)" fill="#fff"/><ellipse cx="28.6305" cy="55.3922" rx="11.2662" ry="9.28571" transform="rotate(90 28.6305 55.3922)" fill="#fff"/><ellipse cx="39.8509" cy="77.455" rx="22.063" ry="18.1845" transform="rotate(90 39.8509 77.455)" fill="#fff"/><ellipse cx="29.0176" cy="99.9871" rx="7.98022" ry="6.57738" transform="rotate(90 29.0176 99.9871)" fill="#fff"/><ellipse cx="42.1724" cy="122.519" rx="27.6961" ry="22.8274" transform="rotate(90 42.1724 122.519)" fill="#fff"/><ellipse cx="31.3391" cy="145.991" rx="17.3687" ry="14.3155" transform="rotate(90 31.3391 145.991)" fill="#fff"/><ellipse cx="30.952" cy="167.115" rx="16.8993" ry="13.9286" transform="rotate(90 30.952 167.115)" fill="#fff"/><ellipse cx="32.8869" cy="184.484" rx="21.1241" ry="17.4107" transform="rotate(90 32.8869 184.484)" fill="#fff"/><ellipse cx="37.5297" cy="199.505" rx="19.2464" ry="15.8631" transform="rotate(90 37.5297 199.505)" fill="#fff"/><ellipse cx="34.0474" cy="221.568" rx="17.8381" ry="14.7024" transform="rotate(90 34.0474 221.568)" fill="#fff"/><ellipse cx="35.9822" cy="253.02" rx="25.8184" ry="21.2798" transform="rotate(90 35.9822 253.02)" fill="#fff"/><ellipse cx="31.7263" cy="278.838" rx="19.7158" ry="16.25" transform="rotate(90 31.7263 278.838)" fill="#fff"/><ellipse cx="29.7912" cy="302.778" rx="17.3687" ry="14.3155" transform="rotate(90 29.7912 302.778)" fill="#fff"/><ellipse cx="34.4345" cy="331.884" rx="23.0018" ry="18.9583" transform="rotate(90 34.4345 331.884)" fill="#fff"/><ellipse cx="35.9819" cy="370.376" rx="31.4515" ry="25.9226" transform="rotate(90 35.9819 370.376)" fill="#fff"/><ellipse cx="17.7976" cy="406.522" rx="19.7158" ry="16.25" transform="rotate(90 17.7976 406.522)" fill="#fff"/><ellipse cx="25.1488" cy="435.156" rx="30.5126" ry="25.1488" transform="rotate(90 25.1488 435.156)" fill="#fff"/><ellipse cx="32.5" cy="476.935" rx="25.3489" ry="20.8929" transform="rotate(90 32.5 476.935)" fill="#fff"/><ellipse cx="15.8632" cy="493.365" rx="19.2464" ry="15.8631" transform="rotate(90 15.8632 493.365)" fill="#fff"/><ellipse cx="28.2436" cy="502.754" rx="19.2464" ry="15.8631" transform="rotate(90 28.2436 502.754)" fill="#fff"/></svg>