<svg width="82" height="82" viewBox="0 0 82 82" fill="none" xmlns="http://www.w3.org/2000/svg"><path fill-rule="evenodd" clip-rule="evenodd" d="M59.9273 1H22.3222C9.21321 1 1 10.2785 1 23.4092V58.8403C1 71.9711 9.17843 81.2495 22.3222 81.2495H59.923C73.0711 81.2495 81.2495 71.9711 81.2495 58.8403V23.4092C81.2495 10.2785 73.0711 1 59.9273 1z" stroke="#4d5051" stroke-width="1.5" stroke-linecap="round" stroke-linejoin="round"/><path fill-rule="evenodd" clip-rule="evenodd" d="M35.5779 27.2406C35.5779 31.6711 31.9822 35.2669 27.5517 35.2669 23.1255 35.2669 19.5298 31.6711 19.5298 27.2406 19.5298 22.8101 23.1255 19.2144 27.5517 19.2144 31.9822 19.2144 35.5779 22.8101 35.5779 27.2406z" stroke="#4d5051" stroke-width="1.5" stroke-linecap="round" stroke-linejoin="round"/><path d="M81.2473 54.0459C76.9255 50.2849 73.1645 45.7588 68.2079 42.7717 63.2426 39.7847 57.9077 41.6282 54.4641 46.0849 51.138 50.3936 49.0597 56.1894 44.0378 58.9069 37.8507 62.2591 34.2159 56.8546 29.0549 54.6894 23.2939 52.2763 18.9199 56.6155 15.5546 60.7852 12.185 64.9592 8.77186 69.0897 5.3457 73.2202" stroke="#4d5051" stroke-width="1.5" stroke-linecap="round" stroke-linejoin="round"/></svg>