<svg width="160" height="26" viewBox="0 0 160 26" fill="none" xmlns="http://www.w3.org/2000/svg">
<rect x="0.5" y="0.5" width="159" height="25" rx="2.5" stroke="#E01C1C"/>
<path d="M17.7861 15.1948C17.7861 14.7944 17.6738 14.4771 17.4492 14.2427C17.2295 14.0034 16.8535 13.7837 16.3213 13.5835C15.7891 13.3833 15.3301 13.1855 14.9443 12.9902C14.5586 12.79 14.2266 12.563 13.9482 12.3091C13.6748 12.0503 13.46 11.7476 13.3037 11.4009C13.1523 11.0542 13.0767 10.6416 13.0767 10.1631C13.0767 9.33789 13.3403 8.66162 13.8677 8.13428C14.395 7.60693 15.0957 7.29932 15.9697 7.21143V5.64404H17.1416V7.2334C18.0059 7.35547 18.6821 7.7168 19.1704 8.31738C19.6587 8.91309 19.9028 9.68701 19.9028 10.6392H17.7861C17.7861 10.0532 17.6641 9.61621 17.4199 9.32812C17.1807 9.03516 16.8584 8.88867 16.4531 8.88867C16.0527 8.88867 15.7427 9.00342 15.5229 9.23291C15.3032 9.45752 15.1934 9.77002 15.1934 10.1704C15.1934 10.5415 15.3008 10.8394 15.5156 11.064C15.7305 11.2886 16.1284 11.5181 16.7095 11.7524C17.2954 11.9868 17.7764 12.209 18.1523 12.4189C18.5283 12.624 18.8457 12.8584 19.1045 13.1221C19.3633 13.3809 19.561 13.6787 19.6978 14.0156C19.8345 14.3477 19.9028 14.7358 19.9028 15.1802C19.9028 16.0103 19.644 16.6841 19.1265 17.2017C18.6089 17.7192 17.896 18.0244 16.9878 18.1172V19.5747H15.8232V18.1245C14.8223 18.0171 14.0459 17.6631 13.4941 17.0625C12.9473 16.457 12.6738 15.6538 12.6738 14.6528H14.7905C14.7905 15.2339 14.9272 15.6807 15.2007 15.9932C15.479 16.3008 15.877 16.4546 16.3945 16.4546C16.8242 16.4546 17.1636 16.3423 17.4126 16.1177C17.6616 15.8882 17.7861 15.5806 17.7861 15.1948ZM26.48 18H24.3633V9.84082L21.8364 10.6245V8.90332L26.2529 7.32129H26.48V18ZM30.2666 12.7559L30.8818 7.33594H36.8584V9.10107H32.6177L32.354 11.3936C32.8569 11.125 33.3916 10.9907 33.958 10.9907C34.9736 10.9907 35.7695 11.3057 36.3457 11.9355C36.9219 12.5654 37.21 13.4468 37.21 14.5796C37.21 15.2681 37.0635 15.8857 36.7705 16.4326C36.4824 16.9746 36.0674 17.397 35.5254 17.6997C34.9834 17.9976 34.3438 18.1465 33.6064 18.1465C32.9619 18.1465 32.3638 18.0171 31.812 17.7583C31.2603 17.4946 30.8232 17.126 30.501 16.6523C30.1836 16.1787 30.0151 15.6392 29.9956 15.0337H32.0903C32.1343 15.478 32.2881 15.8247 32.5518 16.0737C32.8203 16.3179 33.1694 16.4399 33.5991 16.4399C34.0776 16.4399 34.4463 16.269 34.7051 15.9272C34.9639 15.5806 35.0933 15.0923 35.0933 14.4624C35.0933 13.8569 34.9443 13.3931 34.6465 13.0708C34.3486 12.7485 33.9263 12.5874 33.3794 12.5874C32.8765 12.5874 32.4688 12.7192 32.1562 12.9829L31.9512 13.1733L30.2666 12.7559ZM45.7427 13.5908C45.7427 15.0654 45.4375 16.1934 44.8271 16.9746C44.2168 17.7559 43.3232 18.1465 42.1465 18.1465C40.9844 18.1465 40.0957 17.7632 39.4805 16.9966C38.8652 16.23 38.5503 15.1313 38.5356 13.7007V11.7378C38.5356 10.2485 38.8433 9.11816 39.4585 8.34668C40.0786 7.5752 40.9697 7.18945 42.1318 7.18945C43.2939 7.18945 44.1826 7.57275 44.7979 8.33936C45.4131 9.10107 45.728 10.1973 45.7427 11.6279V13.5908ZM43.626 11.4375C43.626 10.5537 43.5039 9.91162 43.2598 9.51123C43.0205 9.10596 42.6445 8.90332 42.1318 8.90332C41.6338 8.90332 41.2651 9.09619 41.0259 9.48193C40.7915 9.86279 40.667 10.4609 40.6523 11.2764V13.8691C40.6523 14.7383 40.7695 15.3853 41.0039 15.8101C41.2432 16.23 41.624 16.4399 42.1465 16.4399C42.6641 16.4399 43.0376 16.2373 43.2671 15.832C43.4966 15.4268 43.6162 14.8066 43.626 13.9717V11.4375ZM59.2119 7.33594V14.3599C59.2119 15.5269 58.8457 16.4497 58.1133 17.1284C57.3857 17.8071 56.3896 18.1465 55.125 18.1465C53.8799 18.1465 52.8911 17.8169 52.1587 17.1577C51.4263 16.4985 51.0527 15.5928 51.0381 14.4404V7.33594H53.2354V14.3745C53.2354 15.0728 53.4014 15.583 53.7334 15.9053C54.0703 16.2227 54.5342 16.3813 55.125 16.3813C56.3604 16.3813 56.9878 15.7319 57.0073 14.4331V7.33594H59.2119ZM66.5435 15.2021C66.5435 14.7871 66.397 14.4697 66.104 14.25C65.811 14.0254 65.2837 13.791 64.522 13.5469C63.7603 13.2979 63.1572 13.0537 62.7129 12.8145C61.502 12.1602 60.8965 11.2788 60.8965 10.1704C60.8965 9.59424 61.0576 9.08154 61.3799 8.63232C61.707 8.17822 62.1733 7.82422 62.7788 7.57031C63.3892 7.31641 64.0728 7.18945 64.8296 7.18945C65.5913 7.18945 66.27 7.32861 66.8657 7.60693C67.4614 7.88037 67.9229 8.26855 68.25 8.77148C68.582 9.27441 68.748 9.8457 68.748 10.4854H66.5508C66.5508 9.99707 66.397 9.61865 66.0894 9.3501C65.7817 9.07666 65.3496 8.93994 64.793 8.93994C64.2559 8.93994 63.8384 9.05469 63.5405 9.28418C63.2427 9.50879 63.0938 9.80664 63.0938 10.1777C63.0938 10.5244 63.2671 10.8149 63.6138 11.0493C63.9653 11.2837 64.4805 11.5034 65.1592 11.7085C66.4092 12.0845 67.3198 12.5508 67.8911 13.1074C68.4624 13.6641 68.748 14.3574 68.748 15.1875C68.748 16.1104 68.3989 16.8354 67.7007 17.3628C67.0024 17.8853 66.0625 18.1465 64.8809 18.1465C64.0605 18.1465 63.3135 17.9976 62.6396 17.6997C61.9658 17.397 61.4507 16.9844 61.0942 16.4619C60.7427 15.9395 60.5669 15.334 60.5669 14.6455H62.7715C62.7715 15.8223 63.4746 16.4106 64.8809 16.4106C65.4033 16.4106 65.811 16.3057 66.104 16.0957C66.397 15.8809 66.5435 15.583 66.5435 15.2021ZM70.2422 18V7.33594H73.5234C74.4609 7.33594 75.2983 7.54834 76.0356 7.97314C76.7778 8.39307 77.3564 8.99365 77.7715 9.7749C78.1865 10.5513 78.394 11.4351 78.394 12.4263V12.917C78.394 13.9082 78.189 14.7896 77.7788 15.561C77.3735 16.3325 76.7998 16.9307 76.0576 17.3555C75.3154 17.7803 74.478 17.9951 73.5454 18H70.2422ZM72.4395 9.11572V16.2349H73.5015C74.3608 16.2349 75.0176 15.9541 75.4717 15.3926C75.9258 14.8311 76.1577 14.0278 76.1675 12.9829V12.4189C76.1675 11.335 75.9429 10.5146 75.4937 9.95801C75.0444 9.39648 74.3877 9.11572 73.5234 9.11572H72.4395Z" fill="#E01C1C"/>
<path d="M84.0776 18.9155H82.9131L87.3662 7.33594H88.5234L84.0776 18.9155ZM95.335 16.8501H100.389V18H93.9214V7.33594H95.335V16.8501ZM103.252 18H101.897V10.0752H103.252V18ZM101.788 7.97314C101.788 7.75342 101.854 7.56787 101.985 7.4165C102.122 7.26514 102.322 7.18945 102.586 7.18945C102.85 7.18945 103.05 7.26514 103.187 7.4165C103.323 7.56787 103.392 7.75342 103.392 7.97314C103.392 8.19287 103.323 8.37598 103.187 8.52246C103.05 8.66895 102.85 8.74219 102.586 8.74219C102.322 8.74219 102.122 8.66895 101.985 8.52246C101.854 8.37598 101.788 8.19287 101.788 7.97314ZM106.094 18V11.1226H104.842V10.0752H106.094V9.26221C106.094 8.4126 106.321 7.75586 106.775 7.29199C107.229 6.82812 107.872 6.59619 108.702 6.59619C109.014 6.59619 109.324 6.6377 109.632 6.7207L109.559 7.81934C109.329 7.77539 109.085 7.75342 108.826 7.75342C108.387 7.75342 108.047 7.88281 107.808 8.1416C107.569 8.39551 107.449 8.76172 107.449 9.24023V10.0752H109.141V11.1226H107.449V18H106.094ZM113.755 18.1465C112.681 18.1465 111.807 17.7949 111.133 17.0918C110.459 16.3838 110.123 15.439 110.123 14.2573V14.0083C110.123 13.2222 110.271 12.5215 110.569 11.9062C110.872 11.2861 111.292 10.8027 111.829 10.4561C112.371 10.1045 112.957 9.92871 113.587 9.92871C114.617 9.92871 115.418 10.2681 115.989 10.9468C116.561 11.6255 116.846 12.5972 116.846 13.8618V14.4258H111.478C111.497 15.207 111.724 15.8394 112.159 16.3228C112.598 16.8013 113.155 17.0405 113.829 17.0405C114.307 17.0405 114.712 16.9429 115.044 16.7476C115.376 16.5522 115.667 16.2935 115.916 15.9712L116.744 16.6157C116.08 17.6362 115.083 18.1465 113.755 18.1465ZM113.587 11.042C113.04 11.042 112.581 11.2422 112.21 11.6426C111.839 12.0381 111.609 12.5947 111.521 13.3125H115.491V13.21C115.452 12.5215 115.267 11.9893 114.935 11.6133C114.603 11.2324 114.153 11.042 113.587 11.042ZM120.259 8.15625V10.0752H121.739V11.1226H120.259V16.0371C120.259 16.3545 120.325 16.5938 120.457 16.7549C120.589 16.9111 120.813 16.9893 121.131 16.9893C121.287 16.9893 121.502 16.96 121.775 16.9014V18C121.419 18.0977 121.072 18.1465 120.735 18.1465C120.13 18.1465 119.673 17.9634 119.366 17.5972C119.058 17.231 118.904 16.7109 118.904 16.0371V11.1226H117.461V10.0752H118.904V8.15625H120.259ZM124.8 18H123.445V10.0752H124.8V18ZM123.335 7.97314C123.335 7.75342 123.401 7.56787 123.533 7.4165C123.67 7.26514 123.87 7.18945 124.134 7.18945C124.397 7.18945 124.598 7.26514 124.734 7.4165C124.871 7.56787 124.939 7.75342 124.939 7.97314C124.939 8.19287 124.871 8.37598 124.734 8.52246C124.598 8.66895 124.397 8.74219 124.134 8.74219C123.87 8.74219 123.67 8.66895 123.533 8.52246C123.401 8.37598 123.335 8.19287 123.335 7.97314ZM128.25 10.0752L128.287 10.9541C128.868 10.2705 129.651 9.92871 130.638 9.92871C131.746 9.92871 132.5 10.3535 132.901 11.2031C133.165 10.8223 133.506 10.5146 133.926 10.2803C134.351 10.0459 134.852 9.92871 135.428 9.92871C137.166 9.92871 138.05 10.8491 138.079 12.6899V18H136.724V12.7705C136.724 12.2041 136.595 11.7817 136.336 11.5034C136.077 11.2202 135.643 11.0786 135.032 11.0786C134.529 11.0786 134.112 11.23 133.78 11.5327C133.448 11.8306 133.255 12.2334 133.201 12.7412V18H131.839V12.8071C131.839 11.6548 131.275 11.0786 130.147 11.0786C129.258 11.0786 128.65 11.457 128.323 12.2139V18H126.968V10.0752H128.25ZM143.418 18.1465C142.344 18.1465 141.47 17.7949 140.796 17.0918C140.123 16.3838 139.786 15.439 139.786 14.2573V14.0083C139.786 13.2222 139.935 12.5215 140.232 11.9062C140.535 11.2861 140.955 10.8027 141.492 10.4561C142.034 10.1045 142.62 9.92871 143.25 9.92871C144.28 9.92871 145.081 10.2681 145.652 10.9468C146.224 11.6255 146.509 12.5972 146.509 13.8618V14.4258H141.141C141.16 15.207 141.387 15.8394 141.822 16.3228C142.261 16.8013 142.818 17.0405 143.492 17.0405C143.97 17.0405 144.375 16.9429 144.708 16.7476C145.04 16.5522 145.33 16.2935 145.579 15.9712L146.407 16.6157C145.743 17.6362 144.747 18.1465 143.418 18.1465ZM143.25 11.042C142.703 11.042 142.244 11.2422 141.873 11.6426C141.502 12.0381 141.272 12.5947 141.185 13.3125H145.154V13.21C145.115 12.5215 144.93 11.9893 144.598 11.6133C144.266 11.2324 143.816 11.042 143.25 11.042Z" fill="#011215"/>
</svg>
