<svg width="247" height="148" viewBox="0 0 247 148" fill="none" xmlns="http://www.w3.org/2000/svg"><g opacity=".7"><g clip-path="url(#clip0)"><path d="M204.511 93.8821 199.851 91.1914 183.848 118.909 188.509 121.599 204.511 93.8821z" fill="#754c24"/><path d="M224.197 54.4047 194.174 106.405 183.136 100.032C186.408 99.1185 190.935 95.9502 195.368 92.2953L189.545 88.9333C192.512 88.1051 196.515 85.4193 200.539 82.1992L195.209 79.1219C199.598 77.888 206.24 72.6145 211.884 67.5464L209.509 66.1756C214.318 64.8311 224.197 54.4047 224.197 54.4047z" fill="#006837"/><path d="M211.626 101.669 205.803 98.3069C204.854 103.973 204.373 109.478 205.218 112.768L194.18 106.395 224.197 54.4047C224.197 54.4047 220.107 68.1732 221.347 73.0099L218.972 71.6391C217.405 79.0609 216.159 87.4498 217.291 91.8575L211.96 88.7802C211.184 93.8753 210.86 98.6853 211.626 101.669z" fill="#009245"/><path d="M220.864 73.7258C221.32 73.9886 221.902 73.8327 222.164 73.3775 222.427 72.9223 222.271 72.3403 221.816 72.0775 221.361 71.8147 220.779 71.9707 220.516 72.4258 220.253 72.881 220.409 73.463 220.864 73.7258z" fill="#ff0"/><path d="M216.808 92.5734C217.263 92.8362 217.845 92.6802 218.108 92.225 218.371 91.7699 218.215 91.1878 217.76 90.925 217.305 90.6623 216.723 90.8182 216.46 91.2734 216.197 91.7286 216.353 92.3106 216.808 92.5734z" fill="#ef6a6a"/><path d="M211.144 102.385C211.599 102.648 212.181 102.492 212.444 102.036 212.707 101.581 212.551 100.999 212.095 100.736 211.64 100.474 211.058 100.63 210.795 101.085 210.533 101.54 210.689 102.122 211.144 102.385z" fill="#ff0"/><path d="M204.69 113.563C205.146 113.825 205.728 113.669 205.99 113.214 206.253 112.759 206.097 112.177 205.642 111.914 205.187 111.651 204.605 111.807 204.342 112.263 204.079 112.718 204.235 113.3 204.69 113.563z" fill="#ef6a6a"/><path d="M182.666 100.847C183.121 101.11 183.703 100.954 183.966 100.498 184.229 100.043 184.073 99.4613 183.618 99.1985 183.163 98.9357 182.581 99.0916 182.318 99.5468 182.055 100.002 182.211 100.584 182.666 100.847z" fill="#ff0"/><path d="M189.12 89.6692C189.575 89.932 190.157 89.776 190.42 89.3209 190.682 88.8657 190.526 88.2837 190.071 88.0209 189.616 87.7581 189.034 87.914 188.771 88.3692 188.508 88.8244 188.664 89.4064 189.12 89.6692z" fill="#ef6a6a"/><path d="M194.784 79.8578C195.239 80.1206 195.821 79.9646 196.084 79.5095 196.347 79.0543 196.191 78.4723 195.736 78.2095 195.281 77.9467 194.699 78.1026 194.436 78.5578 194.173 79.013 194.329 79.595 194.784 79.8578z" fill="#ef6a6a"/><path d="M209.111 66.9396C209.566 67.2024 210.148 67.0464 210.411 66.5912 210.673 66.1361 210.517 65.5541 210.062 65.2913 209.607 65.0285 209.025 65.1844 208.762 65.6396 208.499 66.0948 208.655 66.6768 209.111 66.9396z" fill="#ef6a6a"/><path d="M212.218 84.4648C212.673 84.7276 213.255 84.5717 213.518 84.1165 213.781 83.6613 213.625 83.0793 213.17 82.8165 212.715 82.5537 212.133 82.7097 211.87 83.1649 211.607 83.62 211.763 84.2021 212.218 84.4648z" fill="#ff0"/><path d="M198.465 93.5928C198.92 93.8556 199.502 93.6996 199.765 93.2444 200.027 92.7893 199.871 92.2072 199.416 91.9445 198.961 91.6817 198.379 91.8376 198.116 92.2928 197.853 92.748 198.009 93.33 198.465 93.5928z" fill="#ff0"/><path d="M191.011 99.7552C191.467 100.018 192.049 99.8621 192.311 99.4069 192.574 98.9517 192.418 98.3697 191.963 98.1069 191.508 97.8441 190.926 98.0001 190.663 98.4553 190.4 98.9104 190.556 99.4925 191.011 99.7552z" fill="#ef6a6a"/><path d="M200.296 105.115C200.751 105.378 201.333 105.222 201.596 104.767 201.858 104.312 201.702 103.73 201.247 103.467 200.792 103.204 200.21 103.36 199.947 103.815 199.684 104.271 199.84 104.853 200.296 105.115z" fill="#ff0"/><path d="M205.121 83.412C205.576 83.6748 206.158 83.5188 206.421 83.0637 206.684 82.6085 206.528 82.0265 206.072 81.7637 205.617 81.5009 205.035 81.6568 204.772 82.112 204.51 82.5672 204.666 83.1492 205.121 83.412z" fill="#ff0"/><path d="M205.668 93.7815C206.124 94.0443 206.706 93.8883 206.968 93.4332 207.231 92.978 207.075 92.396 206.62 92.1332 206.165 91.8704 205.583 92.0263 205.32 92.4815 205.057 92.9367 205.213 93.5187 205.668 93.7815z" fill="#ef6a6a"/><path d="M205.799 76.9062C206.254 77.169 206.836 77.0131 207.099 76.5579 207.362 76.1027 207.206 75.5207 206.751 75.2579 206.296 74.9951 205.714 75.1511 205.451 75.6063 205.188 76.0614 205.344 76.6435 205.799 76.9062z" fill="#ef6a6a"/><path d="M217.956 69.0999C218.411 69.3626 218.993 69.2067 219.256 68.7515 219.519 68.2964 219.363 67.7143 218.908 67.4515 218.452 67.1887 217.87 67.3447 217.608 67.7999 217.345 68.255 217.501 68.8371 217.956 69.0999z" fill="#ef6a6a"/><path d="M211.731 74.7448C212.186 75.0075 212.768 74.8516 213.031 74.3964 213.293 73.9412 213.137 73.3592 212.682 73.0964 212.227 72.8336 211.645 72.9896 211.382 73.4448 211.12 73.8999 211.275 74.482 211.731 74.7448z" fill="#ff0"/></g><g clip-path="url(#clip1)"><path d="M188.867 71.9923 181.508 70.0204 169.914 113.29 177.273 115.262 188.867 71.9923z" fill="#754c24"/><path d="M201.138 11.4783 179.386 92.6564 161.956 87.9861C166.085 85.5753 171.095 79.6615 175.794 73.123L166.599 70.6592C170.344 68.4737 174.817 63.4012 179.12 57.5978L170.703 55.3426C176.239 52.0979 183.357 42.5753 189.188 33.6887L185.438 32.6841C191.507 29.139 201.138 11.4783 201.138 11.4783z" fill="#006837"/><path d="M201.463 79.9844 192.267 77.5206C193.068 85.5329 194.45 93.159 196.82 97.3114L179.39 92.6411 201.138 11.4783C201.138 11.4783 200.648 31.5883 204.131 37.6927L200.381 36.6881C200.988 47.2996 202.391 59.1054 205.567 64.6678L197.15 62.4126C197.975 69.5901 199.312 76.2194 201.463 79.9844z" fill="#009245"/><path d="M203.737 38.835C204.456 39.0276 205.193 38.6077 205.384 37.8971 205.574 37.1865 205.146 36.4544 204.427 36.2618 203.708 36.0692 202.971 36.4891 202.781 37.1997 202.59 37.9102 203.019 38.6424 203.737 38.835z" fill="#ff0"/><path d="M205.173 65.81C205.892 66.0026 206.629 65.5827 206.82 64.8721 207.01 64.1615 206.582 63.4294 205.863 63.2368 205.144 63.0442 204.407 63.4641 204.217 64.1747 204.026 64.8852 204.455 65.6174 205.173 65.81z" fill="#ef6a6a"/><path d="M201.069 81.1266C201.788 81.3192 202.525 80.8993 202.716 80.1887 202.906 79.4782 202.478 78.746 201.759 78.5534 201.04 78.3608 200.303 78.7807 200.113 79.4913 199.922 80.2019 200.351 80.934 201.069 81.1266z" fill="#ff0"/><path d="M196.394 98.5761C197.112 98.7687 197.849 98.3488 198.04 97.6382 198.23 96.9276 197.802 96.1955 197.083 96.0029 196.364 95.8103 195.627 96.2302 195.437 96.9408 195.247 97.6513 195.675 98.3835 196.394 98.5761z" fill="#ef6a6a"/><path d="M161.616 89.2574C162.334 89.45 163.071 89.0301 163.262 88.3195 163.452 87.6089 163.024 86.8768 162.305 86.6842 161.586 86.4916 160.849 86.9115 160.659 87.6221 160.469 88.3326 160.897 89.0648 161.616 89.2574z" fill="#ff0"/><path d="M166.291 71.8079C167.01 72.0005 167.747 71.5806 167.937 70.87 168.128 70.1594 167.699 69.4273 166.981 69.2347 166.262 69.0421 165.525 69.462 165.334 70.1726 165.144 70.8831 165.572 71.6153 166.291 71.8079z" fill="#ef6a6a"/><path d="M170.395 56.4912C171.114 56.6838 171.851 56.2639 172.042 55.5534 172.232 54.8428 171.804 54.1106 171.085 53.918 170.366 53.7255 169.629 54.1454 169.439 54.8559 169.248 55.5665 169.677 56.2987 170.395 56.4912z" fill="#ef6a6a"/><path d="M185.177 33.8616C185.895 34.0542 186.632 33.6343 186.823 32.9237 187.013 32.2132 186.585 31.481 185.866 31.2884 185.147 31.0958 184.41 31.5157 184.22 32.2263 184.03 32.9369 184.458 33.669 185.177 33.8616z" fill="#ef6a6a"/><path d="M195.905 56.477C196.624 56.6696 197.361 56.2496 197.551 55.5391 197.742 54.8285 197.313 54.0964 196.595 53.9038 195.876 53.7112 195.139 54.1311 194.948 54.8417 194.758 55.5522 195.186 56.2844 195.905 56.477z" fill="#ff0"/><path d="M180.503 73.7691C181.222 73.9617 181.959 73.5418 182.149 72.8312 182.34 72.1206 181.911 71.3885 181.193 71.1959 180.474 71.0033 179.737 71.4232 179.546 72.1338 179.356 72.8443 179.784 73.5765 180.503 73.7691z" fill="#ff0"/><path d="M172.607 84.7863C173.326 84.9789 174.063 84.559 174.253 83.8484 174.443 83.1378 174.015 82.4057 173.296 82.2131 172.578 82.0205 171.841 82.4404 171.65 83.151 171.46 83.8615 171.888 84.5937 172.607 84.7863z" fill="#ef6a6a"/><path d="M187.267 88.7146C187.986 88.9072 188.723 88.4873 188.913 87.7767 189.104 87.0662 188.675 86.334 187.956 86.1414 187.238 85.9488 186.501 86.3688 186.31 87.0793 186.12 87.7899 186.548 88.522 187.267 88.7146z" fill="#ff0"/><path d="M185.824 57.5967C186.543 57.7893 187.28 57.3694 187.47 56.6588 187.661 55.9483 187.233 55.2161 186.514 55.0235 185.795 54.8309 185.058 55.2508 184.868 55.9614 184.677 56.672 185.106 57.4041 185.824 57.5967z" fill="#ff0"/><path d="M190.409 71.4411C191.128 71.6337 191.865 71.2138 192.055 70.5032 192.246 69.7926 191.818 69.0605 191.099 68.8679 190.38 68.6753 189.643 69.0952 189.453 69.8058 189.262 70.5163 189.691 71.2485 190.409 71.4411z" fill="#ef6a6a"/><path d="M184.344 48.5443C185.062 48.7369 185.799 48.317 185.99 47.6065 186.18 46.8959 185.752 46.1637 185.033 45.9712 184.314 45.7786 183.577 46.1985 183.387 46.909 183.197 47.6196 183.625 48.3518 184.344 48.5443z" fill="#ef6a6a"/><path d="M198.054 33.6143C198.773 33.8069 199.51 33.387 199.7 32.6764 199.891 31.9658 199.462 31.2337 198.744 31.0411 198.025 30.8485 197.288 31.2684 197.097 31.979 196.907 32.6896 197.335 33.4217 198.054 33.6143z" fill="#ef6a6a"/><path d="M191.642 43.4904C192.361 43.683 193.098 43.2631 193.289 42.5525 193.479 41.8419 193.051 41.1098 192.332 40.9172 191.613 40.7246 190.876 41.1445 190.686 41.8551 190.495 42.5656 190.924 43.2978 191.642 43.4904z" fill="#ff0"/></g><g clip-path="url(#clip2)"><path d="M162.455 78.7911H157.788V106.231H162.455V78.7911z" fill="#754c24"/><path d="M160.122 41.0403V92.521H149.069C151.129 90.4399 153.156 86.1466 154.9 81.5328H149.069C150.938 79.646 152.78 75.9355 154.406 71.8194H149.069C151.829 69.022 154.531 62.2591 156.573 56.0765H154.195C157.224 53.0168 160.122 41.0403 160.122 41.0403z" fill="#006837"/><path d="M171.175 81.5231H165.344C167.088 86.1369 169.114 90.4302 171.175 92.5113H160.122V41.0403C160.122 41.0403 163.02 53.0168 166.049 56.0765H163.671C165.712 62.2591 168.414 69.022 171.175 71.8097H165.838C167.464 75.9257 169.306 79.6362 171.175 81.5231z" fill="#009245"/><path d="M165.997 56.8147C166.453 56.8147 166.823 56.4494 166.823 55.9988 166.823 55.5482 166.453 55.1829 165.997 55.1829 165.542 55.1829 165.172 55.5482 165.172 55.9988 165.172 56.4494 165.542 56.8147 165.997 56.8147z" fill="#ff0"/><path d="M171.124 72.548C171.579 72.548 171.949 72.1827 171.949 71.7321 171.949 71.2814 171.579 70.9161 171.124 70.9161 170.668 70.9161 170.298 71.2814 170.298 71.7321 170.298 72.1827 170.668 72.548 171.124 72.548z" fill="#ef6a6a"/><path d="M171.124 82.2612C171.579 82.2612 171.949 81.8959 171.949 81.4453 171.949 80.9947 171.579 80.6294 171.124 80.6294 170.668 80.6294 170.298 80.9947 170.298 81.4453 170.298 81.8959 170.668 82.2612 171.124 82.2612z" fill="#ff0"/><path d="M171.124 93.3272C171.579 93.3272 171.949 92.9619 171.949 92.5112 171.949 92.0606 171.579 91.6953 171.124 91.6953 170.668 91.6953 170.298 92.0606 170.298 92.5112 170.298 92.9619 170.668 93.3272 171.124 93.3272z" fill="#ef6a6a"/><path d="M149.068 93.3272C149.524 93.3272 149.894 92.9619 149.894 92.5112 149.894 92.0606 149.524 91.6953 149.068 91.6953 148.613 91.6953 148.243 92.0606 148.243 92.5112 148.243 92.9619 148.613 93.3272 149.068 93.3272z" fill="#ff0"/><path d="M149.068 82.2614C149.524 82.2614 149.894 81.8961 149.894 81.4454 149.894 80.9948 149.524 80.6295 149.068 80.6295 148.613 80.6295 148.243 80.9948 148.243 81.4454 148.243 81.8961 148.613 82.2614 149.068 82.2614z" fill="#ef6a6a"/><path d="M149.068 72.548C149.524 72.548 149.894 72.1827 149.894 71.7321 149.894 71.2814 149.524 70.9161 149.068 70.9161 148.613 70.9161 148.243 71.2814 148.243 71.7321 148.243 72.1827 148.613 72.548 149.068 72.548z" fill="#ef6a6a"/><path d="M154.227 56.8148C154.682 56.8148 155.052 56.4495 155.052 55.9989 155.052 55.5483 154.682 55.183 154.227 55.183 153.771 55.183 153.401 55.5483 153.401 55.9989 153.401 56.4495 153.771 56.8148 154.227 56.8148z" fill="#ef6a6a"/><path d="M164.16 68.495C164.616 68.495 164.985 68.1297 164.985 67.6791 164.985 67.2285 164.616 66.8632 164.16 66.8632 163.704 66.8632 163.335 67.2285 163.335 67.6791 163.335 68.1297 163.704 68.495 164.16 68.495z" fill="#ff0"/><path d="M157.788 81.1685C158.244 81.1685 158.614 80.8032 158.614 80.3525 158.614 79.9019 158.244 79.5366 157.788 79.5366 157.333 79.5366 156.963 79.9019 156.963 80.3525 156.963 80.8032 157.333 81.1685 157.788 81.1685z" fill="#ff0"/><path d="M154.863 88.9392C155.319 88.9392 155.688 88.5739 155.688 88.1233 155.688 87.6727 155.319 87.3074 154.863 87.3074 154.407 87.3074 154.038 87.6727 154.038 88.1233 154.038 88.5739 154.407 88.9392 154.863 88.9392z" fill="#ef6a6a"/><path d="M164.16 88.9392C164.616 88.9392 164.985 88.5739 164.985 88.1233 164.985 87.6727 164.616 87.3074 164.16 87.3074 163.704 87.3074 163.335 87.6727 163.335 88.1233 163.335 88.5739 163.704 88.9392 164.16 88.9392z" fill="#ff0"/><path d="M158.373 70.7559C158.829 70.7559 159.198 70.3906 159.198 69.9399 159.198 69.4893 158.829 69.124 158.373 69.124 157.917 69.124 157.548 69.4893 157.548 69.9399 157.548 70.3906 157.917 70.7559 158.373 70.7559z" fill="#ff0"/><path d="M163.281 78.2206C163.736 78.2206 164.106 77.8553 164.106 77.4047 164.106 76.954 163.736 76.5887 163.281 76.5887 162.825 76.5887 162.455 76.954 162.455 77.4047 162.455 77.8553 162.825 78.2206 163.281 78.2206z" fill="#ef6a6a"/><path d="M156.062 65.6345C156.517 65.6345 156.887 65.2692 156.887 64.8186 156.887 64.368 156.517 64.0027 156.062 64.0027 155.606 64.0027 155.236 64.368 155.236 64.8186 155.236 65.2692 155.606 65.6345 156.062 65.6345z" fill="#ef6a6a"/><path d="M161.807 54.6268C162.263 54.6268 162.632 54.2615 162.632 53.8109 162.632 53.3603 162.263 52.995 161.807 52.995 161.351 52.995 160.981 53.3603 160.981 53.8109 160.981 54.2615 161.351 54.6268 161.807 54.6268z" fill="#ef6a6a"/><path d="M159.579 61.4868C160.035 61.4868 160.404 61.1215 160.404 60.6709 160.404 60.2203 160.035 59.855 159.579 59.855 159.123 59.855 158.754 60.2203 158.754 60.6709 158.754 61.1215 159.123 61.4868 159.579 61.4868z" fill="#ff0"/></g></g><g opacity=".7"><g clip-path="url(#clip3)"><path d="M73.2182 86.9777 69.3455 88.0154 75.517 111.048 79.3897 110.01 73.2182 86.9777z" fill="#754c24"/><path d="M62.7914 55.8095 74.3698 99.0208 65.1976 101.479C66.4396 99.2735 67.1556 95.2193 67.5651 90.9588L62.7262 92.2554C63.853 90.256 64.5472 86.7319 64.9708 82.9155L60.5416 84.1023C62.2035 81.1403 62.9245 74.863 63.2278 69.2197L61.2548 69.7484C63.0798 66.5067 62.7914 55.8095 62.7914 55.8095z" fill="#006837"/><path d="M81.0684 87.3319 76.2295 88.6284C78.7144 92.1134 81.3616 95.2665 83.5397 96.555L74.3675 99.0127 62.7913 55.8096C62.7913 55.8096 67.89 65.2179 71.0914 67.1127L69.1183 67.6413C72.2026 72.3769 75.9658 77.4527 78.8838 79.1788L74.4546 80.3656C76.7297 83.4589 79.0929 86.1638 81.0684 87.3319z" fill="#009245"/><path d="M71.2147 67.7438C71.593 67.6425 71.8174 67.2537 71.7161 66.8755 71.6147 66.4972 71.2259 66.2728 70.8477 66.3741 70.4695 66.4755 70.245 66.8642 70.3463 67.2425 70.4477 67.6207 70.8365 67.8452 71.2147 67.7438z" fill="#ff0"/><path d="M79.0072 79.81C79.3854 79.7086 79.6099 79.3199 79.5085 78.9416 79.4072 78.5634 79.0184 78.3389 78.6402 78.4403 78.2619 78.5416 78.0375 78.9304 78.1388 79.3086 78.2402 79.6869 78.629 79.9113 79.0072 79.81z" fill="#ef6a6a"/><path d="M81.1918 87.9631C81.57 87.8617 81.7945 87.4729 81.6931 87.0947 81.5918 86.7165 81.203 86.492 80.8248 86.5933 80.4465 86.6947 80.2221 87.0835 80.3234 87.4617 80.4247 87.8399 80.8135 88.0644 81.1918 87.9631z" fill="#ff0"/><path d="M83.6805 97.2514C84.0588 97.15 84.2832 96.7613 84.1819 96.383 84.0805 96.0048 83.6918 95.7803 83.3135 95.8817 82.9353 95.983 82.7108 96.3718 82.8122 96.75 82.9135 97.1283 83.3023 97.3527 83.6805 97.2514z" fill="#ef6a6a"/><path d="M65.379 102.155C65.7573 102.054 65.9817 101.665 65.8804 101.287 65.779 100.909 65.3902 100.684 65.012 100.786 64.6338 100.887 64.4093 101.276 64.5107 101.654 64.612 102.032 65.0008 102.257 65.379 102.155z" fill="#ff0"/><path d="M62.8903 92.8669C63.2685 92.7655 63.493 92.3767 63.3916 91.9985 63.2903 91.6203 62.9015 91.3958 62.5232 91.4972 62.145 91.5985 61.9205 91.9873 62.0219 92.3655 62.1232 92.7438 62.512 92.9682 62.8903 92.8669z" fill="#ef6a6a"/><path d="M60.7054 84.7139C61.0837 84.6126 61.3081 84.2238 61.2068 83.8456 61.1054 83.4673 60.7167 83.2429 60.3384 83.3442 59.9602 83.4456 59.7357 83.8343 59.8371 84.2126 59.9384 84.5908 60.3272 84.8153 60.7054 84.7139z" fill="#ef6a6a"/><path d="M61.4474 70.3609C61.8256 70.2595 62.0501 69.8708 61.9487 69.4925 61.8474 69.1143 61.4586 68.8898 61.0804 68.9912 60.7021 69.0925 60.4777 69.4813 60.579 69.8595 60.6804 70.2378 61.0691 70.4622 61.4474 70.3609z" fill="#ef6a6a"/><path d="M72.317 77.9565C72.6952 77.8551 72.9197 77.4663 72.8184 77.0881 72.717 76.7099 72.3282 76.4854 71.95 76.5868 71.5718 76.6881 71.3473 77.0769 71.4486 77.4551 71.55 77.8334 71.9388 78.0578 72.317 77.9565z" fill="#ff0"/><path d="M69.8802 90.0109C70.2585 89.9096 70.4829 89.5208 70.3816 89.1426 70.2802 88.7643 69.8915 88.5399 69.5132 88.6412 69.135 88.7425 68.9105 89.1313 69.0119 89.5096 69.1132 89.8878 69.502 90.1123 69.8802 90.0109z" fill="#ff0"/><path d="M69.2003 97.1838C69.5785 97.0824 69.803 96.6936 69.7017 96.3154 69.6003 95.9372 69.2115 95.7127 68.8333 95.8141 68.4551 95.9154 68.2306 96.3042 68.3319 96.6824 68.4333 97.0606 68.8221 97.2851 69.2003 97.1838z" fill="#ef6a6a"/><path d="M76.9152 95.1166C77.2934 95.0153 77.5179 94.6265 77.4165 94.2483 77.3152 93.87 76.9264 93.6456 76.5481 93.7469 76.1699 93.8483 75.9454 94.237 76.0468 94.6153 76.1481 94.9935 76.5369 95.218 76.9152 95.1166z" fill="#ff0"/><path d="M68.0233 81.1408C68.4015 81.0394 68.626 80.6507 68.5247 80.2724 68.4233 79.8942 68.0345 79.6697 67.6563 79.7711 67.2781 79.8724 67.0536 80.2612 67.1549 80.6394 67.2563 81.0177 67.6451 81.2421 68.0233 81.1408z" fill="#ff0"/><path d="M73.7748 86.3152C74.153 86.2139 74.3775 85.8251 74.2761 85.4469 74.1748 85.0686 73.786 84.8442 73.4078 84.9455 73.0295 85.0469 72.8051 85.4356 72.9064 85.8139 73.0078 86.1921 73.3965 86.4166 73.7748 86.3152z" fill="#ef6a6a"/><path d="M64.9535 77.356C65.3317 77.2547 65.5562 76.8659 65.4548 76.4876 65.3535 76.1094 64.9647 75.8849 64.5865 75.9863 64.2082 76.0876 63.9838 76.4764 64.0851 76.8547 64.1865 77.2329 64.5752 77.4574 64.9535 77.356z" fill="#ef6a6a"/><path d="M67.2455 66.839C67.6237 66.7377 67.8482 66.3489 67.7468 65.9707 67.6455 65.5924 67.2567 65.368 66.8785 65.4693 66.5002 65.5707 66.2758 65.9595 66.3771 66.3377 66.4785 66.7159 66.8672 66.9404 67.2455 66.839z" fill="#ef6a6a"/><path d="M66.9396 73.0926C67.3178 72.9912 67.5423 72.6025 67.4409 72.2242 67.3396 71.846 66.9508 71.6215 66.5726 71.7229 66.1943 71.8242 65.9699 72.213 66.0712 72.5912 66.1726 72.9695 66.5613 73.1939 66.9396 73.0926z" fill="#ff0"/></g><g clip-path="url(#clip4)"><path d="M53.4446 83.6875 48.5288 86.5256 65.2161 115.429 70.1319 112.591 53.4446 83.6875z" fill="#754c24"/><path d="M28.0292 45.343 59.3362 99.5684 47.6935 106.29C48.5987 102.845 48.1223 97.0905 47.1534 91.1701L41.0112 94.7163C41.8327 91.5921 41.5167 86.5635 40.7264 81.2391L35.1042 84.4851C36.3111 79.8595 35.0444 71.0929 33.4346 63.3394L30.9301 64.7854C32.2595 59.7207 28.0292 45.343 28.0292 45.343z" fill="#006837"/><path d="M64.2906 81.2623 58.1484 84.8085C62.7912 88.6078 67.5366 91.8976 70.9729 92.8364L59.3302 99.5583 28.0291 45.3431c0 0 10.336199999999998 10.8525 15.387 12.2335L40.9117 59.0226C46.8215 64.2934 53.7802 69.7737 58.3836 71.0311L52.7615 74.2771C56.9773 77.6237 61.1743 80.4117 64.2906 81.2623z" fill="#009245"/><path d="M43.8107 58.3855C44.2908 58.1083 44.4578 57.4988 44.1838 57.0242 43.9098 56.5495 43.2984 56.3895 42.8183 56.6667 42.3382 56.9439 42.1711 57.5534 42.4452 58.028 42.7192 58.5026 43.3306 58.6627 43.8107 58.3855z" fill="#ff0"/><path d="M58.7782 71.84C59.2583 71.5628 59.4254 70.9533 59.1513 70.4787 58.8773 70.004 58.2659 69.8439 57.7858 70.1211 57.3057 70.3983 57.1387 71.0078 57.4127 71.4825 57.6867 71.9571 58.2981 72.1172 58.7782 71.84z" fill="#ef6a6a"/><path d="M64.6852 82.0712C65.1653 81.794 65.3324 81.1845 65.0583 80.7099 64.7843 80.2352 64.1729 80.0752 63.6928 80.3523 63.2127 80.6295 63.0456 81.239 63.3197 81.7137 63.5937 82.1883 64.2051 82.3484 64.6852 82.0712z" fill="#ff0"/><path d="M71.4149 93.7271C71.895 93.4499 72.0621 92.8404 71.7881 92.3657 71.514 91.8911 70.9027 91.731 70.4225 92.0082 69.9424 92.2854 69.7754 92.8949 70.0494 93.3696 70.3235 93.8442 70.9348 94.0043 71.4149 93.7271z" fill="#ef6a6a"/><path d="M48.1837 107.14C48.6638 106.862 48.8309 106.253 48.5569 105.778 48.2828 105.304 47.6715 105.144 47.1913 105.421 46.7112 105.698 46.5442 106.307 46.8182 106.782 47.0922 107.257 47.7036 107.417 48.1837 107.14z" fill="#ff0"/><path d="M41.4542 95.4837C41.9343 95.2065 42.1014 94.597 41.8274 94.1223 41.5533 93.6477 40.942 93.4876 40.4619 93.7648 39.9817 94.042 39.8147 94.6515 40.0887 95.1261 40.3628 95.6008 40.9741 95.7609 41.4542 95.4837z" fill="#ef6a6a"/><path d="M35.5472 85.2525C36.0274 84.9753 36.1944 84.3658 35.9204 83.8911 35.6463 83.4165 35.035 83.2564 34.5549 83.5336 34.0748 83.8108 33.9077 84.4203 34.1817 84.8949 34.4558 85.3696 35.0671 85.5297 35.5472 85.2525z" fill="#ef6a6a"/><path d="M31.4127 65.5436C31.8928 65.2664 32.0599 64.6569 31.7859 64.1823 31.5118 63.7076 30.9005 63.5476 30.4203 63.8248 29.9402 64.102 29.7732 64.7114 30.0472 65.1861 30.3212 65.6607 30.9326 65.8208 31.4127 65.5436z" fill="#ef6a6a"/><path d="M48.9786 71.8059C49.4588 71.5287 49.6258 70.9192 49.3518 70.4446 49.0777 69.97 48.4664 69.8099 47.9863 70.0871 47.5062 70.3643 47.3391 70.9738 47.6131 71.4484 47.8872 71.9231 48.4985 72.0831 48.9786 71.8059z" fill="#ff0"/><path d="M49.9745 89.0298C50.4546 88.7526 50.6217 88.1431 50.3476 87.6685 50.0736 87.1938 49.4622 87.0338 48.9821 87.311 48.502 87.5882 48.3349 88.1976 48.609 88.6723 48.883 89.1469 49.4944 89.307 49.9745 89.0298z" fill="#ff0"/><path d="M51.6188 98.9938C52.0989 98.7166 52.2659 98.1071 51.9919 97.6325 51.7179 97.1578 51.1065 96.9978 50.6264 97.275 50.1463 97.5521 49.9792 98.1616 50.2533 98.6363 50.5273 99.1109 51.1387 99.271 51.6188 98.9938z" fill="#ef6a6a"/><path d="M61.4115 93.34C61.8916 93.0628 62.0587 92.4533 61.7846 91.9787 61.5106 91.504 60.8992 91.3439 60.4191 91.6211 59.939 91.8983 59.772 92.5078 60.046 92.9825 60.32 93.4571 60.9314 93.6172 61.4115 93.34z" fill="#ff0"/><path d="M44.2579 77.7064C44.738 77.4292 44.9051 76.8198 44.6311 76.3451 44.357 75.8705 43.7457 75.7104 43.2656 75.9876 42.7854 76.2648 42.6184 76.8743 42.8924 77.3489 43.1665 77.8236 43.7778 77.9836 44.2579 77.7064z" fill="#ff0"/><path d="M53.9669 82.5846C54.447 82.3074 54.6141 81.6979 54.3401 81.2233 54.066 80.7486 53.4547 80.5886 52.9745 80.8658 52.4944 81.143 52.3274 81.7525 52.6014 82.2271 52.8754 82.7017 53.4868 82.8618 53.9669 82.5846z" fill="#ef6a6a"/><path d="M38.7089 73.7177C39.189 73.4405 39.356 72.831 39.082 72.3563 38.808 71.8817 38.1966 71.7216 37.7165 71.9988 37.2364 72.276 37.0693 72.8855 37.3434 73.3602 37.6174 73.8348 38.2287 73.9949 38.7089 73.7177z" fill="#ef6a6a"/><path d="M38.0663 58.6293C38.5464 58.3521 38.7135 57.7426 38.4394 57.268 38.1654 56.7933 37.554 56.6333 37.0739 56.9105 36.5938 57.1876 36.4267 57.7971 36.7008 58.2718 36.9748 58.7464 37.5862 58.9065 38.0663 58.6293z" fill="#ef6a6a"/><path d="M39.8915 67.2099C40.3716 66.9327 40.5386 66.3232 40.2646 65.8485 39.9906 65.3739 39.3792 65.2138 38.8991 65.491 38.419 65.7682 38.2519 66.3777 38.526 66.8523 38.8 67.327 39.4114 67.4871 39.8915 67.2099z" fill="#ff0"/></g><g clip-path="url(#clip5)"><path d="M43.1122 101.183 40.6536 103.642 55.1096 118.098 57.5682 115.639 43.1122 101.183z" fill="#754c24"/><path d="M21.995 82.5249 49.1161 109.646 43.2929 115.469C43.2823 113.287 42.088 109.958 40.5761 106.608L37.5041 109.68C37.4949 107.701 36.5106 104.776 35.1989 101.751L32.3869 104.563C32.3677 101.635 30.2283 96.6486 28.0465 92.3161L26.7939 93.5688C26.7775 90.3613 21.995 82.5249 21.995 82.5249z" fill="#006837"/><path d="M49.1454 98.0289 46.0733 101.101C49.4228 102.613 52.7521 103.807 54.9342 103.818L49.111 109.641 21.9951 82.5249C21.9951 82.5249 29.8316 87.3074 33.039 87.3238L31.7864 88.5764C36.1188 90.7582 41.1051 92.8976 44.0282 92.9117L41.2163 95.7236C44.2413 97.0354 47.1666 98.0196 49.1454 98.0289z" fill="#009245"/><path d="M33.4007 87.7398C33.6408 87.4997 33.643 87.1126 33.4056 86.8752 33.1682 86.6378 32.7811 86.64 32.541 86.8801 32.3009 87.1203 32.2986 87.5074 32.536 87.7448 32.7734 87.9822 33.1606 87.98 33.4007 87.7398z" fill="#ff0"/><path d="M44.3899 93.3277C44.6301 93.0876 44.6323 92.7005 44.3949 92.4631 44.1575 92.2257 43.7704 92.2279 43.5303 92.468 43.2901 92.7082 43.2879 93.0953 43.5253 93.3327 43.7627 93.5701 44.1498 93.5679 44.3899 93.3277z" fill="#ef6a6a"/><path d="M49.5069 98.4449C49.747 98.2048 49.7492 97.8177 49.5118 97.5803 49.2744 97.3429 48.8873 97.3451 48.6472 97.5852 48.4071 97.8254 48.4048 98.2125 48.6422 98.4499 48.8796 98.6873 49.2667 98.685 49.5069 98.4449z" fill="#ff0"/><path d="M55.3367 104.275C55.5769 104.034 55.5791 103.647 55.3417 103.41 55.1043 103.173 54.7172 103.175 54.477 103.415 54.2369 103.655 54.2347 104.042 54.4721 104.28 54.7095 104.517 55.0966 104.515 55.3367 104.275z" fill="#ef6a6a"/><path d="M43.7176 115.894C43.9577 115.654 43.9599 115.267 43.7225 115.029 43.4851 114.792 43.098 114.794 42.8579 115.034 42.6178 115.274 42.6155 115.661 42.8529 115.899 43.0903 116.136 43.4774 116.134 43.7176 115.894z" fill="#ff0"/><path d="M37.888 110.064C38.1281 109.824 38.1303 109.437 37.8929 109.199 37.6555 108.962 37.2684 108.964 37.0283 109.204 36.7882 109.444 36.786 109.832 37.0233 110.069 37.2607 110.306 37.6479 110.304 37.888 110.064z" fill="#ef6a6a"/><path d="M32.7706 104.947C33.0107 104.707 33.0129 104.32 32.7755 104.082 32.5381 103.845 32.151 103.847 31.9109 104.087 31.6707 104.327 31.6685 104.714 31.9059 104.952 32.1433 105.189 32.5304 105.187 32.7706 104.947z" fill="#ef6a6a"/><path d="M27.1998 93.9409C27.4399 93.7008 27.4421 93.3136 27.2047 93.0762 26.9673 92.8388 26.5802 92.8411 26.3401 93.0812 26.0999 93.3213 26.0977 93.7084 26.3351 93.9458 26.5725 94.1832 26.9596 94.181 27.1998 93.9409z" fill="#ef6a6a"/><path d="M38.586 94.8612C38.8261 94.621 38.8283 94.2339 38.5909 93.9965 38.3535 93.7591 37.9664 93.7614 37.7263 94.0015 37.4862 94.2416 37.484 94.6287 37.7213 94.8661 37.9587 95.1035 38.3459 95.1013 38.586 94.8612z" fill="#ff0"/><path d="M41.9061 104.895C42.1462 104.654 42.1484 104.267 41.911 104.03 41.6736 103.793 41.2865 103.795 41.0464 104.035 40.8062 104.275 40.804 104.662 41.0414 104.9 41.2788 105.137 41.6659 105.135 41.9061 104.895z" fill="#ff0"/><path d="M44.4585 110.53C44.6987 110.289 44.7009 109.902 44.4635 109.665 44.2261 109.427 43.839 109.43 43.5989 109.67 43.3587 109.91 43.3565 110.297 43.5939 110.534 43.8313 110.772 44.2184 110.77 44.4585 110.53z" fill="#ef6a6a"/><path d="M49.3565 105.632C49.5966 105.391 49.5988 105.004 49.3614 104.767 49.124 104.53 48.7369 104.532 48.4968 104.772 48.2567 105.012 48.2545 105.399 48.4919 105.637 48.7293 105.874 49.1164 105.872 49.3565 105.632z" fill="#ff0"/><path d="M36.7283 99.1009C36.9684 98.8608 36.9707 98.4737 36.7333 98.2363 36.4959 97.9989 36.1088 98.0011 35.8686 98.2412 35.6285 98.4814 35.6263 98.8685 35.8637 99.1059 36.1011 99.3433 36.4882 99.341 36.7283 99.1009z" fill="#ff0"/><path d="M43.2464 100.448C43.4865 100.208 43.4887 99.8208 43.2513 99.5834 43.0139 99.3461 42.6268 99.3483 42.3867 99.5884 42.1466 99.8285 42.1444 100.216 42.3817 100.453 42.6191 100.69 43.0063 100.688 43.2464 100.448z" fill="#ef6a6a"/><path d="M32.8125 97.6207C33.0527 97.3806 33.0549 96.9935 32.8175 96.7561 32.5801 96.5187 32.193 96.5209 31.9529 96.761 31.7127 97.0011 31.7105 97.3882 31.9479 97.6256 32.1853 97.863 32.5724 97.8608 32.8125 97.6207z" fill="#ef6a6a"/><path d="M30.0403 88.7949C30.2805 88.5548 30.2827 88.1676 30.0453 87.9302 29.8079 87.6929 29.4208 87.6951 29.1806 87.9352 28.9405 88.1753 28.9383 88.5624 29.1757 88.7998 29.4131 89.0372 29.8002 89.035 30.0403 88.7949z" fill="#ef6a6a"/><path d="M32.4808 93.5826C32.7209 93.3425 32.7231 92.9554 32.4857 92.718 32.2483 92.4806 31.8612 92.4828 31.6211 92.7229 31.3809 92.9631 31.3787 93.3502 31.6161 93.5876 31.8535 93.825 32.2406 93.8227 32.4808 93.5826z" fill="#ff0"/></g></g><circle cx="42" cy="120" r="15" fill="#fff"/><circle cx="74" cy="120" r="25" fill="#fff"/><circle cx="106" cy="115" r="15" fill="#fff"/><circle cx="128" cy="115" r="24" fill="#fff"/><circle cx="150" cy="115" r="16" fill="#fff"/><circle cx="173" cy="114" r="23" fill="#fff"/><circle cx="198" cy="127" r="12" fill="#fff"/><circle cx="198" cy="142" r="6" fill="#fff"/><defs><clipPath id="clip0"><path d="M0 0h27.3346v76.0362H0z" fill="#fff" transform="translate(212.335 47.5562) rotate(30)"/></clipPath><clipPath id="clip1"><path d="M0 0h38.6996v106.424H0z" fill="#fff" transform="translate(182.406 6.45923) rotate(15)"/></clipPath><clipPath id="clip2"><path d="M0 0h23.7058v65.1911H0z" fill="#fff" transform="translate(148.243 41.0403)"/></clipPath><clipPath id="clip3"><path d="M0 0h20.3653v56.6497H0z" fill="#fff" transform="translate(52.9343 58.4508) rotate(-15)"/></clipPath><clipPath id="clip4"><path d="M0 0h28.8325v79.2895H0z" fill="#fff" transform="translate(15.5171 52.5669) rotate(-30)"/></clipPath><clipPath id="clip5"><path d="M0 0h17.6617v48.5696H0z" fill="#fff" transform="translate(15.7371 88.7828) rotate(-45)"/></clipPath></defs></svg>