<svg width="1440" height="1067" viewBox="0 0 1440 1067" fill="none" xmlns="http://www.w3.org/2000/svg"><g opacity=".05"><path d="M614.108 989.841C614.108 989.841 634.608 929.691 682.108 983.121 682.108 983.121 635.608 949.551 648.108 993.551L614.108 989.841z" fill="#e82525"/><path d="M682.108 988.921C685.311 988.921 687.908 986.325 687.908 983.121 687.908 979.918 685.311 977.321 682.108 977.321 678.904 977.321 676.308 979.918 676.308 983.121 676.308 986.325 678.904 988.921 682.108 988.921z" fill="#fff"/><path d="M650.37 992.795C650.568 990.556 642.219 987.989 631.722 987.061 621.226 986.134 612.556 987.197 612.358 989.436 612.16 991.675 620.509 994.242 631.006 995.17 641.503 996.098 650.172 995.034 650.37 992.795z" fill="#fff"/><path d="M877.108 1057.84C877.108 1057.84 897.608 997.691 945.108 1051.12 945.108 1051.12 898.608 1017.55 911.108 1061.55L877.108 1057.84z" fill="#e82525"/><path d="M945.108 1056.92C948.311 1056.92 950.908 1054.32 950.908 1051.12 950.908 1047.92 948.311 1045.32 945.108 1045.32 941.904 1045.32 939.308 1047.92 939.308 1051.12 939.308 1054.32 941.904 1056.92 945.108 1056.92z" fill="#fff"/><path d="M913.37 1060.8C913.568 1058.56 905.219 1055.99 894.722 1055.06 884.226 1054.13 875.556 1055.2 875.358 1057.44 875.16 1059.68 883.509 1062.24 894.006 1063.17 904.503 1064.1 913.172 1063.03 913.37 1060.8z" fill="#fff"/><path d="M427.108 92.8415c0 0 20.5-60.15 68-6.719999999999999.0.0-46.5-33.57-34 10.430000000000007L427.108 92.8415z" fill="#e82525"/><path d="M495.108 91.9213C498.311 91.9213 500.908 89.3245 500.908 86.1213 500.908 82.918 498.311 80.3213 495.108 80.3213 491.904 80.3213 489.308 82.918 489.308 86.1213 489.308 89.3245 491.904 91.9213 495.108 91.9213z" fill="#fff"/><path d="M463.37 95.7954C463.568 93.5563 455.219 90.9891 444.722 90.0615 434.226 89.1338 425.556 90.197 425.358 92.436 425.16 94.6751 433.509 97.2422 444.006 98.1699 454.503 99.0976 463.172 98.0344 463.37 95.7954z" fill="#fff"/><path d="M246.108 56.8415C246.108 56.8415 266.608-3.30854 314.108 50.1215c0 0-46.5-33.56999999999999-34 10.43L246.108 56.8415z" fill="#e82525"/><path d="M314.108 55.9213C317.311 55.9213 319.908 53.3245 319.908 50.1213 319.908 46.918 317.311 44.3213 314.108 44.3213 310.904 44.3213 308.308 46.918 308.308 50.1213 308.308 53.3245 310.904 55.9213 314.108 55.9213z" fill="#fff"/><path d="M282.37 59.7954C282.568 57.5563 274.219 54.9891 263.722 54.0615 253.226 53.1338 244.556 54.197 244.358 56.436 244.16 58.6751 252.509 61.2422 263.006 62.1699 273.503 63.0976 282.172 62.0344 282.37 59.7954z" fill="#fff"/><path d="M640.108 161.841C640.108 161.841 660.608 101.691 708.108 155.121 708.108 155.121 661.608 121.551 674.108 165.551L640.108 161.841z" fill="#e82525"/><path d="M708.108 160.921C711.311 160.921 713.908 158.325 713.908 155.121 713.908 151.918 711.311 149.321 708.108 149.321 704.904 149.321 702.308 151.918 702.308 155.121 702.308 158.325 704.904 160.921 708.108 160.921z" fill="#fff"/><path d="M676.37 164.795C676.568 162.556 668.219 159.989 657.722 159.061 647.226 158.134 638.556 159.197 638.358 161.436 638.16 163.675 646.509 166.242 657.006 167.17 667.503 168.098 676.172 167.034 676.37 164.795z" fill="#fff"/><path d="M841.108 432.841C841.108 432.841 861.608 372.691 909.108 426.121 909.108 426.121 862.608 392.551 875.108 436.551L841.108 432.841z" fill="#e82525"/><path d="M909.108 431.921C912.311 431.921 914.908 429.325 914.908 426.121 914.908 422.918 912.311 420.321 909.108 420.321 905.904 420.321 903.308 422.918 903.308 426.121 903.308 429.325 905.904 431.921 909.108 431.921z" fill="#fff"/><path d="M877.37 435.795C877.568 433.556 869.219 430.989 858.722 430.061 848.226 429.134 839.556 430.197 839.358 432.436 839.16 434.675 847.509 437.242 858.006 438.17 868.503 439.098 877.172 438.034 877.37 435.795z" fill="#fff"/><path d="M588.108 307.841C588.108 307.841 608.608 247.691 656.108 301.121 656.108 301.121 609.608 267.551 622.108 311.551L588.108 307.841z" fill="#e82525"/><path d="M656.108 306.921C659.311 306.921 661.908 304.325 661.908 301.121 661.908 297.918 659.311 295.321 656.108 295.321 652.904 295.321 650.308 297.918 650.308 301.121 650.308 304.325 652.904 306.921 656.108 306.921z" fill="#fff"/><path d="M624.37 310.795C624.568 308.556 616.219 305.989 605.722 305.061 595.226 304.134 586.556 305.197 586.358 307.436 586.16 309.675 594.509 312.242 605.006 313.17 615.503 314.098 624.172 313.034 624.37 310.795z" fill="#fff"/><path d="M370.108 868.841C370.108 868.841 390.608 808.691 438.108 862.121 438.108 862.121 391.608 828.551 404.108 872.551L370.108 868.841z" fill="#e82525"/><path d="M438.108 867.921C441.311 867.921 443.908 865.325 443.908 862.121 443.908 858.918 441.311 856.321 438.108 856.321 434.904 856.321 432.308 858.918 432.308 862.121 432.308 865.325 434.904 867.921 438.108 867.921z" fill="#fff"/><path d="M406.37 871.795C406.568 869.556 398.219 866.989 387.722 866.061 377.226 865.134 368.556 866.197 368.358 868.436 368.16 870.675 376.509 873.242 387.006 874.17 397.503 875.098 406.172 874.034 406.37 871.795z" fill="#fff"/><path d="M1340.11 854.841C1340.11 854.841 1360.61 794.691 1408.11 848.121 1408.11 848.121 1361.61 814.551 1374.11 858.551L1340.11 854.841z" fill="#e82525"/><path d="M1408.11 853.921C1411.31 853.921 1413.91 851.325 1413.91 848.121 1413.91 844.918 1411.31 842.321 1408.11 842.321 1404.9 842.321 1402.31 844.918 1402.31 848.121 1402.31 851.325 1404.9 853.921 1408.11 853.921z" fill="#fff"/><path d="M1376.37 857.795C1376.57 855.556 1368.22 852.989 1357.72 852.061 1347.23 851.134 1338.56 852.197 1338.36 854.436 1338.16 856.675 1346.51 859.242 1357.01 860.17 1367.5 861.098 1376.17 860.034 1376.37 857.795z" fill="#fff"/><path d="M1288.11 682.841C1288.11 682.841 1308.61 622.691 1356.11 676.121 1356.11 676.121 1309.61 642.551 1322.11 686.551L1288.11 682.841z" fill="#e82525"/><path d="M1356.11 681.921C1359.31 681.921 1361.91 679.325 1361.91 676.121 1361.91 672.918 1359.31 670.321 1356.11 670.321 1352.9 670.321 1350.31 672.918 1350.31 676.121 1350.31 679.325 1352.9 681.921 1356.11 681.921z" fill="#fff"/><path d="M1324.37 685.795C1324.57 683.556 1316.22 680.989 1305.72 680.061 1295.23 679.134 1286.56 680.197 1286.36 682.436 1286.16 684.675 1294.51 687.242 1305.01 688.17 1315.5 689.098 1324.17 688.034 1324.37 685.795z" fill="#fff"/><path d="M1358.11 558.841C1358.11 558.841 1378.61 498.691 1426.11 552.121 1426.11 552.121 1379.61 518.551 1392.11 562.551L1358.11 558.841z" fill="#e82525"/><path d="M1426.11 557.921C1429.31 557.921 1431.91 555.325 1431.91 552.121 1431.91 548.918 1429.31 546.321 1426.11 546.321 1422.9 546.321 1420.31 548.918 1420.31 552.121 1420.31 555.325 1422.9 557.921 1426.11 557.921z" fill="#fff"/><path d="M1394.37 561.795C1394.57 559.556 1386.22 556.989 1375.72 556.061 1365.23 555.134 1356.56 556.197 1356.36 558.436 1356.16 560.675 1364.51 563.242 1375.01 564.17 1385.5 565.098 1394.17 564.034 1394.37 561.795z" fill="#fff"/><path d="M1234.11 510.841C1234.11 510.841 1254.61 450.691 1302.11 504.121 1302.11 504.121 1255.61 470.551 1268.11 514.551L1234.11 510.841z" fill="#e82525"/><path d="M1302.11 509.921C1305.31 509.921 1307.91 507.325 1307.91 504.121 1307.91 500.918 1305.31 498.321 1302.11 498.321 1298.9 498.321 1296.31 500.918 1296.31 504.121 1296.31 507.325 1298.9 509.921 1302.11 509.921z" fill="#fff"/><path d="M1270.37 513.795C1270.57 511.556 1262.22 508.989 1251.72 508.061 1241.23 507.134 1232.56 508.197 1232.36 510.436 1232.16 512.675 1240.51 515.242 1251.01 516.17 1261.5 517.098 1270.17 516.034 1270.37 513.795z" fill="#fff"/><path d="M1307.11 388.841C1307.11 388.841 1327.61 328.691 1375.11 382.121 1375.11 382.121 1328.61 348.551 1341.11 392.551L1307.11 388.841z" fill="#e82525"/><path d="M1375.11 387.921C1378.31 387.921 1380.91 385.325 1380.91 382.121 1380.91 378.918 1378.31 376.321 1375.11 376.321 1371.9 376.321 1369.31 378.918 1369.31 382.121 1369.31 385.325 1371.9 387.921 1375.11 387.921z" fill="#fff"/><path d="M1343.37 391.795C1343.57 389.556 1335.22 386.989 1324.72 386.061 1314.23 385.134 1305.56 386.197 1305.36 388.436 1305.16 390.675 1313.51 393.242 1324.01 394.17 1334.5 395.098 1343.17 394.034 1343.37 391.795z" fill="#fff"/><path d="M1358.11 320.841C1358.11 320.841 1378.61 260.691 1426.11 314.121 1426.11 314.121 1379.61 280.551 1392.11 324.551L1358.11 320.841z" fill="#e82525"/><path d="M1426.11 319.921C1429.31 319.921 1431.91 317.325 1431.91 314.121 1431.91 310.918 1429.31 308.321 1426.11 308.321 1422.9 308.321 1420.31 310.918 1420.31 314.121 1420.31 317.325 1422.9 319.921 1426.11 319.921z" fill="#fff"/><path d="M1394.37 323.795C1394.57 321.556 1386.22 318.989 1375.72 318.061 1365.23 317.134 1356.56 318.197 1356.36 320.436 1356.16 322.675 1364.51 325.242 1375.01 326.17 1385.5 327.098 1394.17 326.034 1394.37 323.795z" fill="#fff"/><path d="M1226.11 293.841C1226.11 293.841 1246.61 233.691 1294.11 287.121 1294.11 287.121 1247.61 253.551 1260.11 297.551L1226.11 293.841z" fill="#e82525"/><path d="M1294.11 292.921C1297.31 292.921 1299.91 290.325 1299.91 287.121 1299.91 283.918 1297.31 281.321 1294.11 281.321 1290.9 281.321 1288.31 283.918 1288.31 287.121 1288.31 290.325 1290.9 292.921 1294.11 292.921z" fill="#fff"/><path d="M1262.37 296.795C1262.57 294.556 1254.22 291.989 1243.72 291.061 1233.23 290.134 1224.56 291.197 1224.36 293.436 1224.16 295.675 1232.51 298.242 1243.01 299.17 1253.5 300.098 1262.17 299.034 1262.37 296.795z" fill="#fff"/><path d="M1352.11 177.841C1352.11 177.841 1372.61 117.691 1420.11 171.121 1420.11 171.121 1373.61 137.551 1386.11 181.551L1352.11 177.841z" fill="#e82525"/><path d="M1420.11 176.921C1423.31 176.921 1425.91 174.325 1425.91 171.121 1425.91 167.918 1423.31 165.321 1420.11 165.321 1416.9 165.321 1414.31 167.918 1414.31 171.121 1414.31 174.325 1416.9 176.921 1420.11 176.921z" fill="#fff"/><path d="M1388.37 180.795C1388.57 178.556 1380.22 175.989 1369.72 175.061 1359.23 174.134 1350.56 175.197 1350.36 177.436 1350.16 179.675 1358.51 182.242 1369.01 183.17 1379.5 184.098 1388.17 183.034 1388.37 180.795z" fill="#fff"/><path d="M1271.11 115.841C1271.11 115.841 1291.61 55.6915 1339.11 109.121 1339.11 109.121 1292.61 75.5515 1305.11 119.551L1271.11 115.841z" fill="#e82525"/><path d="M1339.11 114.921C1342.31 114.921 1344.91 112.325 1344.91 109.121 1344.91 105.918 1342.31 103.321 1339.11 103.321 1335.9 103.321 1333.31 105.918 1333.31 109.121 1333.31 112.325 1335.9 114.921 1339.11 114.921z" fill="#fff"/><path d="M1307.37 118.795C1307.57 116.556 1299.22 113.989 1288.72 113.061 1278.23 112.134 1269.56 113.197 1269.36 115.436 1269.16 117.675 1277.51 120.242 1288.01 121.17 1298.5 122.098 1307.17 121.034 1307.37 118.795z" fill="#fff"/><path d="M1224.11 941.841C1224.11 941.841 1244.61 881.691 1292.11 935.121 1292.11 935.121 1245.61 901.551 1258.11 945.551L1224.11 941.841z" fill="#e82525"/><path d="M1292.11 940.921C1295.31 940.921 1297.91 938.325 1297.91 935.121 1297.91 931.918 1295.31 929.321 1292.11 929.321 1288.9 929.321 1286.31 931.918 1286.31 935.121 1286.31 938.325 1288.9 940.921 1292.11 940.921z" fill="#fff"/><path d="M1260.37 944.795C1260.57 942.556 1252.22 939.989 1241.72 939.061 1231.23 938.134 1222.56 939.197 1222.36 941.436 1222.16 943.675 1230.51 946.242 1241.01 947.17 1251.5 948.098 1260.17 947.034 1260.37 944.795z" fill="#fff"/><path d="M1316.11 987.841C1316.11 987.841 1336.61 927.691 1384.11 981.121 1384.11 981.121 1337.61 947.551 1350.11 991.551L1316.11 987.841z" fill="#e82525"/><path d="M1384.11 986.921C1387.31 986.921 1389.91 984.325 1389.91 981.121 1389.91 977.918 1387.31 975.321 1384.11 975.321 1380.9 975.321 1378.31 977.918 1378.31 981.121 1378.31 984.325 1380.9 986.921 1384.11 986.921z" fill="#fff"/><path d="M1352.37 990.795C1352.57 988.556 1344.22 985.989 1333.72 985.061 1323.23 984.134 1314.56 985.197 1314.36 987.436 1314.16 989.675 1322.51 992.242 1333.01 993.17 1343.5 994.098 1352.17 993.034 1352.37 990.795z" fill="#fff"/><path d="M556.108 733.841C556.108 733.841 576.608 673.691 624.108 727.121 624.108 727.121 577.608 693.551 590.108 737.551L556.108 733.841z" fill="#e82525"/><path d="M624.108 732.921C627.311 732.921 629.908 730.325 629.908 727.121 629.908 723.918 627.311 721.321 624.108 721.321 620.904 721.321 618.308 723.918 618.308 727.121 618.308 730.325 620.904 732.921 624.108 732.921z" fill="#fff"/><path d="M592.37 736.795C592.568 734.556 584.219 731.989 573.722 731.061 563.226 730.134 554.556 731.197 554.358 733.436 554.16 735.675 562.509 738.242 573.006 739.17 583.503 740.098 592.172 739.034 592.37 736.795z" fill="#fff"/><path d="M1041 70.9V92.7L1059.88 103.61 1078.76 92.7V70.9L1059.88 60 1041 70.9z" fill="#f9ff00"/><path d="M1211 88.9V110.7L1229.88 121.61 1248.76 110.7V88.9L1229.88 78 1211 88.9z" fill="#f9ff00"/><path d="M1003 197.9V219.7L1021.88 230.61 1040.76 219.7V197.9L1021.88 187 1003 197.9z" fill="#f9ff00"/><path d="M1155 282.9V304.7L1173.88 315.61 1192.76 304.7V282.9L1173.88 272 1155 282.9z" fill="#f9ff00"/><path d="M1022 467.9V489.7L1040.88 500.61 1059.76 489.7V467.9L1040.88 457 1022 467.9z" fill="#f9ff00"/><path d="M1206 445.9V467.7L1224.88 478.61 1243.76 467.7V445.9L1224.88 435 1206 445.9z" fill="#f9ff00"/><path d="M1203 614.9V636.7L1221.88 647.61 1240.76 636.7V614.9L1221.88 604 1203 614.9z" fill="#f9ff00"/><path d="M1057 636.9V658.7L1075.88 669.61 1094.76 658.7V636.9L1075.88 626 1057 636.9z" fill="#f9ff00"/><path d="M355 752.9V774.7L373.88 785.61 392.76 774.7V752.9L373.88 742 355 752.9z" fill="#f9ff00"/><path d="M256 973.9V995.7L274.88 1006.61 293.76 995.7V973.9L274.88 963 256 973.9z" fill="#f9ff00"/><path d="M390 929.9V951.7L408.88 962.61 427.76 951.7V929.9L408.88 919 390 929.9z" fill="#f9ff00"/><path d="M199 696.9V718.7L217.88 729.61 236.76 718.7V696.9L217.88 686 199 696.9z" fill="#f9ff00"/><path d="M294 654.9V676.7L312.88 687.61 331.76 676.7V654.9L312.88 644 294 654.9z" fill="#f9ff00"/><path d="M389 580.9V602.7L407.88 613.61 426.76 602.7V580.9L407.88 570 389 580.9z" fill="#f9ff00"/><path d="M294 536.9V558.7L312.88 569.61 331.76 558.7V536.9L312.88 526 294 536.9z" fill="#f9ff00"/><path d="M62 610.9V632.7L80.88 643.61 99.76 632.7V610.9L80.88 6e2 62 610.9z" fill="#f9ff00"/><path d="M5 744.9V766.7L23.88 777.61 42.76 766.7V744.9L23.88 734 5 744.9z" fill="#f9ff00"/><path d="M1e2 834.9V856.7L118.88 867.61 137.76 856.7V834.9L118.88 824 1e2 834.9z" fill="#f9ff00"/><path d="M27 957.9V979.7L45.88 990.61 64.76 979.7V957.9L45.88 947 27 957.9z" fill="#f9ff00"/><path d="M8 486.9V508.7L26.88 519.61 45.76 508.7V486.9L26.88 476 8 486.9z" fill="#f9ff00"/><path d="M138 399.9V421.7L156.88 432.61 175.76 421.7V399.9L156.88 389 138 399.9z" fill="#f9ff00"/><path d="M1251 173.9V195.7L1269.88 206.61 1288.76 195.7V173.9L1269.88 163 1251 173.9z" fill="#f9ff00"/><path d="M1352 93.9V115.7L1370.88 126.61 1389.76 115.7V93.9L1370.88 83 1352 93.9z" fill="#f9ff00"/><path d="M1314 223.9V245.7L1332.88 256.61 1351.76 245.7V223.9L1332.88 213 1314 223.9z" fill="#f9ff00"/><path d="M1376 438.9V460.7L1394.88 471.61 1413.76 460.7V438.9L1394.88 428 1376 438.9z" fill="#f9ff00"/><path d="M1276 564.9V586.7L1294.88 597.61 1313.76 586.7V564.9L1294.88 554 1276 564.9z" fill="#f9ff00"/><path d="M1390 658.9V680.7L1408.88 691.61 1427.76 680.7V658.9L1408.88 648 1390 658.9z" fill="#f9ff00"/><path d="M1333 751.9V773.7L1351.88 784.61 1370.76 773.7V751.9L1351.88 741 1333 751.9z" fill="#f9ff00"/><path d="M1409 971.9V993.7L1427.88 1004.61 1446.76 993.7V971.9L1427.88 961 1409 971.9z" fill="#f9ff00"/><path d="M1098 1033.9V1055.7L1116.88 1066.61 1135.76 1055.7V1033.9L1116.88 1023 1098 1033.9z" fill="#f9ff00"/><path d="M1333 1025.9V1047.7L1351.88 1058.61 1370.76 1047.7V1025.9L1351.88 1015 1333 1025.9z" fill="#f9ff00"/><path d="M5 316.9V338.7L23.88 349.61 42.76 338.7V316.9L23.88 306 5 316.9z" fill="#f9ff00"/><path d="M119 202.9V224.7L137.88 235.61 156.76 224.7V202.9L137.88 192 119 202.9z" fill="#f9ff00"/><path d="M22 90.9V112.7L40.88 123.61 59.76 112.7V90.9L40.88 80 22 90.9z" fill="#f9ff00"/><path d="M113 10.9V32.7L131.88 43.61 150.76 32.7V10.9L131.88.0 113 10.9z" fill="#f9ff00"/><path d="M687 718.9V740.7L705.88 751.61 724.76 740.7V718.9L705.88 708 687 718.9z" fill="#f9ff00"/><path d="M466 735.9V757.7L484.88 768.61 503.76 757.7V735.9L484.88 725 466 735.9z" fill="#f9ff00"/><path d="M765 624.9V646.7L783.88 657.61 802.76 646.7V624.9L783.88 614 765 624.9z" fill="#f9ff00"/><path d="M762 403.9V425.7L780.88 436.61 799.76 425.7V403.9L780.88 393 762 403.9z" fill="#f9ff00"/><path d="M706 335.9V357.7L724.88 368.61 743.76 357.7V335.9L724.88 325 706 335.9z" fill="#f9ff00"/><path d="M542 326.9V348.7L560.88 359.61 579.76 348.7V326.9L560.88 316 542 326.9z" fill="#f9ff00"/><path d="M561 71.9V93.7L579.88 104.61 598.76 93.7V71.9L579.88 61 561 71.9z" fill="#f9ff00"/><path d="M724 49.9V71.7L742.88 82.61 761.76 71.7V49.9L742.88 39 724 49.9z" fill="#f9ff00"/><path d="M561 929.9V951.7L579.88 962.61 598.76 951.7V929.9L579.88 919 561 929.9z" fill="#f9ff00"/><path d="M687 1007.9V1029.7L705.88 1040.61 724.76 1029.7V1007.9L705.88 997 687 1007.9z" fill="#f9ff00"/><path d="M984 1024.9V1046.7L1002.88 1057.61 1021.76 1046.7V1024.9L1002.88 1014 984 1024.9z" fill="#f9ff00"/><path d="M803 1017.9V1039.7L821.88 1050.61 840.76 1039.7V1017.9L821.88 1007 803 1017.9z" fill="#f9ff00"/><path d="M393 425.9V447.7L411.88 458.61 430.76 447.7V425.9L411.88 415 393 425.9z" fill="#f9ff00"/><path d="M317 326.9V348.7L335.88 359.61 354.76 348.7V326.9L335.88 316 317 326.9z" fill="#f9ff00"/><path d="M237 391.9V413.7L255.88 424.61 274.76 413.7V391.9L255.88 381 237 391.9z" fill="#f9ff00"/><path d="M355 158.9V180.7L373.88 191.61 392.76 180.7V158.9L373.88 148 355 158.9z" fill="#f9ff00"/><path d="M189 98.9V120.7L207.88 131.61 226.76 120.7V98.9L207.88 88 189 98.9z" fill="#f9ff00"/><path d="M276 220.9V242.7L294.88 253.61 313.76 242.7V220.9L294.88 210 276 220.9z" fill="#f9ff00"/><path d="M1022 769.9V791.7L1040.88 802.61 1059.76 791.7V769.9L1040.88 759 1022 769.9z" fill="#f9ff00"/><path d="M1206 837.9V859.7L1224.88 870.61 1243.76 859.7V837.9L1224.88 827 1206 837.9z" fill="#f9ff00"/><path d="M1160 929.9V951.7L1178.88 962.61 1197.76 951.7V929.9L1178.88 919 1160 929.9z" fill="#f9ff00"/><path d="M1038 951.9V973.7L1056.88 984.61 1075.76 973.7V951.9L1056.88 941 1038 951.9z" fill="#f9ff00"/><path d="M1080.76 203.84C1080.76 203.84 1101.26 143.69 1148.76 197.12 1148.76 197.12 1102.26 163.55 1114.76 207.55L1080.76 203.84z" fill="#e82525"/><path d="M1148.76 202.92C1151.96 202.92 1154.56 200.323 1154.56 197.12 1154.56 193.917 1151.96 191.32 1148.76 191.32 1145.56 191.32 1142.96 193.917 1142.96 197.12 1142.96 200.323 1145.56 202.92 1148.76 202.92z" fill="#fff"/><path d="M1117.02 206.794C1117.22 204.555 1108.87 201.988 1098.37 201.06 1087.88 200.132 1079.21 201.195 1079.01 203.435 1078.81 205.674 1087.16 208.241 1097.66 209.168 1108.15 210.096 1116.82 209.033 1117.02 206.794z" fill="#fff"/><path d="M874.108 56.8415C874.108 56.8415 894.608-3.30854 942.108 50.1215c0 0-46.5-33.56999999999999-34 10.43L874.108 56.8415z" fill="#e82525"/><path d="M942.108 55.9213C945.311 55.9213 947.908 53.3245 947.908 50.1213 947.908 46.918 945.311 44.3213 942.108 44.3213 938.904 44.3213 936.308 46.918 936.308 50.1213 936.308 53.3245 938.904 55.9213 942.108 55.9213z" fill="#fff"/><path d="M910.37 59.7954C910.568 57.5563 902.219 54.9891 891.722 54.0615 881.226 53.1338 872.556 54.197 872.358 56.436 872.16 58.6751 880.509 61.2422 891.006 62.1699 901.503 63.0976 910.172 62.0344 910.37 59.7954z" fill="#fff"/><path d="M1118.11 116.841C1118.11 116.841 1138.61 56.6915 1186.11 110.121 1186.11 110.121 1139.61 76.5515 1152.11 120.551L1118.11 116.841z" fill="#e82525"/><path d="M1186.11 115.921C1189.31 115.921 1191.91 113.325 1191.91 110.121 1191.91 106.918 1189.31 104.321 1186.11 104.321 1182.9 104.321 1180.31 106.918 1180.31 110.121 1180.31 113.325 1182.9 115.921 1186.11 115.921z" fill="#fff"/><path d="M1154.37 119.795C1154.57 117.556 1146.22 114.989 1135.72 114.061 1125.23 113.134 1116.56 114.197 1116.36 116.436 1116.16 118.675 1124.51 121.242 1135.01 122.17 1145.5 123.098 1154.17 122.034 1154.37 119.795z" fill="#fff"/><path d="M966.76 409.84C966.76 409.84 987.26 349.69 1034.76 403.12 1034.76 403.12 988.26 369.55 1000.76 413.55L966.76 409.84z" fill="#e82525"/><path d="M1034.76 408.92C1037.96 408.92 1040.56 406.323 1040.56 403.12 1040.56 399.917 1037.96 397.32 1034.76 397.32 1031.56 397.32 1028.96 399.917 1028.96 403.12 1028.96 406.323 1031.56 408.92 1034.76 408.92z" fill="#fff"/><path d="M1003.02 412.794C1003.22 410.555 994.871 407.988 984.375 407.06 973.878 406.132 965.208 407.195 965.011 409.435 964.813 411.674 973.162 414.241 983.658 415.168 994.155 416.096 1002.82 415.033 1003.02 412.794z" fill="#fff"/><path d="M1185.76 375.84C1185.76 375.84 1206.26 315.69 1253.76 369.12 1253.76 369.12 1207.26 335.55 1219.76 379.55L1185.76 375.84z" fill="#e82525"/><path d="M1253.76 374.92C1256.96 374.92 1259.56 372.323 1259.56 369.12 1259.56 365.917 1256.96 363.32 1253.76 363.32 1250.56 363.32 1247.96 365.917 1247.96 369.12 1247.96 372.323 1250.56 374.92 1253.76 374.92z" fill="#fff"/><path d="M1222.02 378.794C1222.22 376.555 1213.87 373.988 1203.37 373.06 1192.88 372.132 1184.21 373.195 1184.01 375.435 1183.81 377.674 1192.16 380.241 1202.66 381.168 1213.15 382.096 1221.82 381.033 1222.02 378.794z" fill="#fff"/><path d="M1066.76 354.84C1066.76 354.84 1087.26 294.69 1134.76 348.12 1134.76 348.12 1088.26 314.55 1100.76 358.55L1066.76 354.84z" fill="#e82525"/><path d="M1134.76 353.92C1137.96 353.92 1140.56 351.323 1140.56 348.12 1140.56 344.917 1137.96 342.32 1134.76 342.32 1131.56 342.32 1128.96 344.917 1128.96 348.12 1128.96 351.323 1131.56 353.92 1134.76 353.92z" fill="#fff"/><path d="M1103.02 357.794C1103.22 355.555 1094.87 352.988 1084.37 352.06 1073.88 351.132 1065.21 352.195 1065.01 354.435 1064.81 356.674 1073.16 359.241 1083.66 360.168 1094.15 361.096 1102.82 360.033 1103.02 357.794z" fill="#fff"/><path d="M874.76 642.84C874.76 642.84 895.26 582.69 942.76 636.12 942.76 636.12 896.26 602.55 908.76 646.55L874.76 642.84z" fill="#e82525"/><path d="M942.76 641.92C945.963 641.92 948.56 639.323 948.56 636.12 948.56 632.917 945.963 630.32 942.76 630.32 939.557 630.32 936.96 632.917 936.96 636.12 936.96 639.323 939.557 641.92 942.76 641.92z" fill="#fff"/><path d="M911.022 645.794C911.22 643.555 902.871 640.988 892.375 640.06 881.878 639.132 873.208 640.195 873.011 642.435 872.813 644.674 881.162 647.241 891.658 648.168 902.155 649.096 910.825 648.033 911.022 645.794z" fill="#fff"/><path d="M1109.76 542.84C1109.76 542.84 1130.26 482.69 1177.76 536.12 1177.76 536.12 1131.26 502.55 1143.76 546.55L1109.76 542.84z" fill="#e82525"/><path d="M1177.76 541.92C1180.96 541.92 1183.56 539.323 1183.56 536.12 1183.56 532.917 1180.96 530.32 1177.76 530.32 1174.56 530.32 1171.96 532.917 1171.96 536.12 1171.96 539.323 1174.56 541.92 1177.76 541.92z" fill="#fff"/><path d="M1146.02 545.794C1146.22 543.555 1137.87 540.988 1127.37 540.06 1116.88 539.132 1108.21 540.195 1108.01 542.435 1107.81 544.674 1116.16 547.241 1126.66 548.168 1137.15 549.096 1145.82 548.033 1146.02 545.794z" fill="#fff"/><path d="M1208.11 736.841C1208.11 736.841 1228.61 676.691 1276.11 730.121 1276.11 730.121 1229.61 696.551 1242.11 740.551L1208.11 736.841z" fill="#e82525"/><path d="M1276.11 735.921C1279.31 735.921 1281.91 733.325 1281.91 730.121 1281.91 726.918 1279.31 724.321 1276.11 724.321 1272.9 724.321 1270.31 726.918 1270.31 730.121 1270.31 733.325 1272.9 735.921 1276.11 735.921z" fill="#fff"/><path d="M1244.37 739.795C1244.57 737.556 1236.22 734.989 1225.72 734.061 1215.23 733.134 1206.56 734.197 1206.36 736.436 1206.16 738.675 1214.51 741.242 1225.01 742.17 1235.5 743.098 1244.17 742.034 1244.37 739.795z" fill="#fff"/><path d="M1004.76 882.84C1004.76 882.84 1025.26 822.69 1072.76 876.12 1072.76 876.12 1026.26 842.55 1038.76 886.55L1004.76 882.84z" fill="#e82525"/><path d="M1072.76 881.92C1075.96 881.92 1078.56 879.323 1078.56 876.12 1078.56 872.917 1075.96 870.32 1072.76 870.32 1069.56 870.32 1066.96 872.917 1066.96 876.12 1066.96 879.323 1069.56 881.92 1072.76 881.92z" fill="#fff"/><path d="M1041.02 885.794C1041.22 883.555 1032.87 880.988 1022.37 880.06 1011.88 879.132 1003.21 880.195 1003.01 882.435 1002.81 884.674 1011.16 887.241 1021.66 888.168 1032.15 889.096 1040.82 888.033 1041.02 885.794z" fill="#fff"/><path d="M1104.76 763.84C1104.76 763.84 1125.26 703.69 1172.76 757.12 1172.76 757.12 1126.26 723.55 1138.76 767.55L1104.76 763.84z" fill="#e82525"/><path d="M1172.76 762.92C1175.96 762.92 1178.56 760.323 1178.56 757.12 1178.56 753.917 1175.96 751.32 1172.76 751.32 1169.56 751.32 1166.96 753.917 1166.96 757.12 1166.96 760.323 1169.56 762.92 1172.76 762.92z" fill="#fff"/><path d="M1141.02 766.794C1141.22 764.555 1132.87 761.988 1122.37 761.06 1111.88 760.132 1103.21 761.195 1103.01 763.435 1102.81 765.674 1111.16 768.241 1121.66 769.168 1132.15 770.096 1140.82 769.033 1141.02 766.794z" fill="#fff"/><path d="M1169.76 1030.84C1169.76 1030.84 1190.26 970.69 1237.76 1024.12 1237.76 1024.12 1191.26 990.55 1203.76 1034.55L1169.76 1030.84z" fill="#e82525"/><path d="M1237.76 1029.92C1240.96 1029.92 1243.56 1027.32 1243.56 1024.12 1243.56 1020.92 1240.96 1018.32 1237.76 1018.32 1234.56 1018.32 1231.96 1020.92 1231.96 1024.12 1231.96 1027.32 1234.56 1029.92 1237.76 1029.92z" fill="#fff"/><path d="M1206.02 1033.79C1206.22 1031.55 1197.87 1028.99 1187.37 1028.06 1176.88 1027.13 1168.21 1028.2 1168.01 1030.43 1167.81 1032.67 1176.16 1035.24 1186.66 1036.17 1197.15 1037.1 1205.82 1036.03 1206.02 1033.79z" fill="#fff"/><path d="M200.76 186.84C200.76 186.84 221.26 126.69 268.76 180.12 268.76 180.12 222.26 146.55 234.76 190.55L200.76 186.84z" fill="#e82525"/><path d="M268.76 185.92C271.963 185.92 274.56 183.323 274.56 180.12 274.56 176.917 271.963 174.32 268.76 174.32 265.557 174.32 262.96 176.917 262.96 180.12 262.96 183.323 265.557 185.92 268.76 185.92z" fill="#fff"/><path d="M237.022 189.794C237.22 187.555 228.871 184.988 218.375 184.06 207.878 183.132 199.208 184.195 199.011 186.435 198.813 188.674 207.162 191.241 217.658 192.168 228.155 193.096 236.825 192.033 237.022 189.794z" fill="#fff"/><path d="M14.1079 213.841C14.1079 213.841 34.6079 153.691 82.1079 207.121 82.1079 207.121 35.6079 173.551 48.1079 217.551L14.1079 213.841z" fill="#e82525"/><path d="M82.1076 212.921C85.3109 212.921 87.9076 210.325 87.9076 207.121 87.9076 203.918 85.3109 201.321 82.1076 201.321 78.9044 201.321 76.3076 203.918 76.3076 207.121 76.3076 210.325 78.9044 212.921 82.1076 212.921z" fill="#fff"/><path d="M50.3701 216.795C50.5679 214.556 42.2191 211.989 31.7224 211.061 21.2257 210.134 12.5561 211.197 12.3582 213.436 12.1604 215.675 20.5092 218.242 31.0059 219.17 41.5026 220.098 50.1722 219.034 50.3701 216.795z" fill="#fff"/><path d="M98.1079 346.841C98.1079 346.841 118.608 286.691 166.108 340.121 166.108 340.121 119.608 306.551 132.108 350.551L98.1079 346.841z" fill="#e82525"/><path d="M166.108 345.921C169.311 345.921 171.908 343.325 171.908 340.121 171.908 336.918 169.311 334.321 166.108 334.321 162.904 334.321 160.308 336.918 160.308 340.121 160.308 343.325 162.904 345.921 166.108 345.921z" fill="#fff"/><path d="M134.37 349.795C134.568 347.556 126.219 344.989 115.722 344.061 105.226 343.134 96.5561 344.197 96.3582 346.436 96.1604 348.675 104.509 351.242 115.006 352.17 125.503 353.098 134.172 352.034 134.37 349.795z" fill="#fff"/><path d="M3.10791 460.841C3.10791 460.841 23.6079 400.691 71.1079 454.121 71.1079 454.121 24.6079 420.551 37.1079 464.551L3.10791 460.841z" fill="#e82525"/><path d="M71.1076 459.921C74.3109 459.921 76.9076 457.325 76.9076 454.121 76.9076 450.918 74.3109 448.321 71.1076 448.321 67.9044 448.321 65.3076 450.918 65.3076 454.121 65.3076 457.325 67.9044 459.921 71.1076 459.921z" fill="#fff"/><path d="M39.3701 463.795C39.5679 461.556 31.2191 458.989 20.7224 458.061 10.2257 457.134 1.55607 458.197 1.35823 460.436 1.16039 462.675 9.50924 465.242 20.0059 466.17 30.5026 467.098 39.1722 466.034 39.3701 463.795z" fill="#fff"/><path d="M77.1079 516.841C77.1079 516.841 97.6079 456.691 145.108 510.121 145.108 510.121 98.6079 476.551 111.108 520.551L77.1079 516.841z" fill="#e82525"/><path d="M145.108 515.921C148.311 515.921 150.908 513.325 150.908 510.121 150.908 506.918 148.311 504.321 145.108 504.321 141.904 504.321 139.308 506.918 139.308 510.121 139.308 513.325 141.904 515.921 145.108 515.921z" fill="#fff"/><path d="M113.37 519.795C113.568 517.556 105.219 514.989 94.7224 514.061 84.2257 513.134 75.5561 514.197 75.3582 516.436 75.1604 518.675 83.5092 521.242 94.0059 522.17 104.503 523.098 113.172 522.034 113.37 519.795z" fill="#fff"/><path d="M-5.89209 590.841C-5.89209 590.841 14.6079 530.691 62.1079 584.121 62.1079 584.121 15.6079 550.551 28.1079 594.551L-5.89209 590.841z" fill="#e82525"/><path d="M62.1076 589.921C65.3109 589.921 67.9076 587.325 67.9076 584.121 67.9076 580.918 65.3109 578.321 62.1076 578.321 58.9044 578.321 56.3076 580.918 56.3076 584.121 56.3076 587.325 58.9044 589.921 62.1076 589.921z" fill="#fff"/><path d="M30.3701 593.795C30.5679 591.556 22.2191 588.989 11.7224 588.061 1.2257 587.134-7.44392 588.197-7.64177 590.436-7.83961 592.675.509243 595.242 11.0059 596.17 21.5026 597.098 30.1722 596.034 30.3701 593.795z" fill="#fff"/><path d="M100.108 696.841C100.108 696.841 120.608 636.691 168.108 690.121 168.108 690.121 121.608 656.551 134.108 700.551L100.108 696.841z" fill="#e82525"/><path d="M168.108 695.921C171.311 695.921 173.908 693.325 173.908 690.121 173.908 686.918 171.311 684.321 168.108 684.321 164.904 684.321 162.308 686.918 162.308 690.121 162.308 693.325 164.904 695.921 168.108 695.921z" fill="#fff"/><path d="M136.37 699.795C136.568 697.556 128.219 694.989 117.722 694.061 107.226 693.134 98.5561 694.197 98.3582 696.436 98.1604 698.675 106.509 701.242 117.006 702.17 127.503 703.098 136.172 702.034 136.37 699.795z" fill="#fff"/><path d="M195.108 622.841C195.108 622.841 215.608 562.691 263.108 616.121 263.108 616.121 216.608 582.551 229.108 626.551L195.108 622.841z" fill="#e82525"/><path d="M263.108 621.921C266.311 621.921 268.908 619.325 268.908 616.121 268.908 612.918 266.311 610.321 263.108 610.321 259.904 610.321 257.308 612.918 257.308 616.121 257.308 619.325 259.904 621.921 263.108 621.921z" fill="#fff"/><path d="M231.37 625.795C231.568 623.556 223.219 620.989 212.722 620.061 202.226 619.134 193.556 620.197 193.358 622.436 193.16 624.675 201.509 627.242 212.006 628.17 222.503 629.098 231.172 628.034 231.37 625.795z" fill="#fff"/><path d="M38.1079 810.841C38.1079 810.841 58.6079 750.691 106.108 804.121 106.108 804.121 59.6079 770.551 72.1079 814.551L38.1079 810.841z" fill="#e82525"/><path d="M106.108 809.921C109.311 809.921 111.908 807.325 111.908 804.121 111.908 800.918 109.311 798.321 106.108 798.321 102.904 798.321 100.308 800.918 100.308 804.121 100.308 807.325 102.904 809.921 106.108 809.921z" fill="#fff"/><path d="M74.3701 813.795C74.5679 811.556 66.2191 808.989 55.7224 808.061 45.2257 807.134 36.5561 808.197 36.3582 810.436 36.1604 812.675 44.5092 815.242 55.0059 816.17 65.5026 817.098 74.1722 816.034 74.3701 813.795z" fill="#fff"/><path d="M119.108 961.841C119.108 961.841 139.608 901.691 187.108 955.121 187.108 955.121 140.608 921.551 153.108 965.551L119.108 961.841z" fill="#e82525"/><path d="M187.108 960.921C190.311 960.921 192.908 958.325 192.908 955.121 192.908 951.918 190.311 949.321 187.108 949.321 183.904 949.321 181.308 951.918 181.308 955.121 181.308 958.325 183.904 960.921 187.108 960.921z" fill="#fff"/><path d="M155.37 964.795C155.568 962.556 147.219 959.989 136.722 959.061 126.226 958.134 117.556 959.197 117.358 961.436 117.16 963.675 125.509 966.242 136.006 967.17 146.503 968.098 155.172 967.034 155.37 964.795z" fill="#fff"/><path d="M376.108 1021.84c0 0 20.5-60.149 68-6.720000000000027C444.108 1015.12 397.608 981.551 410.108 1025.55L376.108 1021.84z" fill="#e82525"/><path d="M444.108 1020.92C447.311 1020.92 449.908 1018.32 449.908 1015.12 449.908 1011.92 447.311 1009.32 444.108 1009.32 440.904 1009.32 438.308 1011.92 438.308 1015.12 438.308 1018.32 440.904 1020.92 444.108 1020.92z" fill="#fff"/><path d="M412.37 1024.8C412.568 1022.56 404.219 1019.99 393.722 1019.06 383.226 1018.13 374.556 1019.2 374.358 1021.44 374.16 1023.68 382.509 1026.24 393.006 1027.17 403.503 1028.1 412.172 1027.03 412.37 1024.8z" fill="#fff"/><path d="M394.76 310.84C394.76 310.84 415.26 250.69 462.76 304.12 462.76 304.12 416.26 270.55 428.76 314.55L394.76 310.84z" fill="#e82525"/><path d="M462.76 309.92C465.963 309.92 468.56 307.323 468.56 304.12 468.56 300.917 465.963 298.32 462.76 298.32 459.557 298.32 456.96 300.917 456.96 304.12 456.96 307.323 459.557 309.92 462.76 309.92z" fill="#fff"/><path d="M431.022 313.794C431.22 311.555 422.871 308.988 412.375 308.06 401.878 307.132 393.208 308.195 393.011 310.435 392.813 312.674 401.162 315.241 411.658 316.168 422.155 317.096 430.825 316.033 431.022 313.794z" fill="#fff"/><path d="M200.76 327.84C200.76 327.84 221.26 267.69 268.76 321.12 268.76 321.12 222.26 287.55 234.76 331.55L200.76 327.84z" fill="#e82525"/><path d="M268.76 326.92C271.963 326.92 274.56 324.323 274.56 321.12 274.56 317.917 271.963 315.32 268.76 315.32 265.557 315.32 262.96 317.917 262.96 321.12 262.96 324.323 265.557 326.92 268.76 326.92z" fill="#fff"/><path d="M237.022 330.794C237.22 328.555 228.871 325.988 218.375 325.06 207.878 324.132 199.208 325.195 199.011 327.435 198.813 329.674 207.162 332.241 217.658 333.168 228.155 334.096 236.825 333.033 237.022 330.794z" fill="#fff"/><path d="M172.108 540.841C172.108 540.841 192.608 480.691 240.108 534.121 240.108 534.121 193.608 500.551 206.108 544.551L172.108 540.841z" fill="#e82525"/><path d="M240.108 539.921C243.311 539.921 245.908 537.325 245.908 534.121 245.908 530.918 243.311 528.321 240.108 528.321 236.904 528.321 234.308 530.918 234.308 534.121 234.308 537.325 236.904 539.921 240.108 539.921z" fill="#fff"/><path d="M208.37 543.795C208.568 541.556 200.219 538.989 189.722 538.061 179.226 537.134 170.556 538.197 170.358 540.436 170.16 542.675 178.509 545.242 189.006 546.17 199.503 547.098 208.172 546.034 208.37 543.795z" fill="#fff"/><path d="M410.76 642.84C410.76 642.84 431.26 582.69 478.76 636.12 478.76 636.12 432.26 602.55 444.76 646.55L410.76 642.84z" fill="#e82525"/><path d="M478.76 641.92C481.963 641.92 484.56 639.323 484.56 636.12 484.56 632.917 481.963 630.32 478.76 630.32 475.557 630.32 472.96 632.917 472.96 636.12 472.96 639.323 475.557 641.92 478.76 641.92z" fill="#fff"/><path d="M447.022 645.794C447.22 643.555 438.871 640.988 428.375 640.06 417.878 639.132 409.208 640.195 409.011 642.435 408.813 644.674 417.162 647.241 427.658 648.168 438.155 649.096 446.825 648.033 447.022 645.794z" fill="#fff"/><path d="M276.76 770.84C276.76 770.84 297.26 710.69 344.76 764.12 344.76 764.12 298.26 730.55 310.76 774.55L276.76 770.84z" fill="#e82525"/><path d="M344.76 769.92C347.963 769.92 350.56 767.323 350.56 764.12 350.56 760.917 347.963 758.32 344.76 758.32 341.557 758.32 338.96 760.917 338.96 764.12 338.96 767.323 341.557 769.92 344.76 769.92z" fill="#fff"/><path d="M313.022 773.794C313.22 771.555 304.871 768.988 294.375 768.06 283.878 767.132 275.208 768.195 275.011 770.435 274.813 772.674 283.162 775.241 293.658 776.168 304.155 777.096 312.825 776.033 313.022 773.794z" fill="#fff"/><path d="M200.76 882.84C200.76 882.84 221.26 822.69 268.76 876.12 268.76 876.12 222.26 842.55 234.76 886.55L200.76 882.84z" fill="#e82525"/><path d="M268.76 881.92C271.963 881.92 274.56 879.323 274.56 876.12 274.56 872.917 271.963 870.32 268.76 870.32 265.557 870.32 262.96 872.917 262.96 876.12 262.96 879.323 265.557 881.92 268.76 881.92z" fill="#fff"/><path d="M237.022 885.794C237.22 883.555 228.871 880.988 218.375 880.06 207.878 879.132 199.208 880.195 199.011 882.435 198.813 884.674 207.162 887.241 217.658 888.168 228.155 889.096 236.825 888.033 237.022 885.794z" fill="#fff"/><path d="M486.76 1013.84C486.76 1013.84 507.26 953.69 554.76 1007.12 554.76 1007.12 508.26 973.55 520.76 1017.55L486.76 1013.84z" fill="#e82525"/><path d="M554.76 1012.92C557.963 1012.92 560.56 1010.32 560.56 1007.12 560.56 1003.92 557.963 1001.32 554.76 1001.32 551.557 1001.32 548.96 1003.92 548.96 1007.12 548.96 1010.32 551.557 1012.92 554.76 1012.92z" fill="#fff"/><path d="M523.022 1016.79C523.22 1014.55 514.871 1011.99 504.375 1011.06 493.878 1010.13 485.208 1011.2 485.011 1013.43 484.813 1015.67 493.162 1018.24 503.658 1019.17 514.155 1020.1 522.825 1019.03 523.022 1016.79z" fill="#fff"/></g></svg>