<svg width="235" height="274" viewBox="0 0 235 274" fill="none" xmlns="http://www.w3.org/2000/svg">
<path fill-rule="evenodd" clip-rule="evenodd" d="M75.6222 30.7156C72.1159 37.4226 65.0925 42 57 42C56.378 42 55.7623 41.973 55.154 41.92C53.9434 46.048 51.4991 49.6485 48.2474 52.2953C48.7357 53.775 49 55.3566 49 57C49 60.4544 47.8323 63.636 45.8702 66.1717C49.6581 69.9703 52 75.2117 52 81C52 88.7236 47.8304 95.4733 41.6194 99.121C41.7992 99.7859 41.9183 100.476 41.9702 101.184C50.1421 104.059 56 111.845 56 121C56 129.651 50.7689 137.08 43.2972 140.297C41.5324 144.396 38.4996 147.821 34.6928 150.078C39.167 153.929 42 159.634 42 166C42 173.64 37.9205 180.327 31.821 184.001C31.857 184.001 31.893 184 31.9291 184L32 184C39.2801 184 45.3489 189.186 46.7132 196.066C47.4699 196.022 48.2323 196 49 196C63.1317 196 75.5079 203.516 82.349 214.769C84.147 214.268 86.0422 214 88 214C97.8892 214 106.182 220.836 108.411 230.04C112.186 218.409 123.111 210 136 210C143.842 210 150.956 213.112 156.176 218.169C158.813 216.784 161.815 216 165 216C168.819 216 172.375 217.127 175.353 219.066C177.516 212.121 182.135 206.26 188.194 202.497C188.066 201.683 188 200.849 188 200C188 197.239 188.699 194.641 189.931 192.374C180.043 188.694 173 179.169 173 168C173 158.64 177.946 150.435 185.368 145.856C183.848 142.552 183 138.875 183 135C183 130.329 184.232 125.945 186.388 122.157C178.956 117.581 174 109.369 174 100C174 89.142 180.656 79.8386 190.11 75.9471C188.768 73.6057 188 70.8925 188 68C188 67.8555 188.002 67.7115 188.006 67.5679C179.142 63.4258 173 54.4301 173 44C173 43.1654 173.039 42.3399 173.116 41.5254C168.221 40.3048 164.218 36.8295 162.274 32.2664C159.494 34.5968 155.911 36 152 36C150.795 36 149.621 35.8667 148.491 35.6141C146.389 44.9925 138.013 52 128 52C116.402 52 107 42.598 107 31C107 30.7951 107.003 30.5908 107.009 30.3873C104.892 31.4203 102.514 32 100 32C94.651 32 89.9151 29.3752 87.01 25.3434C85.3934 28.6908 81.9664 31 78 31C77.1807 31 76.3843 30.9015 75.6222 30.7156ZM20.2647 50.9623C19.4515 52.8096 19 54.8521 19 57C19 59.1203 19.4399 61.1378 20.2334 62.9663C14.1038 66.6337 10 73.3376 10 81C10 88.7236 14.1696 95.4733 20.3806 99.121C20.1324 100.039 20 101.004 20 102C20 103.292 20.2228 104.533 20.6322 105.684C18.5417 107.646 16.853 110.031 15.7028 112.703C8.23114 115.92 3 123.349 3 132C3 138.366 5.83302 144.071 10.3072 147.922C4.13674 151.58 0 158.307 0 166C0 177.598 9.40202 187 21 187C21.7239 187 22.4392 186.963 23.1443 186.892C19.419 189.621 17 194.028 17 199C17 202.604 18.2708 205.911 20.3888 208.497C13.9413 215.454 10 224.767 10 235C10 256.539 27.4609 274 49 274C63.1317 274 75.5079 266.484 82.349 255.231C84.147 255.732 86.0422 256 88 256C96.6637 256 104.102 250.754 107.311 243.264C109.374 257.259 121.432 268 136 268C146.696 268 156.039 262.21 161.067 253.592C162.336 253.86 163.651 254 165 254C171.246 254 176.788 250.986 180.252 246.333C185.738 253.43 194.335 258 204 258C220.569 258 234 244.569 234 228C234 217.232 228.327 207.789 219.806 202.497C219.934 201.683 220 200.849 220 200C220 195.457 218.107 191.356 215.066 188.444C221.115 183.683 225 176.295 225 168C225 164.125 224.152 160.448 222.632 157.144C230.054 152.565 235 144.36 235 135C235 125.631 230.044 117.419 222.612 112.843C224.768 109.055 226 104.671 226 100C226 91.4492 221.872 83.8624 215.501 79.1238C218.286 76.2446 220 72.3224 220 68C220 65.5717 219.459 63.2697 218.491 61.208C222.542 56.6234 225 50.5988 225 44C225 29.6406 213.359 18 199 18C196.373 18 193.837 18.3896 191.447 19.1142C188.873 13.724 183.371 10 177 10C173.089 10 169.506 11.4032 166.726 13.7336C164.288 8.01146 158.613 4 152 4C145.888 4 140.576 7.42753 137.882 12.4655C134.936 10.892 131.572 10 128 10C123.476 10 119.287 11.4304 115.859 13.8636C114.814 6.0371 108.112 0 100 0C92.1221 0 85.574 5.69342 84.2459 13.19C82.5346 11.8196 80.363 11 78 11C77.1807 11 76.3843 11.0985 75.6222 11.2844C72.1159 4.57745 65.0925 0 57 0C47.4577 0 39.4019 6.36446 36.846 15.08C36.2377 15.027 35.622 15 35 15C23.402 15 14 24.402 14 36C14 41.8567 16.3975 47.1535 20.2647 50.9623Z" fill="white"/>
</svg>
