<svg width="18" height="20" viewBox="0 0 18 20" fill="none" xmlns="http://www.w3.org/2000/svg">
<path d="M15.1875 12.5H14.0625C13.9133 12.5 13.7702 12.5658 13.6648 12.6831C13.5593 12.8003 13.5 12.9592 13.5 13.125V17.5H2.25V5H7.3125C7.46168 5 7.60476 4.93415 7.71025 4.81694C7.81574 4.69973 7.875 4.54076 7.875 4.375V3.125C7.875 2.95924 7.81574 2.80027 7.71025 2.68306C7.60476 2.56585 7.46168 2.5 7.3125 2.5H1.6875C1.23995 2.5 0.810725 2.69754 0.494257 3.04917C0.17779 3.40081 0 3.87772 0 4.375L0 18.125C0 18.6223 0.17779 19.0992 0.494257 19.4508C0.810725 19.8025 1.23995 20 1.6875 20H14.0625C14.5101 20 14.9393 19.8025 15.2557 19.4508C15.5722 19.0992 15.75 18.6223 15.75 18.125V13.125C15.75 12.9592 15.6907 12.8003 15.5852 12.6831C15.4798 12.5658 15.3367 12.5 15.1875 12.5ZM17.1562 0H12.6562C11.905 0 11.5295 1.01211 12.0586 1.60156L13.3147 2.99727L4.74609 12.5145C4.66743 12.6016 4.60502 12.705 4.56244 12.819C4.51985 12.933 4.49793 13.0551 4.49793 13.1785C4.49793 13.3019 4.51985 13.4241 4.56244 13.538C4.60502 13.652 4.66743 13.7555 4.74609 13.8426L5.54309 14.7266C5.62147 14.814 5.71462 14.8833 5.81718 14.9306C5.91974 14.9779 6.02969 15.0023 6.14074 15.0023C6.25179 15.0023 6.36175 14.9779 6.46431 14.9306C6.56687 14.8833 6.66001 14.814 6.7384 14.7266L15.3028 5.20781L16.5586 6.60156C17.0859 7.1875 18 6.77734 18 5.9375V0.9375C18 0.68886 17.9111 0.450403 17.7529 0.274587C17.5946 0.098772 17.38 0 17.1562 0V0Z" fill="white"/>
</svg>
