<svg width="12" height="13" viewBox="0 0 12 13" fill="none" xmlns="http://www.w3.org/2000/svg"><path d="M4.23011 3.97481 3.96689 4.01491.68989 4.51413.689511 4.51418C.610822 4.52611.5438 4.58088.513402 4.67877.482816 4.77725.504026 4.87766.574174 4.94903L.574313 4.94917 2.94515 7.36323 3.12297 7.54429 3.08179 7.79471 2.5211 11.2045C2.50224 11.3197 2.54861 11.4079 2.61583 11.4585 2.68227 11.5085 2.75581 11.5152 2.82612 11.4762L2.82771 11.4753 5.7593 9.86517 6 9.73297 6.24071 9.86517 9.17229 11.4753 9.17237 11.4754C9.24333 11.5144 9.31786 11.5075 9.38454 11.4573 9.45151 11.407 9.49763 11.3196 9.47896 11.2049L4.23011 3.97481zm0 0L4.34376 3.73403 5.80834.631089C5.85437.533661 5.92904.499761 5.99913.500001 6.07075.500247 6.14663.536375 6.19189.631577 6.19193.631654 6.19197.631732 6.192.63181L7.65624 3.73403 7.76989 3.97481 8.03311 4.01491 11.3101 4.51413 11.3105 4.51418C11.3892 4.52611 11.4562 4.58088 11.4866 4.67877 11.5172 4.77725 11.496 4.87766 11.4258 4.94903L11.4257 4.94917 9.05485 7.36323 8.87703 7.54429 8.91821 7.79471 9.4789 11.2045 4.23011 3.97481z" stroke="#fff"/></svg>